<?xml version="1.0" standalone="no"?>
<!DOCTYPE svg PUBLIC "-//W3C//DTD SVG 1.1//EN" "http://www.w3.org/Graphics/SVG/1.1/DTD/svg11.dtd" >
<svg xmlns="http://www.w3.org/2000/svg" xmlns:xlink="http://www.w3.org/1999/xlink" version="1.1">
<metadata>
Created by FontForge 20191125 at Sat Oct  6 02:23:36 2012
 By convertio
Copyright (c) 2012 Natanael Gama (info@ndiscovered.com), with Reserved Font Name 'Cinzel'
</metadata>
<defs>
<font id="CinzelDecorative-Black" horiz-adv-x="600" >
  <font-face 
    font-family="Cinzel Decorative Black"
    font-weight="900"
    font-stretch="normal"
    units-per-em="1000"
    panose-1="0 0 10 0 0 0 0 0 0 0"
    ascent="800"
    descent="-200"
    x-height="700"
    cap-height="720"
    bbox="-340 -373 1580 977"
    underline-thickness="50"
    underline-position="-100"
    unicode-range="U+0020-FB02"
  />
<missing-glyph horiz-adv-x="250" 
 />
    <glyph glyph-name=".notdef" horiz-adv-x="250" 
 />
    <glyph glyph-name=".null" horiz-adv-x="0" 
 />
    <glyph glyph-name="nonmarkingreturn" horiz-adv-x="333" 
 />
    <glyph glyph-name="space" unicode=" " horiz-adv-x="250" 
 />
    <glyph glyph-name="exclam" unicode="!" horiz-adv-x="295" 
d="M227 363l-45 -133h-70l-45 133l-22 339h205zM145.5 -14q-37.5 0 -64 26.5t-26.5 63.5t26.5 63.5t64 26.5t63.5 -26.5t26 -63.5t-26 -63.5t-63.5 -26.5z" />
    <glyph glyph-name="quotedbl" unicode="&#x22;" horiz-adv-x="394" 
d="M30 505q34 85 34 138q0 26 -5 57l132 14v-15.5t-6 -38t-20.5 -59t-45.5 -61t-72 -40.5zM204 505q34 85 34 138q0 26 -5 57l131 14v-15.5t-5.5 -38t-20.5 -59t-45.5 -61t-71.5 -40.5z" />
    <glyph glyph-name="numbersign" unicode="#" 
d="M546 437h-118l-28 -160h102v-60h-113l-38 -217h-62l38 217h-138l-38 -217h-62l38 217h-107v60h118l28 160h-102v60h113l35 203h62l-35 -203h138l35 203h62l-35 -203h107v-60zM338 277l28 160h-138l-28 -160h138z" />
    <glyph glyph-name="dollar" unicode="$" horiz-adv-x="615" 
d="M521 54q-75 -59 -200 -67l-7 -89l-48 3l7 85q-81 1 -141.5 19t-87.5 46q-9 22 -9 47.5t4 49.5q11 59 37 92h9q-1 -6 -1 -13q0 -68 51 -125t142 -65l17 227l-120 56q-69 31 -100 87q-25 44 -25 97q0 108 73 164q61 46 162 46q17 0 44 -1l6 75l48 -1l-6 -77q42 -3 77 -6h78
l-22 -163h-10q0 75 -73 107q-24 10 -53 14l-16 -205l123 -57q116 -53 116 -170t-75 -176zM225.5 526q21.5 -19 67.5 -39l17 -9l14 186q-72 -5 -103 -43q-17 -21 -17 -48.5t21.5 -46.5zM341 243l-16 -206q57 5 87.5 32.5t30.5 61.5t-24 60t-78 52z" />
    <glyph glyph-name="percent" unicode="%" horiz-adv-x="777" 
d="M363 642q16 -32 16 -60.5t-2 -44.5q-9 -83 -64.5 -129.5t-141 -46.5t-123.5 49q-28 37 -28 95q0 109 69 165q55 44 140 44h1h19.5t45 -7t41.5 -16q45 -26 83 -26q42 0 104 33q16 8 21 11l39 -17l-372 -711l-45 19l346 653q-37 -24 -75 -24t-74 13zM181.5 401.5
q25.5 0.5 43 36t23 84.5t5.5 76q0 76 -28 76t-48 -63q-21 -68 -21 -139t25.5 -70.5zM450 295q55 44 136 44t117 -43t36 -109q0 -101 -60 -151t-146 -50t-124 49q-28 37 -28 94q0 109 69 166zM510 94q0 -68 27 -68q24 0 41.5 35.5t23.5 85t6 76.5q0 76 -29 76
q-21 0 -37.5 -36t-24 -88t-7.5 -81z" />
    <glyph glyph-name="ampersand" unicode="&#x26;" horiz-adv-x="918" 
d="M1219 -130q-176 -69 -359 -11q-92 30 -168 90l-98 77q-86 -36 -181 -36q-98 0 -195 27q-134 38 -177 125q-16 33 -16 72t14 70.5t38 53.5q46 42 107 59q-43 70 -43 127t23.5 94t63.5 57q78 39 182 39q71 0 131.5 -17.5t83.5 -53.5l-47 -163h-9q-2 184 -116 184
q-45 0 -73.5 -28t-28.5 -76.5t41 -98t117 -114.5t200 -168q110 119 110 267q0 39 -11 90t-57.5 118t-123.5 126l7 6q101 -69 158 -157q66 -104 66 -215q0 -155 -103 -273q8 -7 37 -32.5t47.5 -41.5t52.5 -43.5t57 -42.5t58 -35t65 -31q75 -27 146 -34zM246 317
q-8 -26 -8 -46q0 -167 134 -210q34 -11 76.5 -11t92.5 18l-174 137q-74 59 -121 112z" />
    <glyph glyph-name="quotesingle" unicode="'" horiz-adv-x="220" 
d="M30 505q34 85 34 138q0 26 -5 57l132 14v-15.5t-6 -38t-20.5 -59t-45.5 -61t-72 -40.5z" />
    <glyph glyph-name="parenleft" unicode="(" horiz-adv-x="478" 
d="M290 354q0 -335 157 -445l-6 -9q-90 21 -158.5 65t-109.5 102q-83 116 -83 267q0 161 83 267q88 111 270 131l6 -8q-159 -76 -159 -370z" />
    <glyph glyph-name="parenright" unicode=")" horiz-adv-x="478" 
d="M32 -91q157 110 157 445q0 294 -159 370l6 8q182 -20 269 -131q84 -106 84 -267q0 -151 -83 -267q-42 -58 -110.5 -102t-157.5 -65z" />
    <glyph glyph-name="asterisk" unicode="*" horiz-adv-x="390" 
d="M202 605l67 -31l59 -58l-35 -42l-51 -20l-38 73l-9 73l-8 -73l-37 -73l-51 20l-35 42l58 58l66 31l-72 -14l-81 13l3 54l30 46l73 -37l50 -53l-35 64l-14 81l53 14l53 -14l-12 -81l-36 -65l50 54l73 38l30 -46l3 -55l-82 -13z" />
    <glyph glyph-name="plus" unicode="+" horiz-adv-x="481" 
d="M442 342v-65h-169v-168h-65v168h-168v65h168v169h65v-169h169z" />
    <glyph glyph-name="comma" unicode="," horiz-adv-x="260" 
d="M41 -116q30 13 41 43q4 12 4 21q0 32 -25.5 61.5t-25.5 66.5q0 49 33 73q22 17 43 17q73 0 99 -58q15 -37 15 -73t-16 -69q-34 -70 -96 -91q-21 -7 -38 -7t-30 3z" />
    <glyph glyph-name="hyphen" unicode="-" horiz-adv-x="380" 
d="M30 292l10 40h300l10 -40l-10 -41h-300z" />
    <glyph glyph-name="period" unicode="." horiz-adv-x="250" 
d="M125 -14q-37 0 -63.5 26.5t-26.5 63.5t26.5 63.5t63.5 26.5t63.5 -26.5t26.5 -63.5t-26.5 -63.5t-63.5 -26.5z" />
    <glyph glyph-name="slash" unicode="/" horiz-adv-x="439" 
d="M10 14l361 709l59 -27l-361 -710z" />
    <glyph glyph-name="zero" unicode="0" horiz-adv-x="700" 
d="M350 614q146 0 228 -83t82 -231t-82 -231t-228 -83q-97 0 -166.5 37t-106.5 108t-37 169q0 148 82 231t228 83zM350 564q-47 0 -73.5 -70t-26.5 -173t12 -163q24 -122 88 -122q47 0 73.5 70t26.5 194t-26.5 194t-73.5 70z" />
    <glyph glyph-name="one" unicode="1" horiz-adv-x="406" 
d="M46 10q23 0 39 16t16 38v473q0 30 -27 46q-13 7 -28 7h-21v10h357l-1 -10h-20q-32 0 -48 -26q-7 -12 -8 -27v-474q0 -30 28 -46q13 -7 28 -7h20l1 -10h-357v10h21z" />
    <glyph glyph-name="two" unicode="2" horiz-adv-x="658" 
d="M144 616q72 19 150.5 19t143 -21.5t102.5 -63.5t38 -99q0 -45 -31 -94q-17 -28 -77 -76q-37 -30 -107.5 -66t-75.5 -39h190q44 0 77.5 23.5t59.5 73.5h10l-68 -273h-520v9q33 39 87 97t90.5 98.5t73.5 88.5q76 98 76 181q0 55 -32.5 84.5t-80.5 29.5q-74 0 -108.5 -52.5
t-34.5 -143.5h-10l-67 171q42 34 114 53z" />
    <glyph glyph-name="three" unicode="3" horiz-adv-x="602" 
d="M279 612q120 0 187 -45t67 -127q0 -93 -79 -131q-26 -13 -56 -14q93 -18 138 -90q26 -42 26 -105q0 -85 -51 -149q-96 -121 -289 -121q-98 0 -183 38l2 10h11q75 0 142.5 27.5t110 83.5t42.5 127q0 100 -83 144q-45 23 -102 24l2 10h6q66 0 112 46.5t46 107.5
q0 66 -41 94q-28 21 -67 21q-71 0 -100 -53q-23 -43 -23 -125v-17h-10l-57 173q39 32 104.5 51.5t144.5 19.5z" />
    <glyph glyph-name="four" unicode="4" horiz-adv-x="643" 
d="M511 89v-126q0 -30 28 -46q12 -7 27 -7h11v-10h-338l1 10h10q23 0 39 15t17 37v127h-321v10l516 515h10v-420h43q26 0 40.5 9.5t24.5 30.5h10l-31 -145h-87zM306 194v147l-152 -147h152z" />
    <glyph glyph-name="five" unicode="5" horiz-adv-x="592" 
d="M152 324q71 16 124 16t93 -11q87 -24 129.5 -83.5t42.5 -137.5q0 -68 -29 -120.5t-73 -84.5q-103 -76 -244 -76q-106 0 -185 42l2 10h18.5t48.5 5t76.5 20t78 37t60.5 57q28 40 28 88.5t-33 80.5q-36 34 -97 34t-133 -27l-9 6l83 384l298 25q54 0 79 50h10l-42 -207
l-307 -25z" />
    <glyph glyph-name="six" unicode="6" horiz-adv-x="675" 
d="M334 419q25 19 54.5 26t46.5 7q54 0 87 -16t59 -42q54 -53 54 -154q0 -112 -72 -182q-76 -73 -227 -73q-296 0 -296 330q0 218 128 332q105 94 293 94q47 0 98 -7l4 -7q-90 -28 -129 -51t-61 -39t-38 -37t-28 -39.5t-19.5 -44.5t-12 -47.5t-7.5 -53.5q-3 -50 -3 -110
t0.5 -88t3 -61t7 -49.5t13.5 -33.5q15 -28 47 -28t50 13.5t28 39.5q16 46 16 123t-13 111q-18 49 -64 49q-23 0 -48 -16l-7 8q11 27 36 46z" />
    <glyph glyph-name="seven" unicode="7" horiz-adv-x="572" 
d="M90 425q-29 0 -46 -14.5t-29 -45.5h-10l28 233h530l-128 -295q-29 -66 -72 -195t-65 -208h-170q49 80 124.5 215t105.5 199l52 111h-320z" />
    <glyph glyph-name="eight" unicode="8" horiz-adv-x="636" 
d="M611 200q0 -103 -84 -158.5t-229 -55.5q-202 0 -256 101q-17 32 -17 72q0 67 39 107t96 60q-92 72 -92 174t69 158t174 56t178 -48t73 -122q0 -51 -37.5 -85.5t-94.5 -48.5q117 -61 148 -104q33 -46 33 -106zM253 640q-20 -23 -20 -62t28 -66t111 -71q24 45 24 106
q0 54 -23 84q-24 32 -62 32t-58 -23zM322 35q39 0 72 23t33 59.5t-34 67.5t-99 64t-77 40q-23 -41 -23 -105t29 -103q34 -46 99 -46z" />
    <glyph glyph-name="nine" unicode="9" horiz-adv-x="675" 
d="M341 177q-25 -19 -54.5 -26t-46.5 -7q-54 0 -87 16t-59 42q-54 53 -54 155q0 111 72 181q76 73 227 73q296 0 296 -330q0 -218 -129 -332q-104 -93 -292 -93q-47 0 -98 6l-4 7q90 28 129 51t61 39t38 37t28 39.5t19.5 44.5t12 47.5t6.5 53.5q4 50 4 100v68.5t-1 42t-2 38
t-3 32t-5 27.5t-7 21.5t-9.5 18t-12.5 12.5q-13 10 -38 10t-43.5 -13.5t-27.5 -39.5q-16 -46 -16 -122.5t13 -111.5q19 -49 64 -49q23 0 48 16l7 -8q-11 -27 -36 -46z" />
    <glyph glyph-name="colon" unicode=":" horiz-adv-x="250" 
d="M125 369q-37 0 -63.5 26t-26.5 63.5t26.5 64t63.5 26.5t63.5 -26.5t26.5 -64t-26.5 -63.5t-63.5 -26zM125 -14q-37 0 -63.5 26.5t-26.5 63.5t26.5 63.5t63.5 26.5t63.5 -26.5t26.5 -63.5t-26.5 -63.5t-63.5 -26.5z" />
    <glyph glyph-name="semicolon" unicode=";" horiz-adv-x="260" 
d="M125 397q-37 0 -63.5 26.5t-26.5 64t26.5 63.5t63.5 26t63.5 -26t26.5 -63.5t-26.5 -64t-63.5 -26.5zM41 -116q30 13 41 43q4 12 4 21q0 32 -25.5 61.5t-25.5 66.5q0 49 33 73q22 17 43 17q73 0 99 -58q15 -37 15 -73t-16 -69q-34 -70 -96 -91q-21 -7 -38 -7t-30 3z" />
    <glyph glyph-name="less" unicode="&#x3c;" horiz-adv-x="501" 
d="M442 526v-71l-309 -145l309 -146v-71l-402 187v59z" />
    <glyph glyph-name="equal" unicode="=" horiz-adv-x="481" 
d="M40 354v65h402v-65h-402zM40 179v65h402v-65h-402z" />
    <glyph glyph-name="greater" unicode="&#x3e;" horiz-adv-x="481" 
d="M40 526l402 -187v-59l-402 -187v71l309 146l-309 145v71z" />
    <glyph glyph-name="question" unicode="?" horiz-adv-x="493" 
d="M248 539q0 125 -91 125q-97 0 -97 -154h-10l-50 115q23 40 81.5 64.5t139.5 24.5q117 0 179.5 -46t62.5 -131q0 -58 -32.5 -99t-114.5 -101q-52 -38 -58 -59q-8 -27 7 -57l-9 -6q-65 17 -90 66q-11 21 -11 36.5t1.5 29.5t12.5 32.5t24 32.5t26 30q29 36 29 97zM289 12.5
q-26 -26.5 -63.5 -26.5t-64 26.5t-26.5 63.5t26.5 63.5t64 26.5t63.5 -26.5t26 -63.5t-26 -63.5z" />
    <glyph glyph-name="at" unicode="@" horiz-adv-x="998" 
d="M84 114q-64 55 -64 153q0 58 27 128q41 100 130 173t208 105q78 21 140 21q253 0 366 -131q83 -97 83 -236q0 -165 -99 -285.5t-268 -156.5q-49 -11 -104 -11q-132 0 -295 63l-4 10q107 -44 202 -44q126 0 225 63q82 54 131 147q58 107 58 228t-44 194q-50 84 -151 107
q-39 7 -61 7h-27q-87 -2 -182 -67q-93 -64 -153 -192q-52 -108 -52 -191q0 -43 16 -61.5t34 -19.5t31.5 4t25.5 13t24.5 20t23.5 24.5t22.5 28t21.5 28.5q25 36 40 55l127 173q46 57 55 77h6l84 -404q9 -47 40 -47h5l-2 -7h-238l1 7h7q15 0 28.5 12t13.5 21.5t-1 13.5l-8 53
h-136q-48 -62 -85 -89q-40 -28 -97 -28t-105 41zM483 346l-85 -121h104z" />
    <glyph glyph-name="A" unicode="A" horiz-adv-x="702" 
d="M978 -171q-77 -45 -157 -45t-151.5 30t-140 104.5t-112.5 181.5l-27 66h-214l-40 -93q-5 -13 -5 -21t3.5 -17.5t15 -17t24.5 -7.5h9v-10h-223v10h9q23 0 45.5 13.5t37.5 40.5l204 448q-30 83 -49.5 111.5t-32.5 43.5q-24 28 -60 41q-14 5 -33 5t-43 -9l-2 10
q80 47 153 47q108 0 195 -106q44 -55 79 -133l160 -367q44 -101 65 -135.5t37.5 -59t32.5 -42.5t35 -35q33 -30 83 -45q21 -7 46.5 -7t53.5 8zM198 216h172l-63 155q-8 18 -19 51z" />
    <glyph glyph-name="B" unicode="B" horiz-adv-x="755" 
d="M401 -16q-411 0 -411 337q0 29 3 59l10 1q0 -186 123 -278v525q-1 27 -20 44.5t-44 17.5h-13v10h308q170 0 250 -77q43 -42 43 -101q0 -65 -43 -109q-19 -21 -43 -30h10q68 0 125 -47t57 -127t-57 -133q-97 -92 -298 -92zM435 486v30q-3 65 -26 97t-78 36v-611
q90 1 140 48.5t50 124.5q0 85 -47 123t-109 38v9q21 0 35.5 11.5t21.5 28.5q13 37 13 65z" />
    <glyph glyph-name="C" unicode="C" horiz-adv-x="830" 
d="M815 402q6 -40 6 -85t-12 -93q-38 -151 -181 -210q-68 -28 -150 -28q-225 0 -346.5 98t-121.5 264.5t126 266t342 99.5q150 0 258 -46l-10 -191h-9q-52 187 -234 187q-121 0 -187 -81.5t-66 -225.5t69 -230.5t199 -90.5q143 0 226 92.5t83 249.5v24h8z" />
    <glyph glyph-name="D" unicode="D" horiz-adv-x="878" 
d="M445 0h-379v10h13q26 0 44.5 18.5t19.5 44.5v571q-105 -11 -159 -59q-46 -41 -74 -105l-10 4q20 108 103.5 162t209.5 54h232q188 0 293.5 -92.5t105.5 -257.5t-106 -257.5t-293 -92.5zM348 50h77v0q93 0 146 79.5t53 220.5t-53 220.5t-146 79.5l-77 -2v-598z" />
    <glyph glyph-name="E" unicode="E" horiz-adv-x="712" 
d="M43 10q26 0 44.5 18.5t19.5 44.5v554q-1 32 -27 51q-16 12 -37 12h-13v10h333q43 0 76.5 7t42.5 11v-206h-10v8q0 59 -33 93t-92 36h-35v-279h139q48 1 78 31.5t30 78.5v4h10v-278h-10v5q0 47 -30 77.5t-77 31.5h-140v-269h183q73 0 129 48t79 133h10l-38 -232h-645v10
h13z" />
    <glyph glyph-name="F" unicode="F" horiz-adv-x="709" 
d="M312 320v-247q0 -26 19 -44.5t45 -18.5h13v-10h-359v10h13q26 0 44.5 18.5t19.5 44.5v554q-1 27 -19.5 45t-44.5 18h-13v10h443q31 0 67.5 6t51.5 12v-206h-10v8q0 59 -33 93t-92 36h-145v-279h269q48 1 78 31.5t30 78.5v4h10v-278h-10v5q0 47 -30 77.5t-77 31.5h-270z
" />
    <glyph glyph-name="G" unicode="G" horiz-adv-x="872" 
d="M947 -212q-24 0 -48 3q-100 16 -173 75t-109 147q-87 -27 -183 -27q-189 0 -306.5 100.5t-117.5 264.5t120 263.5t316 99.5q113 0 220 -23q48 -10 78 -22l-10 -192h-9q-24 94 -94.5 140.5t-170.5 46.5t-165 -88t-65 -232q0 -91 28 -161t80 -108.5t115.5 -38.5t100 29.5
t36.5 77.5v136q1 22 -12.5 34t-38.5 12h-15v10h336v-10h-16q-24 0 -37 -12t-12 -34v-162q0 -58 23 -115q52 -126 166 -162q33 -10 66 -10t65 7l2 -10q-90 -39 -170 -39z" />
    <glyph glyph-name="H" unicode="H" horiz-adv-x="893" 
d="M515 10q27 0 45.5 18.5t19.5 44.5v252h-268v-255q0 -99 -48 -176q-50 -81 -159 -93q-11 -2 -24 -2q-47 0 -105 19v10q80 31 106 86q18 37 21 67q4 39 4 89v558q-1 26 -19.5 44t-44.5 18h-13v10h359v-10h-13q-36 0 -54 -30q-9 -14 -10 -31v-254h268v235q0 57 24 110t68 91
q69 61 164 61q37 0 78 -10v-10q-48 -15 -82 -49q-21 -20 -37 -72q-8 -26 -9 -59.5t-1 -61.5v-537q0 -35 31 -54q15 -9 33 -9h12v-10h-358v10h12z" />
    <glyph glyph-name="I" unicode="I" horiz-adv-x="498" 
d="M456 10h13v-10h-359v10h13q26 0 44.5 18.5t19.5 44.5v577l-87 -3q-84 -3 -90 -62v-6q0 -28 19 -45t48 -17h12v-6q-22 -12 -43.5 -12t-43.5 13q-42 25 -42 74q0 46 36 76.5t113 33.5q11 1 70.5 3t102.5 3q124 6 187 18l2 -10q-56 -9 -71 -48q-7 -19 -8 -48v-541
q0 -26 19 -44.5t45 -18.5z" />
    <glyph glyph-name="J" unicode="J" horiz-adv-x="424" 
d="M381 690q-36 0 -55 -31q-8 -14 -9 -32v-547q0 -80 -25.5 -147t-75.5 -110q-51 -43 -124.5 -43t-166.5 50l2 9q16 -3 32 -3t37.5 4.5t40.5 18t33 35.5t22 44.5t12 49.5q8 44 8 95v544q-1 26 -19.5 44.5t-44.5 18.5h-13v10h359v-10h-13z" />
    <glyph glyph-name="K" unicode="K" horiz-adv-x="822" 
d="M43 10q26 0 44.5 18.5t19.5 44.5v555q-1 26 -19.5 44t-44.5 18h-13v10h359v-10h-13q-26 0 -44.5 -18t-19.5 -44v-555q0 -26 19 -44.5t45 -18.5h13v-10h-359v10h13zM1105 -177q-99 -56 -191 -56q-130 0 -255 130q-46 48 -95 116l-220 305l239 326q7 10 7 18t-3 14
q-7 15 -28 15h-10v9h241v-9h-4q-67 0 -110 -49l-171 -207l229 -322q109 -153 187.5 -212t181.5 -67z" />
    <glyph glyph-name="L" unicode="L" horiz-adv-x="445" 
d="M914 -133q125 0 173 43l8 -7q-44 -95 -126 -141q-51 -28 -150 -28q-10 0 -34.5 1t-79 16.5t-91.5 28t-93 38.5q-70 33 -134 66.5t-93.5 48.5t-61.5 28.5t-88 26t-114 12.5v10h13q36 0 55 31q8 14 9 32v554q-1 37 -33 55q-14 8 -31 8h-13v10h359v-10h-9q-29 0 -48 -18
t-20 -45v-582q0 -47 38 -59q387 -119 564 -119z" />
    <glyph glyph-name="M" unicode="M" horiz-adv-x="993" 
d="M-115 746q71 38 139.5 38t125.5 -29q114 -59 195 -193l179 -291l297 443h9l113 -585q34 -180 101 -250q53 -55 135 -55h15v-10q-62 -26 -129 -26q-133 0 -231 104q-82 86 -115 243l-46 211l-171 -254q-17 -24 -30 -58t-12 -58h-9l-243 416l-50 -336v-4q0 -16 11.5 -29.5
t27.5 -13.5h15v-9h-219v10h16q27 0 47.5 16.5t25.5 44.5l69 429q-51 89 -113 158q-71 78 -142 78h-8z" />
    <glyph glyph-name="N" unicode="N" horiz-adv-x="881" 
d="M1141 -135q-61 -38 -132 -38q-62 0 -129 37q-69 37 -135 105l-439 454v-352q0 -26 18 -43.5t43 -17.5h19v-10h-366v10h19q25 0 43 17.5t18 43.5v566q-154 164 -270 164q-29 0 -56 -10l-5 9q56 40 121 40q43 0 87.5 -16.5t77.5 -37.5q62 -41 110 -90l411 -425v358
q-1 26 -19 43.5t-43 17.5h-19v10h366v-10h-18q-25 0 -43 -17.5t-19 -42.5v-571l18 -19l23.5 -25t32 -33t34.5 -31.5t42 -33t44 -25t51 -19.5q26 -6 55 -6t56 8z" />
    <glyph glyph-name="O" unicode="O" horiz-adv-x="931" 
d="M367 433q-31 52 -31 110q0 80 60 130q36 31 89 41q32 5 51.5 5t41.5 -0.5t64.5 -13.5t82.5 -31.5t75.5 -50.5t62.5 -70q58 -82 58 -198q0 -168 -124.5 -268.5t-329.5 -100.5t-331 101t-126 266q0 136 84.5 233.5t220.5 120.5l6 -10q-41 -43 -65.5 -127.5t-24.5 -182.5
q0 -159 64 -255t170.5 -96t170.5 87t64 232q0 92 -25.5 165t-70.5 109t-95 36q-65 0 -100 -39q-41 -45 -41 -112q0 -38 11 -81h-12z" />
    <glyph glyph-name="P" unicode="P" horiz-adv-x="760" 
d="M112 600q-1 58 -58 58q-5 0 -18 -1l-2 9q84 6 203 26t149.5 23t56.5 3q80 0 126.5 -14.5t81.5 -37.5t56 -63q23 -44 23 -93.5t-13 -87.5t-37 -65q-72 -82 -184 -82q-39 0 -71 12q-59 22 -76 78l10 6q14 -20 46 -20q49 0 87 58q23 37 23 98q0 85 -43 126q-32 31 -81 31
q-12 0 -25 -2l-49 -7v-582q1 -26 19.5 -44.5t44.5 -18.5h13v-10h-359v10h13q26 0 44.5 18.5t19.5 44.5v527z" />
    <glyph glyph-name="Q" unicode="Q" horiz-adv-x="929" 
d="M1299 -298q-35 -3 -90 -3t-157 17.5t-205.5 60t-457.5 209.5v10q110 0 200 74q44 37 74 100q35 76 35 173q0 116 -50 208q-28 50 -75 82q-53 37 -123 37q-95 0 -162.5 -79.5t-67.5 -239.5q0 -111 38 -182q42 -79 131 -79q40 0 69 17q55 31 62 109l11 1q1 -12 1 -36
t-12 -56q-30 -82 -147 -82q-31 0 -70 7q-129 24 -213.5 107.5t-84.5 208.5q0 73 32 138q66 136 235 189q84 26 185 26q205 0 330 -101t125 -261q0 -74 -28.5 -139.5t-77.5 -112.5q-101 -98 -242 -123q175 -20 338.5 -51.5t197.5 -38t95 -15.5q100 -16 165.5 -16t95.5 6
q76 14 117 49l7 -3q-26 -93 -101.5 -147t-179.5 -64z" />
    <glyph glyph-name="R" unicode="R" horiz-adv-x="783" 
d="M721 504q0 -54 -29.5 -99.5t-71.5 -64t-83 -18.5q-12 0 -23 1q63 -13 115 -78q24 -29 54 -74.5t42 -62.5q60 -86 120 -140q128 -116 329 -128v-10q-55 -39 -138 -56q-49 -10 -97.5 -10t-102.5 14t-106 42t-105.5 81t-87.5 108.5t-59 106t-47.5 99.5t-27.5 60
q-29 60 -52 67v10h16q65 0 107 51q24 29 28 60.5t4 40.5q0 75 -44 109.5t-100 34.5h-44v-575q0 -26 19 -44.5t45 -18.5h12v-10h-359v10h13q26 0 44.5 18t19.5 44v555q-1 37 -32 55q-15 8 -32 8h-12v10h390q149 0 226 -52q69 -47 69 -144z" />
    <glyph glyph-name="S" unicode="S" horiz-adv-x="671" 
d="M647 170q0 -43 -19 -91.5t-61 -89.5t-108 -67t-144 -26t-140 25q-116 46 -151 161q-9 31 -9 58q0 87 53 163l9 -7q-33 -59 -33 -114q0 -68 34 -120t91 -81t116.5 -29t100.5 19t60 51t19 67t-25 71.5t-74 63.5l-163 96q-124 73 -124 188q0 103 72 159q60 47 163 47
q66 0 168 -10h78l-21 -163h-10q0 55 -43 89t-110 34t-103 -23t-39 -61q-3 -26 14 -44q15 -16 30 -24.5t27 -15.5t17 -9l187 -107q63 -35 98 -87q40 -59 40 -123z" />
    <glyph glyph-name="T" unicode="T" horiz-adv-x="750" 
d="M-4 444q-61 54 -61 116q0 58 47 98q50 43 130 43h511q31 0 67 6t51 12v-206l-10 1v7q0 81 -60 114q-29 15 -69 16h-98v-579q1 -26 19.5 -44t44.5 -18h13v-10h-359v10h13q26 0 44.5 18t19.5 43v580h-187q-56 0 -93 -27q-43 -31 -43 -77.5t31 -97.5z" />
    <glyph glyph-name="U" unicode="U" horiz-adv-x="852" 
d="M930 923q14 0 28 -2v-10q-90 -11 -136 -85t-46 -196v-373q-2 -132 -84.5 -201.5t-244.5 -69.5t-255 72t-93 192v6v385q0 21 -15.5 35t-37.5 14h-16v10h343v-10h-16q-31 0 -46 -24q-6 -11 -7 -23v-383q0 -104 52.5 -163.5t139.5 -59.5h1.5h1.5q83 0 136.5 55.5t53.5 154.5
v383q0 124 72 213q34 41 79.5 60.5t89.5 19.5z" />
    <glyph glyph-name="V" unicode="V" horiz-adv-x="720" 
d="M760 894q36 28 82 42t75 14t49 -3v-10q-62 -4 -108 -33q-51 -33 -72.5 -61t-34 -44.5t-23.5 -38.5q-19 -34 -32 -63l-261 -572q-53 -112 -57 -149h-9l-317 659q-31 55 -84 55h-8v10h379v-10h-9q-21 0 -31.5 -13.5t-10.5 -25.5t4 -24l143 -343l180 413q30 69 69.5 119
t75.5 78z" />
    <glyph glyph-name="W" unicode="W" horiz-adv-x="964" 
d="M1072 939q43 9 72 9t54 -3v-10q-203 -15 -272 -241l-186 -605q-14 -49 -14 -111h-10l-230 434l-186 -380q-29 -61 -56.5 -94t-48 -53t-41.5 -34q-57 -36 -102 -36q-24 0 -51 5v10q67 12 118 65q53 56 76 98q32 58 52 102l-203 538q-14 29 -37.5 43t-48.5 14h-8v10h359
v-10h-9q-30 0 -40 -28q-1 -6 -1 -14t4 -20l109 -272l173 360l9 -1l198 -366l96 345q24 87 77 151q63 76 147 94z" />
    <glyph glyph-name="X" unicode="X" horiz-adv-x="773" 
d="M796 10h14v-10h-404v10h13q21 0 34 21q6 10 6 20t-6 21l-130 199l-195 -271q-112 -155 -250 -155q-26 0 -52 5v10q77 9 122 46q24 20 40.5 39.5t42.5 54.5l248 339l-191 293q-17 24 -44 41t-57 17h-14v10h402v-10h-12q-22 0 -34 -21q-7 -10 -7 -20.5t7 -20.5l113 -173
l162 245q47 70 116 120q66 48 143 48q13 0 25 -2v-10q-58 -1 -108 -55q-38 -41 -79 -101l-212 -317l206 -315q23 -34 61 -50q20 -8 40 -8z" />
    <glyph glyph-name="Y" unicode="Y" horiz-adv-x="699" 
d="M-29 761q146 0 259 -68q133 -81 188 -232q40 118 127 209q42 43 89.5 66.5t91.5 23.5q7 0 14 -1v-10q-46 -2 -96.5 -48.5t-89.5 -113t-67.5 -138.5t-35.5 -127v-249q0 -36 31 -54q15 -9 33 -9h12l1 -10h-359v10h13q26 0 44.5 18.5t19.5 44.5v249q-22 105 -76 209
q-30 57 -66 103t-86 78.5t-103 36.5v10q29 2 56 2z" />
    <glyph glyph-name="Z" unicode="Z" horiz-adv-x="659" 
d="M651.5 -89.5q76.5 -19.5 159.5 -35.5t152 -16t124 21l8 -7q-51 -62 -114 -93q-66 -33 -130.5 -33t-134.5 15.5t-138 45t-143 62t-140 62.5q-151 68 -260 68v9l332 642h-180q-81 -1 -113 -61q-15 -29 -15 -69v-8h-10v206q15 -6 52.5 -12t53 -6h15.5h345q30 0 63.5 4
t42.5 9v-9l-358 -696q81 -18 196.5 -48.5t192 -50z" />
    <glyph glyph-name="bracketleft" unicode="[" horiz-adv-x="472" 
d="M120 -90v812h309v-10l-104 -50v-692l107 -50v-10h-312z" />
    <glyph glyph-name="backslash" unicode="\" horiz-adv-x="439" 
d="M10 696l59 27l361 -709l-59 -28z" />
    <glyph glyph-name="bracketright" unicode="]" horiz-adv-x="362" 
d="M43 722h309v-812h-312v10l107 50v692l-104 50v10z" />
    <glyph glyph-name="asciicircum" unicode="^" horiz-adv-x="572" 
d="M253 381h68l217 -209h-89l-162 153l-163 -153h-89z" />
    <glyph glyph-name="underscore" unicode="_" horiz-adv-x="500" 
d="M0 -110v50h500v-50h-500z" />
    <glyph glyph-name="grave" unicode="`" 
d="M294 750l-7 -7q-53 6 -118 33t-115 60q21 73 85 100q43 -37 89.5 -89.5t65.5 -96.5z" />
    <glyph glyph-name="a" unicode="a" horiz-adv-x="720" 
d="M752 10h8v-10h-379v10h9q22 0 33 13.5t11 25t-5 24.5l-39 93h-214l-40 -93q-5 -13 -5 -21t3.5 -17.5t15 -17t24.5 -7.5h9v-10h-223v10h9q23 0 45.5 13.5t37.5 40.5l233 511q53 112 57 149h9l317 -659q32 -55 84 -55zM198 216h171l-84 200z" />
    <glyph glyph-name="b" unicode="b" horiz-adv-x="730" 
d="M394 0h-364v10h13q36 0 55 31q8 14 9 31v556q-1 36 -32 54q-15 8 -32 8h-13v10h348q278 0 278 -174q0 -101 -82 -135q-23 -9 -49 -10q77 -4 129.5 -52.5t52.5 -128.5q0 -100 -85 -150t-228 -50zM326 52q65 0 105.5 39t40.5 118.5t-32 120t-94 40.5v9q95 0 95 135.5
t-116 135.5v0h-13v-598h13h1z" />
    <glyph glyph-name="c" unicode="c" horiz-adv-x="793" 
d="M35 351q0 113 52 195t150.5 125t241.5 43t251 -46l-10 -191h-9q-29 101 -84 144t-137 43q-111 0 -173 -82t-62 -228.5t57.5 -230.5t159.5 -87q118 0 171 56q50 52 78 200h8l24 -182q-74 -124 -279.5 -123.5t-322 96t-116.5 268.5z" />
    <glyph glyph-name="d" unicode="d" horiz-adv-x="842" 
d="M702.5 607.5q105.5 -92.5 105.5 -257.5t-105.5 -257.5t-293.5 -92.5h-379v10h13q26 0 44.5 18.5t19.5 44.5v560q0 24 -19.5 40.5t-44.5 16.5h-12l-1 10h379q188 0 293.5 -92.5zM312 650v-600h77q93 0 146 79.5t53 220.5t-53 220.5t-146 79.5h-77z" />
    <glyph glyph-name="e" unicode="e" horiz-adv-x="666" 
d="M43 10q26 0 44.5 18.5t19.5 44.5v554q-1 32 -27 51q-16 12 -37 12h-13v10h443q43 0 76.5 7t42.5 11v-206h-10v8q0 80 -58 112q-28 16 -67 17h-145v-279h109q48 1 78 31.5t30 78.5v4h10v-278h-10v5q0 47 -30 77.5t-77 31.5h-110v-269h123q73 0 129 48t79 133h10l-38 -232
h-585v10h13z" />
    <glyph glyph-name="f" unicode="f" horiz-adv-x="631" 
d="M312 649v-279h109q48 1 78 31.5t30 77.5v5h10v-278h-10v5q0 47 -30 77.5t-77 31.5h-110v-247q0 -26 19 -44.5t45 -18.5h13v-10h-359v10h13q26 0 44.5 18.5t19.5 44.5v554q-1 26 -19.5 44.5t-44.5 18.5h-13v10h443q43 0 76 7t43 11v-206h-10v8q0 80 -58 112q-28 16 -67 17
h-145z" />
    <glyph glyph-name="g" unicode="g" horiz-adv-x="861" 
d="M425 -14q-179 0 -284.5 97.5t-105.5 268t106 266.5t294 96q81 0 167 -13.5t131 -32.5l-10 -191h-9q-52 187 -229 187q-230 0 -230 -322q0 -146 47.5 -226t144.5 -80q53 0 92.5 28.5t39.5 78.5l1 137q0 22 -13.5 33.5t-37.5 11.5h-16v10h336v-10h-15q-25 0 -38 -11.5
t-12 -33.5v-165q-56 -71 -203 -109q-76 -20 -156 -20z" />
    <glyph glyph-name="h" unicode="h" horiz-adv-x="893" 
d="M517 10q26 0 44.5 18t19.5 44v253h-269v-252q1 -37 32 -55q15 -8 32 -8h13v-10h-359v10h13q26 0 44.5 18.5t19.5 44.5v555q-1 26 -19.5 44t-44.5 18h-13v10h359v-10h-13q-26 0 -44.5 -18t-19.5 -44v-253h269v253q-1 26 -19.5 44t-44.5 18h-13v10h359v-10h-13
q-36 0 -55 -31q-8 -15 -9 -32v-554q1 -26 19.5 -44.5t44.5 -18.5h13v-10h-359v10h13z" />
    <glyph glyph-name="i" unicode="i" horiz-adv-x="418" 
d="M43 10q26 0 44.5 18.5t19.5 44.5v555q-1 26 -19.5 44t-44.5 18h-13v10h359v-10h-13q-26 0 -44.5 -18t-19.5 -44v-555q0 -26 19 -44.5t45 -18.5h13v-10h-359v10h13z" />
    <glyph glyph-name="j" unicode="j" horiz-adv-x="424" 
d="M381 690q-36 0 -55 -31q-8 -14 -9 -32v-577q0 -82 -46.5 -144t-120.5 -89q-53 -20 -110 -20q-22 0 -45 3v9q117 53 117 244v574q-1 26 -19.5 44.5t-44.5 18.5h-13v10h359v-10h-13z" />
    <glyph glyph-name="k" unicode="k" horiz-adv-x="821" 
d="M43 10q26 0 44.5 18.5t19.5 44.5v555q-1 26 -19.5 44t-44.5 18h-13v10h359v-10h-13q-26 0 -44.5 -18t-19.5 -44v-555q0 -26 19 -44.5t45 -18.5h13v-10h-359v10h13zM848 0h-108q-184 0 -257 100q-30 40 -84.5 128.5t-54.5 89.5l239 326q7 10 7 18t-3 14q-7 15 -28 15h-10
v9h241v-9h-4q-67 0 -110 -49l-169 -204l234 -352q49 -74 107 -76v-10z" />
    <glyph glyph-name="l" unicode="l" horiz-adv-x="652" 
d="M43 10q26 0 44.5 18.5t19.5 44.5v554q-1 37 -32 55q-15 8 -32 8h-13v10h359v-10h-13q-26 0 -45 -18.5t-19 -44.5v-576h123q73 0 129 48t79 133h10l-38 -232h-585v10h13z" />
    <glyph glyph-name="m" unicode="m" horiz-adv-x="968" 
d="M978 10h16v-10h-355v9h16q16 0 28.5 13.5t10.5 29.5l-38 292l-170 -252q-17 -24 -30 -58t-12 -58h-9l-260 359l-35 -283q-2 -16 10.5 -29.5t28.5 -13.5h16v-9h-220v10h16q28 0 48.5 17t24.5 46l88 641h9l336 -459l308 459h9l91 -641q5 -29 25 -46t48 -17z" />
    <glyph glyph-name="n" unicode="n" horiz-adv-x="881" 
d="M843 690q-25 0 -43 -17.5t-19 -42.5v-516q0 -74 10 -114l3 -14h-9l-479 426v-341q0 -36 31 -53q14 -8 30 -8h19v-10h-366v10h19q25 0 43 17.5t18 43.5v519q0 70 -10 111l-3 14h10l479 -426v340q-1 26 -19 43.5t-43 17.5h-19v10h366v-10h-18z" />
    <glyph glyph-name="o" unicode="o" horiz-adv-x="900" 
d="M450 714q129 0 222.5 -43t143.5 -125.5t50 -195.5q0 -171 -111 -267.5t-305 -96.5t-304.5 96.5t-110.5 267.5t110.5 267.5t304.5 96.5zM450.5 36q91.5 0 143 83t51.5 231t-51.5 231t-143 83t-143 -83t-51.5 -231t51.5 -231t143 -83z" />
    <glyph glyph-name="p" unicode="p" horiz-adv-x="707" 
d="M693 495q0 -46 -18.5 -89.5t-53.5 -71.5q-63 -51 -134 -51q-72 0 -136 46v10q36 6 54.5 19t29.5 25q25 27 33.5 63t8.5 51q0 79 -34 116t-91 37h-35v-577q1 -26 19.5 -44.5t44.5 -18.5h13v-10h-359v10h13q36 0 55 31q9 15 9 32v559q0 24 -19.5 41t-44.5 17h-12l-1 10h381
q137 0 210 -57q67 -51 67 -148z" />
    <glyph glyph-name="q" unicode="q" horiz-adv-x="912" 
d="M1269 -264q-72 -42 -176 -42q-36 0 -108 16.5t-142 55t-128 79.5t-94 69t-81 49.5t-87 22.5q-193 1 -303 97t-110 267t110.5 267.5t304.5 96.5q129 0 222.5 -43t143.5 -125.5t50 -195.5q0 -172 -111 -268q-54 -47 -131 -71q84 -14 147 -35.5t145 -51.5q135 -49 249 -49
t199 61l7 -3q0 -64 -27.5 -115.5t-79.5 -81.5zM261 350q0 -148 51.5 -231t143 -83t143 83t51.5 231t-51.5 231t-143 83t-143 -83t-51.5 -231z" />
    <glyph glyph-name="r" unicode="r" horiz-adv-x="792" 
d="M675 590q16 -35 16 -72.5t-8 -66t-25 -56.5q-37 -60 -127 -74q39 -11 70 -39q33 -28 62 -78q75 -128 115 -165q30 -28 76 -29v-10h-125q-130 0 -186 29q-80 41 -114 141q-9 29 -15.5 61t-11 46.5t-10.5 27t-13 19.5q-12 12 -28 18v10h16q58 0 87 53q15 28 18.5 60.5
t3.5 40.5v10q-7 132 -114 132h-44v-575q0 -26 19 -44.5t45 -18.5h12v-10h-359v10h13q26 0 44.5 18t19.5 44v555q-1 37 -32 55q-15 8 -32 8h-13v10h391q196 0 249 -110z" />
    <glyph glyph-name="s" unicode="s" horiz-adv-x="645" 
d="M520 45.5q-86 -59.5 -229 -59.5q-83 0 -146 18.5t-91 46.5q-9 22 -9 47.5t4 49.5q11 59 37 92h9q-1 -6 -1 -13q0 -74 58.5 -132.5t159.5 -58.5q68 0 104.5 28.5t36.5 65t-25 62.5t-81 52l-163 76q-69 31 -100 87q-25 44 -25 97q0 108 73 164q61 46 162 46q66 0 169 -10
h78l-22 -163h-10q0 55 -43 89t-109.5 34t-103 -23t-39.5 -61q-4 -47 60 -80q11 -6 29 -13l187 -87q116 -53 116 -174t-86 -180.5z" />
    <glyph glyph-name="t" unicode="t" horiz-adv-x="698" 
d="M452 651v-579q1 -26 19.5 -44t44.5 -18h13v-10h-359v10h13q26 0 44.5 18t19.5 43v580h-99q-60 -1 -94 -35.5t-34 -94.5v-7l-10 -1v206q14 -6 50.5 -12t67.5 -6h443q31 0 67 6t51 12v-206l-10 1v7q0 81 -60 114q-29 15 -69 16h-98z" />
    <glyph glyph-name="u" unicode="u" horiz-adv-x="845" 
d="M825 690h-16q-21 0 -36.5 -13.5t-16.5 -33.5v-386q0 -127 -78.5 -199t-220.5 -72q-180 0 -269 70t-89 200v384q0 22 -15.5 36t-37.5 14h-16v10h343v-10h-16q-22 0 -37 -13.5t-16 -34.5v-382q0 -105 48 -164t134 -59t134.5 55.5t48.5 154.5v395q-1 21 -16 34.5t-37 13.5
h-16v10h225v-10z" />
    <glyph glyph-name="v" unicode="v" horiz-adv-x="720" 
d="M760 690h-9q-52 0 -83 -54l-233 -511q-53 -112 -57 -149h-9l-317 659q-31 55 -84 55h-8v10h379v-10h-9q-21 0 -31.5 -13.5t-10.5 -25.5t4 -24l143 -343l149 343q6 13 6 24.5t-11 25t-33 13.5h-9v10h223v-10z" />
    <glyph glyph-name="w" unicode="w" horiz-adv-x="964" 
d="M1004 690h-8q-35 0 -63 -24q-16 -14 -23 -33l-170 -544q-2 -8 -5 -21l-7 -31q-3 -22 -3 -36t1 -23h-10l-231 435l-158 -324q-26 -56 -27 -111h-9l-247 655q-14 29 -37.5 43t-48.5 14h-8v10h359v-10h-9q-30 0 -40 -28q-1 -6 -1 -14t4 -20l109 -272l173 360l9 -1l199 -368
l80 281q2 11 2 19.5t-3 18.5t-13 17t-24 7h-9v10h218v-10z" />
    <glyph glyph-name="x" unicode="x" horiz-adv-x="773" 
d="M419 10q21 0 34 21q6 10 6 20t-6 21l-132 201l-142 -201q-17 -30 10 -52q12 -10 25 -10h13v-10h-260v10h14q54 0 99 57l199 272l-191 293q-17 24 -44 41t-57 17h-14v10h402v-10h-12q-22 0 -34 -21q-7 -10 -7 -20.5t6 -20.5l117 -177l113 177q16 30 -10 52q-11 10 -25 10
h-12l-1 10h259v-10h-14q-58 0 -99 -58l-167 -249l206 -315q16 -24 43.5 -41t57.5 -17h14v-10h-404v10h13z" />
    <glyph glyph-name="y" unicode="y" horiz-adv-x="729" 
d="M775 690h-14q-30 0 -57.5 -17t-43.5 -42l-196 -309v-249q0 -26 18.5 -44.5t45.5 -18.5h12v-10h-358v10h13q26 0 44.5 18t19.5 44v250l-191 311q-25 39 -69 52q-15 5 -30 5h-14v10h386v-10h-12q-22 0 -34 -20q-7 -11 -7 -21.5t6 -20.5l137 -247l142 247q6 10 6 20t-7 21
q-13 21 -34 21h-12v10h249v-10z" />
    <glyph glyph-name="z" unicode="z" horiz-adv-x="667" 
d="M49 719q15 -6 52.5 -12t53 -6h15.5h345q42 0 71 5t35 8v-9l-336 -655h141q73 0 129 48.5t79 133.5h10l-38 -232h-571v9l332 642h-180q-60 -1 -94 -35.5t-34 -94.5v-8h-10v206z" />
    <glyph glyph-name="braceleft" unicode="{" horiz-adv-x="445" 
d="M0 458l8 3q9 -56 42 -78q18 -12 34.5 -12t34 9t27 33t9.5 48l-6 103v6q0 55 16.5 101t45.5 74q64 64 153 64q77 0 132 -41l-5 -7q-32 8 -49.5 8t-28.5 -3q-29 -10 -39 -31q-6 -12 -10.5 -28t-7.5 -98q-6 -155 -64 -211q-62 -59 -171 -59q-105 0 -121 119zM491 -131l5 -7
q-55 -41 -132 -41q-89 0 -153 64q-29 28 -45.5 74t-16.5 100l5 99q0 16 -2 34q-4 42 -36 58q-15 9 -31.5 9t-34.5 -12q-33 -22 -42 -79l-8 3q5 37 18.5 62.5t29.5 37t37.5 16t29.5 4.5h10q109 -4 167 -59q27 -26 42 -69t18 -82t4 -64.5t1.5 -41.5t3.5 -36.5t8 -32.5
t14.5 -24t23 -16t34.5 -4t50 7z" />
    <glyph glyph-name="bar" unicode="|" horiz-adv-x="265" 
d="M100 -180v880h65v-880h-65z" />
    <glyph glyph-name="braceright" unicode="}" horiz-adv-x="445" 
d="M292 472q0 -16 2 -34q4 -42 35 -59q16 -8 32.5 -8t34.5 12q32 22 42 78l8 -3q-9 -63 -38 -89q-14 -12 -31 -21t-55 -9q-107 0 -169 59q-26 25 -41.5 68t-18.5 86.5t-5 106.5q-1 35 -11 65q-22 63 -122 37l-5 7q55 41 132 41q88 0 153 -64q28 -28 45 -74t17 -101zM446 171
l-8 -3q-5 29 -17 50q-23 41 -64 41q-31 0 -53 -33q-12 -19 -12 -68l5 -99q0 -54 -17 -100t-45 -74q-65 -64 -153 -64q-77 0 -132 41l5 7q29 -7 50 -7t34 4q25 7 40 46q7 17 10 104q6 160 64 216q63 59 171 59q106 0 122 -120z" />
    <glyph glyph-name="asciitilde" unicode="~" horiz-adv-x="494" 
d="M461 363q6 -27 6 -44t-3.5 -37t-22.5 -40q-37 -38 -95 -38q-39 0 -89 34q-22 14 -42 29q-51 36 -77 36t-39 -22q-7 -13 -7 -31.5t5 -40.5h-65q-5 23 -5 44q0 43 23 71q35 44 92 44q24 0 55.5 -15t55.5 -34q68 -50 97 -50t45 23q8 12 8 29.5t-10 41.5h68z" />
    <glyph glyph-name="exclamdown" unicode="&#xa1;" horiz-adv-x="295" 
d="M149.5 716q37.5 0 64 -26.5t26.5 -64t-26.5 -63.5t-64 -26t-63.5 26t-26 63.5t26 64t63.5 26.5zM68 339l45 133h70l45 -133l22 -339h-205z" />
    <glyph glyph-name="cent" unicode="&#xa2;" horiz-adv-x="578" 
d="M95.5 158.5q-80.5 70.5 -80.5 194.5t91 194t255 70l7 84l47 -1l-7 -85q80 -7 134 -29l-11 -147h-6q-34 116 -120 132l-37 -450q55 2 77 16t33 26.5t20 34.5q16 36 30 106h6l23 -138q-50 -85 -193 -88l-7 -87l-46 3l7 85q-142 9 -222.5 79.5zM322 125l36 448
q-157 -7 -156 -222q-1 -197 120 -226z" />
    <glyph glyph-name="sterling" unicode="&#xa3;" horiz-adv-x="620" 
d="M571 24q-46 -21 -103 -27.5t-84 -6.5q-47 0 -126.5 17t-98.5 17t-29.5 -0.5t-46.5 -13t-43 -20.5h-10v10q56 110 72 205q8 53 10 114h-82l18 56h64v12q0 311 276 327q15 1 50 1t82.5 -14.5t70.5 -43.5l-48 -142h-10q-3 79 -27.5 114t-76.5 35q-104 0 -112 -137
q-2 -31 -2 -68.5t2 -83.5h181l-21 -56h-158q-1 -121 -40 -175q-34 -47 -96 -65q11 3 21.5 3t24 -0.5t27.5 -2.5t40 -6q45 -6 71 -6t56.5 5.5t65.5 22.5q73 36 117 124h10z" />
    <glyph glyph-name="currency" unicode="&#xa4;" horiz-adv-x="541" 
d="M410 193q-60 -54 -140 -54t-140 52l-59 -59l-21 22l59 58q-53 60 -53 140.5t54 140.5l-60 60l21 21l60 -60q60 51 139 51t139 -52l61 61l22 -21l-62 -61q52 -60 52 -139.5t-51 -138.5l61 -60l-22 -22zM269.5 169q75.5 0 129 53.5t53.5 129.5t-53.5 129.5t-129 53.5
t-129.5 -53.5t-54 -129.5t54 -129.5t129.5 -53.5z" />
    <glyph glyph-name="yen" unicode="&#xa5;" horiz-adv-x="729" 
d="M775 690h-14q-30 0 -57.5 -17t-43.5 -42l-131 -206h94v-50h-126l-33 -53v-7h159v-50h-159v-192q0 -26 18.5 -44.5t45.5 -18.5h12v-10h-358v10h13q26 0 44.5 18t19.5 44v193h-162v50h162v7l-33 53h-129v50h99l-128 208q-25 39 -69 52q-15 5 -30 5h-14v10h386v-10h-12
q-22 0 -34 -20q-7 -11 -7 -21.5t6 -20.5l137 -247l142 247q6 10 6 20t-7 21q-13 21 -34 21h-12v10h249v-10z" />
    <glyph glyph-name="brokenbar" unicode="&#xa6;" horiz-adv-x="265" 
d="M100 350v350h65v-350h-65zM100 -180v350h65v-350h-65z" />
    <glyph glyph-name="section" unicode="&#xa7;" horiz-adv-x="536" 
d="M331 716q84 0 130 -38q27 -24 27 -45.5t-14 -41.5q-20 -32 -47 -32q-17 0 -42 18.5t-41 34.5q-33 34 -65 43q-4 1 -11.5 1t-20.5 -9.5t-13 -24t7.5 -30t20 -32.5t30.5 -36.5t33.5 -35.5t33.5 -33q74 -75 110 -154q43 -95 43 -176q0 -113 -65 -190q-37 -43 -95.5 -68.5
t-123 -25.5t-111.5 18q-73 28 -73 76q0 15 9 33q22 36 51 36q19 0 47 -19t46 -36q38 -35 72 -44q4 -1 12 -1t21 10.5t13 25.5t-19.5 42t-76 81.5t-74.5 72.5q-52 51 -81 109q-38 74 -38 154q0 146 111 245q80 72 194 72zM145 583q-26 -57 -26 -115q0 -38 29 -93
q16 -32 45 -62.5t57 -59t45 -47t42 -50.5t37 -57q23 -48 23 -94q0 -13 -2 -26q23 47 23 98q0 79 -96 187q-14 15 -43 46t-43 47t-34 41t-28 41q-23 49 -26 79.5t-3 46v18.5z" />
    <glyph glyph-name="dieresis" unicode="&#xa8;" 
d="M149.5 665q-30.5 0 -52 22t-21.5 52.5t21.5 52t52 21.5t52 -21.5t21.5 -52t-21.5 -52.5t-52 -22zM411.5 665q-30.5 0 -52 22t-21.5 52.5t21.5 52t52 21.5t52 -21.5t21.5 -52t-21.5 -52.5t-52 -22z" />
    <glyph glyph-name="copyright" unicode="&#xa9;" horiz-adv-x="848" 
d="M424 714q151 0 257.5 -106.5t106.5 -257.5t-106.5 -257.5t-257.5 -106.5t-257.5 106.5t-106.5 257.5t106.5 257.5t257.5 106.5zM644.5 570.5q-91.5 91.5 -220.5 91.5t-220.5 -91.5t-91.5 -220.5t91.5 -220.5t220.5 -91.5t220.5 91.5t91.5 220.5t-91.5 220.5zM353.5 217
q32.5 -48 95.5 -48t106 40.5t55 116.5h6l23 -108q-78 -91 -205 -91q-108 1 -178.5 64.5t-70.5 159t71 159t180 63.5q46 0 96 -11.5t85 -31.5l-6 -120h-6q-52 122 -163 122q-57 0 -89 -48t-32 -133.5t32.5 -133.5z" />
    <glyph glyph-name="ordfeminine" unicode="&#xaa;" horiz-adv-x="390" 
d="M391 381h4v-4h-205v4h5q10 0 16.5 7t3.5 18l-16 33h-100l-15 -30q-6 -12 1 -20t18 -8h5v-4h-113v4h4q26 0 41 23l115 231q28 63 30 75h4l162 -306q16 -23 40 -23zM111 465h75l-37 77z" />
    <glyph glyph-name="guillemotleft" unicode="&#xab;" horiz-adv-x="551" 
d="M283 485q-25 -45 -45.5 -83t-42.5 -110q25 -82 89 -197l-9 -7q-101 118 -235 204q72 44 128.5 88.5t106.5 109.5zM491 485q-25 -45 -45.5 -83t-42.5 -110q25 -82 89 -197l-9 -7q-101 118 -235 204q72 44 128.5 88.5t106.5 109.5z" />
    <glyph glyph-name="logicalnot" unicode="&#xac;" 
d="M40 407h522v-212h-65v147h-457v65z" />
    <glyph glyph-name="softhyphen" unicode="&#xad;" horiz-adv-x="380" 
d="M30 292l10 40h300l10 -40l-10 -41h-300z" />
    <glyph glyph-name="registered" unicode="&#xae;" horiz-adv-x="245" 
d="M123 701q47 0 80 -33t33 -80t-33 -80t-80 -33t-80 33t-33 80t33 80t80 33zM122.5 499q38.5 0 64 25.5t25.5 63.5t-25.5 63.5t-64 25.5t-63.5 -25.5t-25 -63.5t25 -63.5t63.5 -25.5zM170 617q0 -29 -31 -33q11 -2 25.5 -25t25.5 -27v-2h-19q-16 0 -22 4.5t-9 6t-6.5 8
t-4.5 8t-5 9.5q-9 22 -12 22v2h10q17 1 16 26t-21 24h-10v-97q0 -11 10 -11h3v-2h-57v2h2q10 0 11 10v95q-1 11 -11 11h-2v2h63q30 0 40 -19q4 -6 4 -14z" />
    <glyph glyph-name="macron" unicode="&#xaf;" 
d="M150 703v85h290v-85h-290z" />
    <glyph glyph-name="degree" unicode="&#xb0;" horiz-adv-x="237" 
d="M118.5 664q40.5 0 69.5 -28.5t29 -69.5t-29 -70t-69.5 -29t-69.5 29t-29 70t29 69.5t69.5 28.5zM118.5 606q-16.5 0 -28.5 -11.5t-12 -28.5t12 -28.5t28.5 -11.5t28.5 11.5t12 28.5t-12 28.5t-28.5 11.5z" />
    <glyph glyph-name="plusminus" unicode="&#xb1;" horiz-adv-x="481" 
d="M273 412h169v-65h-169v-168h-65v168h-168v65h168v169h65v-169zM40 50v65h402v-65h-402z" />
    <glyph glyph-name="twosuperior" unicode="&#xb2;" horiz-adv-x="419" 
d="M156 687q-71 0 -71 -128h-6l-49 115q54 45 163 45q102 0 148 -52q23 -25 23 -57.5t-15.5 -61t-40.5 -50.5q-47 -42 -96 -64h93q51 0 79 62h5l-41 -188h-310v5q12 17 35.5 48t36 48.5t31.5 44.5t29.5 46t21.5 42q20 43 20 78.5t-16 51t-40 15.5z" />
    <glyph glyph-name="threesuperior" unicode="&#xb3;" horiz-adv-x="373" 
d="M168 714q129 0 152 -68q5 -14 5 -29q0 -36 -20.5 -54.5t-50.5 -19.5q89 -19 89 -108q0 -52 -32 -88q-51 -57 -148 -57q-76 0 -136 33l1 5h7q66 0 113.5 30.5t47.5 82t-30 74t-66 23.5l1 5h5q34 0 57 25.5t23 56.5q0 38 -24 51q-14 8 -26 8q-46 0 -60 -32q-11 -25 -11 -76
v-11h-5l-40 111q50 38 148 38z" />
    <glyph glyph-name="acute" unicode="&#xb4;" 
d="M211 743l-7 7q19 44 65 96.5t89 89.5q64 -27 86 -100q-50 -33 -115.5 -60t-117.5 -33z" />
    <glyph glyph-name="paragraph" unicode="&#xb6;" horiz-adv-x="540" 
d="M432 147q0 -55 -18.5 -96.5t-49.5 -63.5l-9 8q25 42 26 90q1 15 1 60v505h-83v-650q0 -91 -43 -149q-24 -33 -63 -50l-7 9q41 42 51 75.5t10 67.5t-1 47v333q-85 0 -140.5 50t-55.5 133t56.5 133.5t139.5 50.5h182h7h9t8.5 0.5t10.5 2t10.5 3t12 5t11.5 7.5q12 8 26 25
l7 -6q-7 -42 -50 -70q-22 -14 -48 -16v-504z" />
    <glyph glyph-name="periodcentered" unicode="&#xb7;" horiz-adv-x="250" 
d="M125 411q36 0 70 -25.5t50 -64.5q-16 -39 -50 -64.5t-70 -25.5t-70 25.5t-50 64.5q16 39 50 64.5t70 25.5zM145 368q-10 4 -25 4t-34.5 -14.5t-28.5 -36.5q14 -34 48 -47q10 -4 25 -4t34.5 14.5t28.5 36.5q-14 34 -48 47z" />
    <glyph glyph-name="cedilla" unicode="&#xb8;" 
d="M284 -48q14 5 24 5h20.5t30.5 -5.5t32 -20.5t12 -27q0 -46 -32 -73q-41 -36 -100 -36q-27 0 -57 9l1 10q37 0 70.5 20.5t33.5 60.5q0 16 -16 28q-16 11 -39 11t-42 -6l-5 10l48 63h62z" />
    <glyph glyph-name="onesuperior" unicode="&#xb9;" horiz-adv-x="292" 
d="M262 314v-6h-228v6h11q13 0 21.5 8.5t8.5 20.5v289q0 17 -7 30t-34 13h-4v5q32 1 93.5 10.5t92.5 24.5h5v-372q0 -12 9 -20.5t21 -8.5h11z" />
    <glyph glyph-name="ordmasculine" unicode="&#xba;" horiz-adv-x="400" 
d="M66 667q46 43 134 43t134 -43t46 -123.5t-46 -123.5t-134 -43t-134 43t-46 123.5t46 123.5zM200 403q31 0 45 35t14 87.5t-3 78t-10 43.5q-14 37 -46 37q-60 0 -60 -140.5t60 -140.5z" />
    <glyph glyph-name="guillemotright" unicode="&#xbb;" horiz-adv-x="551" 
d="M268 95q25 45 45.5 84t43.5 113q-25 79 -88 193l8 5q35 -45 79 -84.5t76.5 -62.5t79.5 -51q-135 -86 -235 -204zM60 95q20 35 27 48q39 73 62 149q-10 30 -22.5 64t-65.5 129l8 5q50 -65 106.5 -109.5t128.5 -88.5q-135 -86 -235 -204z" />
    <glyph glyph-name="onequarter" unicode="&#xbc;" horiz-adv-x="769" 
d="M597 723l47 -32l-477 -711l-48 31zM65 632q0 43 -41 43h-4v5q32 1 93.5 10.5t92.5 24.5h5v-372q0 -12 9 -20.5t21 -8.5h12v-6h-229v6h11q13 0 21.5 8.5t8.5 20.5v289zM667 92v-54q0 -13 10 -22.5t23 -9.5h7v-6h-224v6h7q13 0 23 9t10 22v55h-194v6l332 310h6v-244h26
q29 0 41 28h6l-21 -100h-52zM523 165v66l-75 -66h75z" />
    <glyph glyph-name="onehalf" unicode="&#xbd;" horiz-adv-x="850" 
d="M575 723l47 -32l-477 -711l-48 31zM24 675h-4v5q32 1 93.5 10.5t92.5 24.5h5v-372q0 -12 9 -20.5t21 -8.5h11v-6h-228v6h11q13 0 21.5 8.5t8.5 20.5v289q0 43 -41 43zM577 380q-71 0 -72 -129h-5l-49 115q54 46 163 46q73 0 122 -30.5t49 -82.5q0 -78 -105 -147
q-24 -15 -47 -26h93q51 0 79 62h5l-41 -188h-310v5q12 16 41 55t42 57t34.5 51t31.5 53q25 56 25 91.5t-16.5 51.5t-39.5 16z" />
    <glyph glyph-name="threequarters" unicode="&#xbe;" horiz-adv-x="839" 
d="M666 723l47 -32l-477 -711l-48 31zM289.5 689q39.5 -25 39.5 -66.5t-20.5 -60t-49.5 -19.5q89 -19 89 -108q0 -52 -32 -88q-52 -57 -149 -57q-75 0 -135 33l1 5h7q66 0 113.5 30.5t47.5 82t-30 74t-66 23.5l1 5h4q35 0 57.5 25.5t22.5 56.5q0 38 -23 51q-15 8 -26 8
q-46 0 -61 -32q-10 -25 -10 -76v-11h-6l-39 111q50 38 137.5 38t127 -25zM747 92v-54q0 -18 17 -28q7 -4 16 -4h7v-6h-224v6h7q13 0 22.5 9t10.5 22v55h-194v6l332 311h6v-244h26q29 0 41 27h6l-21 -100h-52zM603 165v66l-75 -66h75z" />
    <glyph glyph-name="questiondown" unicode="&#xbf;" horiz-adv-x="523" 
d="M204 687.5q26 26.5 63.5 26.5t64 -26.5t26.5 -63.5t-26.5 -63.5t-64 -26.5t-63.5 26.5t-26 63.5t26 63.5zM245 161q0 -125 91 -125q97 0 97 154h10l50 -115q-23 -40 -81.5 -64.5t-139.5 -24.5q-117 0 -179.5 46t-62.5 131q0 58 32.5 99t114.5 101q52 38 58 59q8 27 -7 57
l9 6q65 -17 90 -66q11 -21 11 -36.5t-1.5 -29.5t-12.5 -32.5t-24 -32.5t-26 -30q-29 -36 -29 -97z" />
    <glyph glyph-name="Agrave" unicode="&#xc0;" horiz-adv-x="702" 
d="M356 791l-7 -7q-53 6 -118 33t-115 60q21 73 85 100q43 -37 89.5 -89.5t65.5 -96.5zM978 -171q-77 -45 -157 -45t-151.5 30t-140 104t-112.5 182l-27 66h-214l-40 -93q-5 -13 -5 -21t3.5 -17.5t15 -17t24.5 -7.5h9v-10h-223v10h9q23 0 45.5 13.5t37.5 40.5l204 448
q-30 83 -49.5 111.5t-32.5 43.5q-24 28 -60 41q-14 5 -33 5t-43 -9l-2 10q79 47 154 47q73 0 138 -50q79 -61 135 -189l160 -367q44 -101 65 -135.5t37.5 -59t32.5 -42.5t35 -35q33 -30 83 -45q21 -7 46.5 -7t53.5 8zM198 216h172l-63 155q-8 18 -19 51z" />
    <glyph glyph-name="Aacute" unicode="&#xc1;" horiz-adv-x="702" 
d="M312 781l-7 7q19 44 65 96.5t90 89.5q64 -27 85 -100q-50 -33 -115 -60t-118 -33zM978 -171q-77 -45 -157 -45t-151.5 30t-140 104.5t-112.5 181.5l-27 66h-214l-40 -93q-5 -13 -5 -21t3.5 -17.5t15 -17t24.5 -7.5h9v-10h-223v10h9q23 0 45.5 13.5t37.5 40.5l204 448
q-30 83 -49.5 111.5t-32.5 43.5q-24 28 -60 41q-14 5 -33 5t-43 -9l-2 10q79 47 154 47q73 0 138 -50q79 -61 135 -189l160 -367q44 -101 65 -135.5t37.5 -59t32.5 -42.5t35 -35q33 -30 83 -45q21 -7 46.5 -7t53.5 8zM198 216h172l-63 155q-8 18 -19 51z" />
    <glyph glyph-name="Acircumflex" unicode="&#xc2;" horiz-adv-x="702" 
d="M322 952h11l179 -176l-7 -8l-178 65l-167 -65l-7 8zM978 -171q-77 -45 -157 -45t-151.5 30t-140 104.5t-112.5 181.5l-27 66h-214l-40 -93q-5 -13 -5 -21t3.5 -17.5t15 -17t25.5 -7.5h8v-10h-223v10h9q23 0 45.5 13.5t37.5 40.5l204 448q-30 83 -49.5 111.5t-32.5 43.5
q-24 28 -60 41q-14 5 -33 5t-43 -9l-2 10q80 47 153 47q108 0 195 -106q44 -55 79 -133l160 -367q44 -101 65 -135.5t37.5 -59t32.5 -42.5t35 -35q33 -30 83 -45q21 -7 46.5 -7t53.5 8zM198 216h172l-63 155q-8 18 -19 51z" />
    <glyph glyph-name="Atilde" unicode="&#xc3;" horiz-adv-x="702" 
d="M524 939h12q6 -17 6 -36.5t-8 -38.5q-22 -50 -61 -68q-24 -12 -55.5 -12t-80.5 25q-50 25 -67.5 27.5t-32.5 2.5t-39 -16t-32 -36h-12q-4 14 -4 29q0 60 45 103q31 30 68.5 30t91.5 -27t99 -27q15 0 39.5 14.5t30.5 29.5zM978 -171q-77 -45 -157 -45t-151.5 30t-140 104
t-112.5 182l-27 66h-214l-40 -93q-6 -13 -6 -24.5t11 -25t33 -13.5h9v-10h-223v10h9q23 0 45.5 13.5t37.5 40.5l204 448q-30 83 -49.5 111.5t-32.5 43.5q-24 28 -60 41q-14 5 -33 5t-43 -9l-2 10q79 47 154 47q73 0 138 -50q79 -61 135 -189l160 -367q44 -101 65 -135.5
t37.5 -59t32.5 -42.5t35 -35q33 -30 83 -45q21 -7 46.5 -7t53.5 8zM198 216h172l-63 155q-8 18 -19 51z" />
    <glyph glyph-name="Adieresis" unicode="&#xc4;" horiz-adv-x="702" 
d="M193.5 775q-30.5 0 -52 22t-21.5 52.5t21.5 52t52 21.5t52.5 -21.5t22 -52t-22 -52.5t-52.5 -22zM456.5 775q-30.5 0 -52 22t-21.5 52.5t21.5 52t52 21.5t52 -21.5t21.5 -52t-21.5 -52.5t-52 -22zM978 -171q-77 -45 -157 -45t-151.5 30t-140 104.5t-112.5 181.5l-27 66
h-214l-40 -93q-5 -13 -5 -21t3.5 -17.5t15 -17t24.5 -7.5h9v-10h-223v10h9q23 0 45.5 13.5t37.5 40.5l204 448q-30 83 -49.5 111.5t-32.5 43.5q-24 28 -60 41q-14 5 -33 5t-43 -9l-2 10q80 47 153 47q108 0 195 -106q44 -55 79 -133l160 -367q44 -101 65 -135.5t37.5 -59
t32.5 -42.5t35 -35q33 -30 83 -45q21 -7 46.5 -7t53.5 8zM198 216h172l-63 155q-8 18 -19 51z" />
    <glyph glyph-name="Aring" unicode="&#xc5;" horiz-adv-x="702" 
d="M244 936.5q34 25.5 84.5 25.5t84 -25t33.5 -63.5t-34 -64.5t-84.5 -26t-84 25.5t-33.5 64t34 64zM364.5 915q-14.5 17 -36.5 17t-36.5 -17t-14.5 -42.5t14.5 -42t36.5 -16.5t36.5 16.5t14.5 42t-14.5 42.5zM978 -171q-77 -45 -157 -45t-151.5 30t-140 104.5t-112.5 181.5
l-27 66h-214l-40 -93q-5 -13 -5 -21t3.5 -17.5t15 -17t24.5 -7.5h9v-10h-223v10h9q23 0 45.5 13.5t37.5 40.5l204 448q-30 83 -49.5 111.5t-32.5 43.5q-24 28 -60 41q-14 5 -33 5t-43 -9l-2 10q79 47 154 47q73 0 138 -50q79 -61 135 -189l160 -367q44 -101 65 -135.5
t37.5 -59t32.5 -42.5t35 -35q33 -30 83 -45q21 -7 46.5 -7t53.5 8zM198 216h172l-63 155q-8 18 -19 51z" />
    <glyph glyph-name="AE" unicode="&#xc6;" horiz-adv-x="941" 
d="M-48.5 -52.5q-48.5 -40.5 -92 -52t-91 -11.5t-108.5 25l1 10q18 -1 36 -1t41.5 2.5t60.5 17.5q72 28 148 141l388 569q7 15 -1 27.5t-24 12.5h-5v12h286q32 0 69.5 6t52.5 12v-206h-10v8q0 59 -33.5 93.5t-93.5 35.5h-35v-282h142q46 2 75.5 32.5t29.5 76.5v5h10v-278
h-10v5q0 46 -29 76.5t-74 32.5h-144v-266h183q73 0 128.5 48t78.5 133h10l-38 -232h-627l1 10h9q20 0 34.5 14t15.5 34h1v259h-137l-160 -262q-40 -67 -88.5 -107.5zM337 367v175l-106 -175h106z" />
    <glyph glyph-name="Ccedilla" unicode="&#xc7;" horiz-adv-x="830" 
d="M815 402q6 -40 6 -70.5t-4 -70t-23.5 -85.5t-50 -81t-70.5 -59q-81 -49 -191 -50l-37 -43q14 5 24 5h20t30.5 -5.5t32.5 -20.5t12 -27q0 -46 -32 -73q-42 -35 -100 -35q-28 0 -57 8l1 10q36 0 70 20.5t34 60.5q0 16 -17 28q-30 21 -81 5l-5 10l46 59q-199 12 -306 108.5
t-107 249.5q0 169 126 268.5t342 99.5q150 0 258 -46l-10 -191h-9q-52 187 -234 187q-121 0 -187 -81.5t-66 -225.5t69 -230.5t199 -90.5q143 0 226 92.5t83 249.5v24h8z" />
    <glyph glyph-name="Egrave" unicode="&#xc8;" horiz-adv-x="712" 
d="M306 771l-7 -7q-53 6 -118 33t-115 60q21 73 85 100q62 -53 102 -104.5t53 -81.5zM43 10q26 0 44.5 18.5t19.5 44.5v554q-1 37 -32 55q-15 8 -32 8h-13v10h333q31 0 67.5 6t51.5 12v-206h-10v8q0 80 -58 112q-28 16 -67 17h-35v-279h139q48 1 78 31.5t30 78.5v4h10v-278
h-10v5q0 47 -30 77.5t-77 31.5h-140v-269h183q73 0 129 48t79 133h10l-38 -232h-645v10h13z" />
    <glyph glyph-name="Eacute" unicode="&#xc9;" horiz-adv-x="712" 
d="M262 761l-7 7q19 44 65.5 96.5t89.5 89.5q64 -27 85 -100q-50 -33 -115 -60t-118 -33zM43 10q26 0 44.5 18.5t19.5 44.5v554q-1 26 -19.5 44.5t-44.5 18.5h-13v10h333q43 0 76.5 7t42.5 11v-206h-10v8q0 80 -58 112q-28 16 -67 17h-35v-279h139q48 1 78 31.5t30 78.5v4
h10v-278h-10v5q0 47 -30 77.5t-77 31.5h-140v-269h183q73 0 129 48t79 133h10l-38 -232h-645v10h13z" />
    <glyph glyph-name="Ecircumflex" unicode="&#xca;" horiz-adv-x="712" 
d="M272 932h12l178 -176l-7 -8l-178 65l-167 -65l-7 8zM43 10q26 0 44.5 18.5t19.5 44.5v554q-1 26 -19.5 44.5t-44.5 18.5h-13v10h333q43 0 76.5 7t42.5 11v-206h-10v8q0 80 -58 112q-28 16 -67 17h-35v-279h139q48 1 78 31.5t30 78.5v4h10v-278h-10v5q0 47 -30 77.5
t-77 31.5h-140v-269h183q73 0 129 48t79 133h10l-38 -232h-645v10h13z" />
    <glyph glyph-name="Edieresis" unicode="&#xcb;" horiz-adv-x="712" 
d="M144.5 755q-30.5 0 -52 22t-21.5 52.5t21.5 52t52 21.5t52 -21.5t21.5 -52t-21.5 -52.5t-52 -22zM406.5 755q-30.5 0 -52 22t-21.5 52.5t21.5 52t52 21.5t52 -21.5t21.5 -52t-21.5 -52.5t-52 -22zM43 10q26 0 44.5 18.5t19.5 44.5v554q-1 26 -19.5 44.5t-44.5 18.5h-13
v10h333q31 0 67.5 6t51.5 12v-206h-10v8q0 80 -58 112q-28 16 -67 17h-35v-279h139q48 1 78 31.5t30 78.5v4h10v-278h-10v5q0 47 -30 77.5t-77 31.5h-140v-269h183q73 0 129 48t79 133h10l-38 -232h-645v10h13z" />
    <glyph glyph-name="Igrave" unicode="&#xcc;" horiz-adv-x="498" 
d="M315 771l-7 -7q-52 6 -117.5 33t-115.5 60q22 73 86 100q43 -37 89 -89.5t65 -96.5zM456 10h13v-10h-359v10h13q26 0 44.5 18.5t19.5 44.5v577l-87 -3q-84 -3 -90 -62v-6q0 -28 19 -45t48 -17h12v-6q-22 -12 -43.5 -12t-43.5 13q-42 25 -42 74q0 46 36 76.5t113 33.5
q11 1 70.5 3t102.5 3q124 6 187 18l2 -10q-43 -7 -60.5 -29.5t-18.5 -66.5v-541q1 -26 19.5 -44.5t44.5 -18.5z" />
    <glyph glyph-name="Iacute" unicode="&#xcd;" horiz-adv-x="498" 
d="M271 761l-7 7q19 44 65.5 96.5t89.5 89.5q64 -27 85 -100q-50 -33 -115 -60t-118 -33zM456 10h13v-10h-359v10h13q26 0 44.5 18.5t19.5 44.5v577l-87 -3q-84 -3 -90 -62v-6q0 -28 19 -45t48 -17h12v-6q-22 -12 -43.5 -12t-43.5 13q-42 25 -42 74q0 46 36 76.5t113 33.5
q11 1 70.5 3t102.5 3q124 6 187 18l2 -10q-43 -7 -60.5 -29.5t-18.5 -66.5v-541q1 -26 19.5 -44.5t44.5 -18.5z" />
    <glyph glyph-name="Icircumflex" unicode="&#xce;" horiz-adv-x="498" 
d="M281 932h12l178 -176l-7 -8l-177 65l-168 -65l-7 8zM456 10h13v-10h-359v10h13q26 0 44.5 18.5t19.5 44.5v577l-87 -3q-84 -3 -90 -62v-6q0 -28 19 -45t48 -17h12v-6q-22 -12 -43.5 -12t-43.5 13q-42 25 -42 74q0 46 36 76.5t113 33.5q14 1 54 2t77 2.5t80 4.5
q95 5 149 15l2 -10q-43 -7 -60.5 -29.5t-18.5 -66.5v-541q0 -26 19 -44.5t45 -18.5z" />
    <glyph glyph-name="Idieresis" unicode="&#xcf;" horiz-adv-x="498" 
d="M153.5 755q-30.5 0 -52 22t-21.5 52.5t21.5 52t52 21.5t52 -21.5t21.5 -52t-21.5 -52.5t-52 -22zM416.5 755q-30.5 0 -52.5 22t-22 52.5t22 52t52.5 21.5t52 -21.5t21.5 -52t-21.5 -52.5t-52 -22zM456 10h13v-10h-359v10h13q26 0 44.5 18.5t19.5 44.5v577l-87 -3
q-84 -3 -90 -62v-6q0 -28 19 -45t48 -17h12v-6q-22 -12 -43.5 -12t-43.5 13q-42 25 -42 74q0 46 36 76.5t113 33.5q11 1 70.5 3t102.5 3q124 6 187 18l2 -10q-56 -9 -71 -48q-7 -19 -8 -48v-541q0 -26 19 -44.5t45 -18.5z" />
    <glyph glyph-name="Eth" unicode="&#xd0;" horiz-adv-x="878" 
d="M445 0h-379v10h13q26 0 44.5 18.5t19.5 44.5v252h-77v50h77v269q-105 -11 -159 -59q-46 -41 -74 -105l-10 4q20 108 103.5 162t209.5 54h232q188 0 293.5 -92.5t105.5 -257.5t-106 -257.5t-293 -92.5zM348 325v-275h77v0q93 0 146 79.5t53 220.5t-53 220.5t-146 79.5
l-77 -2v-273h108v-50h-108z" />
    <glyph glyph-name="Ntilde" unicode="&#xd1;" horiz-adv-x="881" 
d="M597 919h12q6 -17 6 -36.5t-8 -38.5q-22 -50 -61 -68q-24 -12 -55.5 -12t-80.5 25q-50 25 -67.5 27.5t-32.5 2.5t-39 -16t-32 -36h-12q-4 14 -4 29q0 60 45 103q31 30 76 30q25 0 49.5 -11t53.5 -24.5t47 -16t33 -2.5t39.5 14.5t30.5 29.5zM1141 -135q-61 -38 -132 -38
q-62 0 -129 37q-69 37 -135 105l-439 454v-352q0 -35 31 -53q14 -8 30 -8h19v-10h-366v10h19q25 0 43 17.5t18 43.5v566q-154 164 -270 164q-29 0 -56 -10l-5 9q56 40 126 40q61 0 134 -39q72 -40 136 -105l411 -425v358q-1 26 -19 43.5t-43 17.5h-19v10h366v-10h-18
q-25 0 -43 -17.5t-19 -42.5v-571l18 -19l23.5 -25t32 -33t34.5 -31.5t42 -33t44 -25t51 -19.5q26 -6 55 -6t56 8z" />
    <glyph glyph-name="Ograve" unicode="&#xd2;" horiz-adv-x="931" 
d="M492 785l-7 -7q-52 6 -117.5 33t-115.5 60q22 73 86 100q61 -53 101 -104.5t53 -81.5zM367 433q-31 52 -31 110q0 80 60 130q36 31 89 41q33 5 53 5q61 0 104 -13.5t83 -32t75.5 -50.5t62.5 -70q58 -82 58 -198q0 -168 -124.5 -268.5t-329.5 -100.5t-331 101t-126 266
q0 136 84.5 233.5t220.5 120.5l6 -10q-41 -43 -65.5 -127.5t-24.5 -182.5q0 -159 64 -255t170.5 -96t170.5 87t64 232q0 92 -25.5 165t-70.5 109t-96 36q-64 0 -99 -39q-41 -45 -41 -112q0 -38 11 -81h-12z" />
    <glyph glyph-name="Oacute" unicode="&#xd3;" horiz-adv-x="931" 
d="M448 775l-7 7q27 62 116 149q21 21 39 37q64 -27 85 -100q-50 -33 -115 -60t-118 -33zM367 433q-31 52 -31 110q0 80 60 130q36 31 89 41q33 5 53 5q61 0 104 -13.5t83 -32t75.5 -50.5t62.5 -70q58 -82 58 -198q0 -168 -124.5 -268.5t-329.5 -100.5t-331 101t-126 266
q0 136 84.5 233.5t220.5 120.5l6 -10q-41 -43 -65.5 -127.5t-24.5 -182.5q0 -159 64 -255t173 -96q104 0 168 86q64 87 64 233q0 92 -25.5 165t-70.5 109t-96 36q-64 0 -99 -39q-41 -45 -41 -112q0 -38 11 -81h-12z" />
    <glyph glyph-name="Ocircumflex" unicode="&#xd4;" horiz-adv-x="931" 
d="M458 946h12l179 -176l-8 -8l-177 65l-168 -65l-7 8zM367 433q-31 52 -31 110q0 62 38.5 109.5t110.5 61.5q33 5 53 5q61 0 104 -13.5t83 -32t75.5 -50.5t62.5 -70q58 -82 58 -198q0 -168 -124.5 -268.5t-329.5 -100.5t-331 101t-126 266q0 136 84.5 233.5t220.5 120.5
l6 -10q-41 -43 -65.5 -127.5t-24.5 -182.5q0 -159 64 -255t170.5 -96t170.5 87t64 232q0 92 -25.5 165t-70.5 109t-96 36q-64 0 -99 -39q-41 -45 -41 -112q0 -38 11 -81h-12z" />
    <glyph glyph-name="Otilde" unicode="&#xd5;" horiz-adv-x="931" 
d="M660 933h13q6 -17 6 -36.5t-9 -38.5q-21 -50 -61 -68q-24 -12 -51.5 -12t-54.5 11q-26 11 -54 25t-44.5 16.5t-31 2.5t-38.5 -16t-32 -36h-13q-3 14 -3 29q0 60 44 103q31 30 68.5 30t92 -27t99.5 -27q14 0 38.5 14.5t30.5 29.5zM367 433q-31 52 -31 110q0 62 38.5 109.5
t110.5 61.5q33 5 53 5q61 0 104 -13.5t83 -32t75.5 -50.5t62.5 -70q58 -82 58 -198q0 -168 -124.5 -268.5t-330 -100.5t-331 101t-125.5 266q0 136 84.5 233.5t220.5 120.5l6 -10q-41 -43 -65.5 -127.5t-24.5 -182.5q0 -159 64 -255t173 -96q104 0 168 86q64 87 64 233
q0 92 -25.5 165t-70.5 109t-96 36q-64 0 -99 -39q-41 -45 -41 -112q0 -38 11 -81h-12z" />
    <glyph glyph-name="Odieresis" unicode="&#xd6;" horiz-adv-x="931" 
d="M330.5 769q-30.5 0 -52 22t-21.5 52.5t21.5 52t52 21.5t52 -21.5t21.5 -52t-21.5 -52.5t-52 -22zM593.5 769q-30.5 0 -52.5 22t-22 52.5t22 52t52.5 21.5t52 -21.5t21.5 -52t-21.5 -52.5t-52 -22zM367 433q-31 52 -31 110q0 80 60 130q36 31 89 41q33 5 53 5
q61 0 104 -13.5t83 -32t75.5 -50.5t62.5 -70q58 -82 58 -198q0 -168 -124.5 -268.5t-329.5 -100.5t-331 101t-126 266q0 136 84.5 233.5t220.5 120.5l6 -10q-41 -43 -65.5 -127.5t-24.5 -182.5q0 -159 64 -255t173 -96q104 0 168 86q64 87 64 233q0 92 -25.5 165t-70.5 109
t-96 36q-64 0 -99 -39q-41 -45 -41 -112q0 -38 11 -81h-12z" />
    <glyph glyph-name="multiply" unicode="&#xd7;" horiz-adv-x="410" 
d="M370 429l-119 -119l119 -119l-46 -46l-119 119l-119 -119l-46 46l119 119l-119 119l46 46l119 -119l119 119z" />
    <glyph glyph-name="Oslash" unicode="&#xd8;" horiz-adv-x="905" 
d="M352 433q-31 52 -31 110q0 80 60 130q55 47 140 47t165 -36l36 42l44 -34l-29 -34q104 -64 146 -173q23 -60 23 -130q0 -168 -124.5 -268.5t-329.5 -100.5q-141 0 -249 50l-50 -59l-44 36l44 51q-76 49 -117 123t-41 166q0 136 84.5 233.5t220.5 120.5l6 -10
q-41 -43 -65.5 -127.5t-24.5 -193.5t37 -195l362 421q-50 63 -121 63q-65 0 -100 -39q-41 -45 -41 -112q0 -38 11 -81h-12zM283 128q64 -92 169 -92t169 87t64 232q0 114 -39 197z" />
    <glyph glyph-name="Ugrave" unicode="&#xd9;" horiz-adv-x="852" 
d="M527 771l-7 -7q-53 6 -118 33t-115 60q21 73 85 100q43 -37 89.5 -89.5t65.5 -96.5zM930 923q14 0 28 -2v-10q-90 -11 -136 -85t-46 -196v-373q-2 -132 -84.5 -201.5t-244.5 -69.5t-255 72t-93 192v6v385q0 21 -15.5 35t-37.5 14h-16v10h343v-10h-16q-35 0 -49 -30
q-4 -8 -4 -17v-383q0 -104 52.5 -163.5t139.5 -59.5h1.5h1.5q83 0 136.5 55.5t53.5 154.5v383q0 124 72 213q34 41 79.5 60.5t89.5 19.5z" />
    <glyph glyph-name="Uacute" unicode="&#xda;" horiz-adv-x="852" 
d="M483 761l-7 7q19 44 65.5 96.5t89.5 89.5q64 -27 85 -100q-50 -33 -115 -60t-118 -33zM930 923q14 0 28 -2v-10q-90 -11 -136 -85t-46 -196v-373q-2 -132 -84.5 -201.5t-244.5 -69.5t-255 72t-93 192v6v385q0 21 -15.5 35t-37.5 14h-16v10h343v-10h-16q-35 0 -49 -30
q-4 -8 -4 -17v-383q0 -104 52.5 -163t139.5 -59h1.5h1.5q83 0 136.5 55t53.5 154v383q0 124 72 213q34 41 79.5 60.5t89.5 19.5z" />
    <glyph glyph-name="Ucircumflex" unicode="&#xdb;" horiz-adv-x="852" 
d="M493 932h12l178 -176l-7 -8l-178 65l-167 -65l-7 8zM930 923q14 0 28 -2v-10q-90 -11 -136 -85t-46 -196v-373q-2 -132 -84.5 -201.5t-244.5 -69.5t-255 72t-93 192v6v385q0 21 -15.5 35t-37.5 14h-16v10h343v-10h-16q-23 0 -37.5 -14t-15.5 -33v-383q0 -104 52.5 -163.5
t139.5 -59.5h1.5h1.5q83 0 136.5 55.5t53.5 154.5v383q0 124 72 213q34 41 79.5 60.5t89.5 19.5z" />
    <glyph glyph-name="Udieresis" unicode="&#xdc;" horiz-adv-x="852" 
d="M930 923q14 0 28 -2v-10q-90 -11 -136 -85t-46 -196v-373q-2 -132 -84.5 -201.5t-244.5 -69.5t-255 72t-93 192v6v385q0 21 -15.5 35t-37.5 14h-16v10h343v-10h-16q-31 0 -46 -24q-6 -11 -7 -23v-383q0 -104 52.5 -163.5t139.5 -59.5h1.5h1.5q83 0 136.5 55.5t53.5 154.5
v383q0 124 72 213q34 41 79.5 60.5t89.5 19.5zM365.5 756q-30.5 0 -52.5 21.5t-22 52t22 52t52.5 21.5t52 -21.5t21.5 -52t-21.5 -52t-52 -21.5zM627.5 756q-30.5 0 -52 21.5t-21.5 52t21.5 52t52 21.5t52 -21.5t21.5 -52t-21.5 -52t-52 -21.5z" />
    <glyph glyph-name="Yacute" unicode="&#xdd;" horiz-adv-x="699" 
d="M348 761l-7 7q19 44 65 96.5t90 89.5q64 -27 85 -100q-50 -33 -115 -60t-118 -33zM-29 761q146 0 259 -68q133 -81 188 -232q40 118 127 209q42 43 89.5 66.5t91.5 23.5q7 0 14 -1v-10q-46 -2 -96.5 -48.5t-89.5 -113t-67.5 -138.5t-35.5 -127v-249q0 -36 31 -54
q15 -9 33 -9h12l1 -10h-359v10h13q26 0 44.5 18.5t19.5 44.5v249q-22 105 -76 209q-30 57 -66 103t-86 78.5t-103 36.5v10q29 2 56 2z" />
    <glyph glyph-name="Thorn" unicode="&#xde;" horiz-adv-x="707" 
d="M693 353q0 -46 -18.5 -89t-53.5 -72q-63 -51 -134 -51q-72 0 -136 46v10q36 6 54.5 19.5t29.5 24.5q25 27 33.5 63t8.5 51q0 79 -34 116t-91 37h-27v-435q0 -37 32 -55q14 -8 32 -8h12v-10h-358v10h12q27 0 45.5 18.5t19.5 44.5v555q-1 26 -19.5 44t-44.5 18h-13v10h358
v-10h-12q-26 0 -45 -18t-19 -44v-70h91q166 0 234 -79q43 -50 43 -126z" />
    <glyph glyph-name="germandbls" unicode="&#xdf;" horiz-adv-x="1290" 
d="M520 45.5q-86 -59.5 -229 -59.5q-83 0 -146 18.5t-91 46.5q-9 22 -9 47.5t4 49.5q11 59 37 92h9q-1 -6 -1 -13q0 -74 58.5 -132.5t159.5 -58.5q68 0 104.5 28.5t36.5 65t-25 62.5t-81 52l-163 76q-69 31 -100 87q-25 44 -25 97q0 108 73 164q61 46 162 46q66 0 169 -10
h78l-22 -163h-10q0 55 -43 89t-109.5 34t-103 -23t-39.5 -61q-4 -47 60 -80q11 -6 29 -13l187 -87q116 -53 116 -174t-86 -180.5zM1165 45.5q-86 -59.5 -229 -59.5q-83 0 -146 18.5t-91 46.5q-9 22 -9 47.5t4 49.5q11 59 37 92h9q-1 -6 -1 -13q0 -74 58.5 -132.5
t159.5 -58.5q68 0 104.5 28.5t36.5 65t-25 62.5t-81 52l-163 76q-69 31 -100 87q-25 44 -25 97q0 108 73 164q61 46 162 46q66 0 169 -10h78l-22 -163h-10q0 55 -43 89t-109.5 34t-103.5 -23q-39 -26 -39 -68q0 -28 21.5 -47t67.5 -39l187 -87q116 -53 116 -174t-86 -180.5z
" />
    <glyph glyph-name="agrave" unicode="&#xe0;" horiz-adv-x="720" 
d="M377 771l-7 -7q-53 6 -118 33t-115 60q21 73 85 100q44 -37 90 -89.5t65 -96.5zM752 10h8v-10h-379v10h9q22 0 33 13.5t11 25t-5 24.5l-39 93h-214l-40 -93q-5 -13 -5 -21t3.5 -17.5t15 -17t24.5 -7.5h9v-10h-223v10h9q23 0 45.5 13.5t37.5 40.5l233 511q53 112 57 149h9
l317 -659q32 -55 84 -55zM198 216h171l-84 200z" />
    <glyph glyph-name="aacute" unicode="&#xe1;" horiz-adv-x="720" 
d="M333 761l-7 7q19 44 65.5 96.5t89.5 89.5q64 -27 85 -100q-50 -33 -115 -60t-118 -33zM752 10h8v-10h-379v10h9q22 0 33 13.5t11 25t-5 24.5l-39 93h-214l-40 -93q-5 -13 -5 -21t3.5 -17.5t15 -17t24.5 -7.5h9v-10h-223v10h9q23 0 45.5 13.5t37.5 40.5l233 511
q53 112 57 149h9l317 -659q32 -55 84 -55zM198 216h171l-84 200z" />
    <glyph glyph-name="acircumflex" unicode="&#xe2;" horiz-adv-x="720" 
d="M343 932h12l178 -176l-7 -8l-178 65l-167 -65l-7 8zM752 10h8v-10h-379v10h9q22 0 33 13.5t11 25t-5 24.5l-39 93h-214l-40 -93q-5 -13 -5 -21t3.5 -17.5t15 -17t24.5 -7.5h9v-10h-223v10h9q23 0 45.5 13.5t37.5 40.5l233 511q53 112 57 149h9l317 -659q32 -55 84 -55z
M198 216h171l-84 200z" />
    <glyph glyph-name="atilde" unicode="&#xe3;" horiz-adv-x="720" 
d="M545 919h13q6 -17 6 -36.5t-9 -38.5q-21 -50 -61 -68q-24 -12 -55 -12t-81 25q-49 25 -67 27.5t-32.5 2.5t-38.5 -16t-32 -36h-13q-3 14 -3 29q0 60 44 103q31 30 68.5 30t91.5 -27t99 -27q15 0 39.5 14.5t30.5 29.5zM752 10h8v-10h-379v10h9q22 0 33 13.5t11 25t-5 24.5
l-39 93h-214l-40 -93q-6 -13 -6 -24.5t11 -25t33 -13.5h9v-10h-223v10h9q23 0 45.5 13.5t37.5 40.5l233 511q53 112 57 149h9l317 -659q32 -55 84 -55zM198 216h171l-84 200z" />
    <glyph glyph-name="adieresis" unicode="&#xe4;" horiz-adv-x="720" 
d="M215.5 755q-30.5 0 -52 22t-21.5 52.5t21.5 52t52 21.5t52 -21.5t21.5 -52t-21.5 -52.5t-52 -22zM478.5 755q-30.5 0 -52.5 22t-22 52.5t22 52t52.5 21.5t52 -21.5t21.5 -52t-21.5 -52.5t-52 -22zM752 10h8v-10h-379v10h9q22 0 33 13.5t11 25t-5 24.5l-39 93h-214
l-40 -93q-5 -13 -5 -21t3.5 -17.5t15 -17t24.5 -7.5h9v-10h-223v10h9q23 0 45.5 13.5t37.5 40.5l233 511q53 112 57 149h9l317 -659q32 -55 84 -55zM198 216h171l-84 200z" />
    <glyph glyph-name="aring" unicode="&#xe5;" horiz-adv-x="720" 
d="M265 916.5q34 25.5 84.5 25.5t84 -25t33.5 -63.5t-33.5 -64.5t-84.5 -26t-84.5 25.5t-33.5 64t34 64zM386 895q-15 17 -37 17t-36.5 -17t-14.5 -42.5t14.5 -42t36.5 -16.5t37 16.5t15 42t-15 42.5zM752 10h8v-10h-379v10h9q22 0 33 13.5t11 25t-5 24.5l-39 93h-214
l-40 -93q-5 -13 -5 -21t3 -17.5t15 -17t25 -7.5h9v-10h-223v10h9q23 0 45.5 13.5t37.5 40.5l233 511q53 112 57 149h9l317 -659q32 -55 84 -55zM198 216h171l-84 200z" />
    <glyph glyph-name="ae" unicode="&#xe6;" horiz-adv-x="1014" 
d="M416 10q32 0 45 30q4 9 5 18v259h-157l-151 -244q-9 -14 -9 -25.5t12 -24.5t35 -13h9v-10h-238v10h9q43 0 86 61l391 570q8 13 8 21q0 28 -29 28h-5v10h394q31 0 68 6t51 12v-206h-10v8q1 80 -57 112q-28 16 -68 17h-134v-282h102q46 2 75.5 32.5t29.5 76.5v5h10v-278
h-10v5q0 46 -29 76.5t-74 32.5h-104v-266h113q73 0 128.5 48t78.5 133h10l-38 -232h-557l1 10h9zM466 367v202l-126 -202h126z" />
    <glyph glyph-name="ccedilla" unicode="&#xe7;" horiz-adv-x="793" 
d="M472 -14h-12l-37 -43q14 5 24 5h20t30.5 -5.5t32.5 -20.5t12 -27q0 -46 -32 -73q-42 -35 -100 -35q-28 0 -57 8l1 10q36 0 70 20.5t34 60.5q0 16 -17 28q-30 21 -81 5l-5 10l47 60q-173 17 -270 111t-97 251q0 113 52 195t150.5 125t241.5 43t251 -46l-10 -191h-9
q-29 101 -84 144t-137 43q-111 0 -173 -82t-62 -228.5t57.5 -230.5t159.5 -87q118 0 171 56q50 52 78 200h8l24 -182q-74 -124 -281 -124z" />
    <glyph glyph-name="egrave" unicode="&#xe8;" horiz-adv-x="666" 
d="M366 771l-7 -7q-53 6 -118 33t-115 60q21 73 85 100q43 -37 89.5 -89.5t65.5 -96.5zM43 10q26 0 44.5 18.5t19.5 44.5v554q-1 37 -32 55q-15 8 -32 8h-13v10h443q31 0 67.5 6t51.5 12v-206h-10v8q0 80 -58 112q-28 16 -67 17h-145v-279h109q48 1 78 31.5t30 78.5v4h10
v-278h-10v5q0 47 -30 77.5t-77 31.5h-110v-269h123q73 0 129 48t79 133h10l-38 -232h-585v10h13z" />
    <glyph glyph-name="eacute" unicode="&#xe9;" horiz-adv-x="666" 
d="M322 761l-7 7q19 44 65.5 96.5t89.5 89.5q64 -27 85 -100q-50 -33 -115 -60t-118 -33zM43 10q26 0 44.5 18.5t19.5 44.5v554q-1 26 -19.5 44.5t-44.5 18.5h-13v10h443q43 0 76.5 7t42.5 11v-206h-10v8q0 80 -58 112q-28 16 -67 17h-145v-279h109q48 1 78 31.5t30 78.5v4
h10v-278h-10v5q0 47 -30 77.5t-77 31.5h-110v-269h123q73 0 129 48t79 133h10l-38 -232h-585v10h13z" />
    <glyph glyph-name="ecircumflex" unicode="&#xea;" horiz-adv-x="666" 
d="M332 932h12l178 -176l-7 -8l-178 65l-167 -65l-7 8zM43 10q26 0 44.5 18.5t19.5 44.5v554q-1 26 -19.5 44.5t-44.5 18.5h-13v10h443q31 0 67.5 6t51.5 12v-206h-10v8q0 80 -58 112q-28 16 -67 17h-145v-279h109q48 1 78 31.5t30 78.5v4h10v-278h-10v5q0 47 -30 77.5
t-77 31.5h-110v-269h123q73 0 129 48t79 133h10l-38 -232h-585v10h13z" />
    <glyph glyph-name="edieresis" unicode="&#xeb;" horiz-adv-x="666" 
d="M204.5 755q-30.5 0 -52 22t-21.5 52.5t21.5 52t52 21.5t52 -21.5t21.5 -52t-21.5 -52.5t-52 -22zM466.5 755q-30.5 0 -52 22t-21.5 52.5t21.5 52t52 21.5t52 -21.5t21.5 -52t-21.5 -52.5t-52 -22zM43 10q26 0 44.5 18.5t19.5 44.5v554q-1 26 -19.5 44.5t-44.5 18.5h-13
v10h443q31 0 67.5 6t51.5 12v-206h-10v8q0 80 -58 112q-28 16 -67 17h-145v-279h109q48 1 78 31.5t30 78.5v4h10v-278h-10v5q0 47 -30 77.5t-77 31.5h-110v-269h123q73 0 129 48t79 133h10l-38 -232h-585v10h13z" />
    <glyph glyph-name="igrave" unicode="&#xec;" horiz-adv-x="418" 
d="M235 771l-7 -7q-53 6 -118 33t-115 60q22 73 85 100q44 -37 90 -89.5t65 -96.5zM43 10q26 0 44.5 18.5t19.5 44.5v555q-1 26 -19.5 44t-44.5 18h-13v10h359v-10h-13q-26 0 -44.5 -18t-19.5 -44v-555q1 -37 32 -55q15 -8 32 -8h13v-10h-359v10h13z" />
    <glyph glyph-name="iacute" unicode="&#xed;" horiz-adv-x="418" 
d="M191 761l-7 7q29 68 125 158q16 15 30 28q64 -27 85 -100q-50 -33 -115 -60t-118 -33zM43 10q26 0 44.5 18.5t19.5 44.5v555q-1 26 -19.5 44t-44.5 18h-13v10h359v-10h-13q-26 0 -44.5 -18t-19.5 -44v-555q0 -26 19 -44.5t45 -18.5h13v-10h-359v10h13z" />
    <glyph glyph-name="icircumflex" unicode="&#xee;" horiz-adv-x="418" 
d="M201 932h12l178 -176l-7 -8l-178 65l-167 -65l-7 8zM43 10q26 0 44.5 18.5t19.5 44.5v555q-1 26 -19.5 44t-44.5 18h-13v10h359v-10h-13q-26 0 -44.5 -18t-19.5 -44v-555q0 -26 19 -44.5t45 -18.5h13v-10h-359v10h13z" />
    <glyph glyph-name="idieresis" unicode="&#xef;" horiz-adv-x="418" 
d="M73.5 755q-30.5 0 -52 22t-21.5 52.5t21.5 52t52 21.5t52 -21.5t21.5 -52t-21.5 -52.5t-52 -22zM336.5 755q-30.5 0 -52.5 22t-22 52.5t22 52t52.5 21.5t52 -21.5t21.5 -52t-21.5 -52.5t-52 -22zM43 10q26 0 44.5 18.5t19.5 44.5v555q-1 26 -19.5 44t-44.5 18h-13v10h359
v-10h-13q-26 0 -44.5 -18t-19.5 -44v-555q0 -26 19 -44.5t45 -18.5h13v-10h-359v10h13z" />
    <glyph glyph-name="eth" unicode="&#xf0;" horiz-adv-x="842" 
d="M702.5 607.5q105.5 -92.5 105.5 -257.5t-105.5 -257.5t-293.5 -92.5h-379v10h13q26 0 44.5 18.5t19.5 44.5v252h-77v50h77v258q0 24 -19.5 40.5t-44.5 16.5h-12l-1 10h379q188 0 293.5 -92.5zM312 325v-275h77q94 0 149 79.5t55 220.5q0 93 -25 161t-71 103.5t-108 35.5
h-77v-275h108v-50h-108z" />
    <glyph glyph-name="ntilde" unicode="&#xf1;" horiz-adv-x="881" 
d="M607 919h12q6 -17 6 -36.5t-8 -38.5q-22 -50 -61 -68q-24 -12 -55.5 -12t-80.5 25q-50 25 -67.5 27.5t-32.5 2.5t-39 -16t-32 -36h-12q-4 14 -4 29q0 60 45 103q31 30 68.5 30t91.5 -27t99 -27q15 0 39.5 14.5t30.5 29.5zM843 690q-25 0 -43 -17.5t-19 -42.5v-516
q0 -74 10 -114l3 -14h-9l-479 426v-341q0 -26 18 -43.5t43 -17.5h19v-10h-366v10h19q25 0 43 17.5t18 43.5v519q0 70 -10 111l-3 14h10l479 -426v340q-1 26 -19 43.5t-43 17.5h-19v10h366v-10h-18z" />
    <glyph glyph-name="ograve" unicode="&#xf2;" horiz-adv-x="900" 
d="M477 785l-7 -7q-72 9 -161 52q-39 19 -72 41q22 73 86 100q61 -53 101 -104.5t53 -81.5zM450 714q129 0 222.5 -43t143.5 -125.5t50 -195.5q0 -171 -110.5 -267.5t-305 -96.5t-305 96.5t-110.5 267.5t110.5 267.5t304.5 96.5zM450.5 36q91.5 0 143 83t51.5 231t-51.5 231
t-143 83t-143 -83t-51.5 -231t51.5 -231t143 -83z" />
    <glyph glyph-name="oacute" unicode="&#xf3;" horiz-adv-x="900" 
d="M433 775l-7 7q19 44 65.5 96.5t89.5 89.5q64 -27 85 -100q-50 -33 -115 -60t-118 -33zM450 714q129 0 222.5 -43t143.5 -125.5t50 -195.5q0 -171 -110.5 -267.5t-305 -96.5t-305 96.5t-110.5 267.5t110.5 267.5t304.5 96.5zM450.5 36q91.5 0 143 83t51.5 231t-51.5 231
t-143 83t-143 -83t-51.5 -231t51.5 -231t143 -83z" />
    <glyph glyph-name="ocircumflex" unicode="&#xf4;" horiz-adv-x="900" 
d="M443 946h12l179 -176l-8 -8l-177 65l-168 -65l-7 8zM450 714q129 0 222.5 -43t143.5 -125.5t50 -195.5q0 -171 -111 -267.5t-305 -96.5t-304.5 96.5t-110.5 267.5t110.5 267.5t304.5 96.5zM450.5 36q91.5 0 143 83t51.5 231t-51.5 231t-143 83t-143 -83t-51.5 -231
t51.5 -231t143 -83z" />
    <glyph glyph-name="otilde" unicode="&#xf5;" horiz-adv-x="900" 
d="M645 933h13q6 -17 6 -36.5t-9 -38.5q-21 -50 -61 -68q-24 -12 -51.5 -12t-54.5 11q-26 11 -54 25t-44.5 16.5t-31 2.5t-38.5 -16t-32 -36h-13q-3 14 -3 29q0 60 44 103q31 30 68.5 30t92 -27t99.5 -27q14 0 38.5 14.5t30.5 29.5zM450 714q194 0 305 -96.5t111 -267.5
t-111 -267.5t-305 -96.5t-304.5 96.5t-110.5 267.5t110.5 267.5t304.5 96.5zM450.5 36q91.5 0 143 83t51.5 231t-51.5 231t-143 83t-143 -83t-51.5 -231t51.5 -231t143 -83z" />
    <glyph glyph-name="odieresis" unicode="&#xf6;" horiz-adv-x="900" 
d="M315.5 769q-30.5 0 -52 22t-21.5 52.5t21.5 52t52 21.5t52 -21.5t21.5 -52t-21.5 -52.5t-52 -22zM578.5 769q-30.5 0 -52.5 22t-22 52.5t22 52t52.5 21.5t52 -21.5t21.5 -52t-21.5 -52.5t-52 -22zM450 714q129 0 222.5 -43t143.5 -125.5t50 -195.5q0 -171 -111 -267.5
t-305 -96.5t-304.5 96.5t-110.5 267.5t110.5 267.5t304.5 96.5zM450.5 36q91.5 0 143 83t51.5 231t-51.5 231t-143 83t-143 -83t-51.5 -231t51.5 -231t143 -83z" />
    <glyph glyph-name="divide" unicode="&#xf7;" horiz-adv-x="481" 
d="M240.5 416q-21.5 0 -37 15.5t-15.5 37t15.5 36.5t37 15t37 -15t15.5 -36.5t-15.5 -37t-37 -15.5zM40 277v65h402v-65h-402zM240.5 100q-21.5 0 -37 15.5t-15.5 37t15.5 36.5t37 15t37 -15t15.5 -36.5t-15.5 -37t-37 -15.5z" />
    <glyph glyph-name="oslash" unicode="&#xf8;" horiz-adv-x="900" 
d="M866 350q0 -171 -111 -267.5t-305 -96.5q-143 0 -243 54l-54 -63l-44 36l50 58q-124 97 -124 273.5t110.5 273t304.5 96.5q130 0 224 -44l48 56l44 -34l-43 -50q143 -96 143 -292zM595 579q-51 85 -143.5 85t-144 -83t-51.5 -231q0 -83 16 -147zM450 36q92 0 143.5 83
t51.5 231q0 101 -24 173l-327 -381q52 -106 156 -106z" />
    <glyph glyph-name="ugrave" unicode="&#xf9;" horiz-adv-x="845" 
d="M510 771l-7 -7q-53 6 -118 33t-115 60q21 73 85 100q43 -37 89.5 -89.5t65.5 -96.5zM825 690h-16q-21 0 -36.5 -13.5t-16.5 -33.5v-386q0 -127 -78.5 -199t-220.5 -72q-180 0 -269 70t-89 200v384q0 30 -26 44q-12 6 -27 6h-16v10h343v-10h-16q-22 0 -37 -13.5t-16 -34.5
v-382q0 -105 48 -164t134 -59t134.5 55.5t48.5 154.5v395q-1 21 -16 34.5t-37 13.5h-16v10h225v-10z" />
    <glyph glyph-name="uacute" unicode="&#xfa;" horiz-adv-x="845" 
d="M466 761l-7 7q19 44 65.5 96.5t89.5 89.5q64 -27 85 -100q-50 -33 -115 -60t-118 -33zM825 690h-16q-21 0 -36.5 -13.5t-16.5 -33.5v-386q0 -127 -78.5 -199t-220.5 -72q-180 0 -269 70t-89 200v384q0 30 -26 44q-12 6 -27 6h-16v10h343v-10h-16q-22 0 -37 -13.5
t-16 -34.5v-382q0 -105 48 -164t134 -59t134.5 55.5t48.5 154.5v395q-1 33 -32 44q-10 4 -21 4h-16v10h225v-10z" />
    <glyph glyph-name="ucircumflex" unicode="&#xfb;" horiz-adv-x="845" 
d="M476 932h12l178 -176l-7 -8l-178 65l-167 -65l-7 8zM825 690h-16q-21 0 -36.5 -13.5t-16.5 -33.5v-386q0 -127 -78.5 -199t-220.5 -72q-121 0 -202 33q-156 63 -156 237v384q0 30 -26 44q-12 6 -27 6h-16v10h343v-10h-16q-22 0 -37 -13.5t-16 -34.5v-382q0 -105 48 -164
t134 -59t134.5 55.5t48.5 154.5v395q-1 21 -16 34.5t-37 13.5h-16v10h225v-10z" />
    <glyph glyph-name="udieresis" unicode="&#xfc;" horiz-adv-x="845" 
d="M348.5 755q-30.5 0 -52.5 22t-22 52.5t22 52t52.5 21.5t52 -21.5t21.5 -52t-21.5 -52.5t-52 -22zM610.5 755q-30.5 0 -52 22t-21.5 52.5t21.5 52t52 21.5t52 -21.5t21.5 -52t-21.5 -52.5t-52 -22zM825 690h-16q-21 0 -36.5 -13.5t-16.5 -33.5v-386q0 -127 -78.5 -199
t-220.5 -72q-180 0 -269 70t-89 200v384q0 22 -15.5 36t-37.5 14h-16v10h343v-10h-16q-22 0 -37 -13.5t-16 -34.5v-382q0 -105 48 -164t134 -59t134.5 55.5t48.5 154.5v395q-1 21 -16 34.5t-37 13.5h-16v10h225v-10z" />
    <glyph glyph-name="yacute" unicode="&#xfd;" horiz-adv-x="729" 
d="M418 761l-7 7q19 44 65.5 96.5t89.5 89.5q64 -27 85 -100q-50 -33 -115 -60t-118 -33zM775 690h-14q-30 0 -57.5 -17t-43.5 -42l-196 -309v-249q0 -26 18.5 -44.5t45.5 -18.5h12v-10h-358v10h13q26 0 44.5 18t19.5 44v250l-191 311q-15 24 -42.5 40.5t-56.5 16.5h-14v10
h386v-10h-12q-22 0 -34 -20q-6 -11 -6 -21.5t5 -20.5l137 -247l142 247q6 10 6 20.5t-7 20.5q-13 21 -34 21h-12v10h249v-10z" />
    <glyph glyph-name="thorn" unicode="&#xfe;" horiz-adv-x="707" 
d="M693 353q0 -46 -18.5 -89t-53.5 -72q-63 -51 -134 -51q-72 0 -136 46v10q36 6 54.5 19.5t29.5 24.5q25 27 33.5 63t8.5 51q0 79 -34 116t-91 37h-27v-435q0 -37 32 -55q14 -8 32 -8h12v-10h-358v10h12q27 0 45.5 18.5t19.5 44.5v555q-1 26 -19.5 44t-44.5 18h-13v10h358
v-10h-12q-26 0 -45 -18t-19 -44v-70h91q166 0 234 -79q43 -50 43 -126z" />
    <glyph glyph-name="ydieresis" unicode="&#xff;" horiz-adv-x="729" 
d="M300.5 755q-30.5 0 -52.5 22t-22 52.5t22 52t52.5 21.5t52 -21.5t21.5 -52t-21.5 -52.5t-52 -22zM562.5 755q-30.5 0 -52 22t-21.5 52.5t21.5 52t52 21.5t52 -21.5t21.5 -52t-21.5 -52.5t-52 -22zM775 690h-14q-30 0 -57.5 -17t-43.5 -42l-196 -309v-249
q0 -26 18.5 -44.5t45.5 -18.5h12v-10h-358v10h13q26 0 44.5 18t19.5 44v250l-191 311q-15 24 -42.5 40.5t-56.5 16.5h-14v10h386v-10h-12q-22 0 -34 -20q-7 -11 -7 -21.5t6 -20.5l137 -247l142 247q6 10 6 20t-7 21q-13 21 -34 21h-12v10h249v-10z" />
    <glyph glyph-name="Amacron" unicode="&#x100;" horiz-adv-x="702" 
d="M187 815v85h290v-85h-290zM978 -171q-77 -45 -157 -45t-151.5 30t-140 104.5t-112.5 181.5l-27 66h-214l-40 -93q-5 -13 -5 -21t3.5 -17.5t15 -17t24.5 -7.5h9v-10h-223v10h9q23 0 45.5 13.5t37.5 40.5l204 448q-30 83 -49.5 111.5t-32.5 43.5q-24 28 -60 41q-14 5 -33 5
t-43 -9l-2 10q80 47 153 47q108 0 195 -106q44 -55 79 -133l160 -367q44 -101 65 -135.5t37.5 -59t32.5 -42.5t35 -35q33 -30 83 -45q21 -7 46.5 -7t53.5 8zM198 216h172l-63 155q-8 18 -19 51z" />
    <glyph glyph-name="amacron" unicode="&#x101;" horiz-adv-x="720" 
d="M208 795v85h290v-85h-290zM752 10h8v-10h-379v10h9q22 0 33 13.5t11 25t-5 24.5l-39 93h-214l-40 -93q-5 -13 -5 -21t3.5 -17.5t15 -17t24.5 -7.5h9v-10h-223v10h9q23 0 45.5 13.5t37.5 40.5l233 511q53 112 57 149h9l317 -659q32 -55 84 -55zM198 216h171l-84 200z" />
    <glyph glyph-name="Abreve" unicode="&#x102;" horiz-adv-x="702" 
d="M472 917q0 -46 -33 -83q-43 -50 -110 -50q-44 0 -80 23t-49.5 54.5t-13.5 51.5t3 35h13q12 -28 47.5 -46t79 -18t79.5 18t48 46h12q4 -16 4 -31zM978 -171q-77 -44 -157 -44t-151.5 29.5t-140 104t-112.5 181.5l-27 66h-214l-40 -93q-5 -13 -5 -21t3.5 -17.5t15 -17
t25.5 -7.5h8v-10h-223v10h9q23 0 45.5 13.5t37.5 40.5l204 448q-30 83 -49.5 111.5t-32.5 43.5q-24 28 -60 41q-14 5 -33 5t-43 -9l-2 10q80 47 153 47q108 0 195 -106q44 -54 79 -133l160 -367q44 -101 65 -135.5t37.5 -59t32.5 -42.5t35 -35q33 -30 83 -45q21 -7 46.5 -7
t53.5 8zM198 216h172l-63 155q-8 18 -19 51z" />
    <glyph glyph-name="abreve" unicode="&#x103;" horiz-adv-x="720" 
d="M493 897q0 -46 -32 -83q-44 -50 -111 -50t-110 50q-33 38 -33 83q0 15 4 31h12q12 -28 47.5 -46t79 -18t79.5 18t48 46h13q3 -16 3 -31zM752 10h8v-10h-379v10h9q22 0 33 13.5t11 25t-5 24.5l-39 93h-214l-40 -93q-5 -13 -5 -21t3.5 -17.5t15 -17t24.5 -7.5h9v-10h-223
v10h9q23 0 45.5 13.5t37.5 40.5l233 511q53 112 57 149h9l317 -659q32 -55 84 -55zM198 216h171l-84 200z" />
    <glyph glyph-name="Aogonek" unicode="&#x104;" horiz-adv-x="682" 
d="M978 -171q-77 -45 -167 -45q-125 0 -232 87q-64 52 -112 130q-50 -17 -50 -65q0 -53 40 -68q10 -4 28 -4t44 21l6 -6q-4 -64 -61 -82q-18 -5 -43 -5t-57 22q-44 31 -44 83q0 64 47 91q35 21 78 21h7q-25 42 -45 91l-27 66h-214l-40 -93q-5 -13 -5 -21t3.5 -17.5t15 -17
t24.5 -7.5h9v-10h-223v10h9q23 0 45.5 13.5t37.5 40.5l201 440q-68 153 -147 182q-19 7 -41.5 7t-46.5 -9l-2 10q91 56 171 56q173 0 283 -248l153 -347q45 -102 65.5 -136t37 -58.5t33 -42t35.5 -35.5q32 -30 82 -45q21 -7 46.5 -7t53.5 8zM198 216h172l-83 205z" />
    <glyph glyph-name="aogonek" unicode="&#x105;" horiz-adv-x="720" 
d="M720 2.5q-39 2.5 -65.5 4t-45.5 1.5q-75 0 -108 -8q-64 -15 -64 -65q0 -51 40 -67q11 -4 29 -4t43 21l6 -6q-3 -63 -60 -81q-17 -5 -42.5 -5t-57.5 21q-46 30 -46 81q0 41 19 63q6 6 8 9t10.5 9.5t10 7.5t12.5 8t12 8q18 12 18 28.5t-9 40.5l-42 97h-210l-43 -95
q-11 -28 4 -45q14 -16 35 -16h9v-10h-223v10h9q25 0 49 15.5t39 47.5l228 492q53 112 57 149h9l313 -641q10 -21 26 -34q24 -20 70 -29v-10q-1 0 -40 2.5zM200 216h167l-82 192z" />
    <glyph glyph-name="Cacute" unicode="&#x106;" horiz-adv-x="830" 
d="M435 761l-7 7q19 44 65.5 96.5t89.5 89.5q64 -27 85 -100q-50 -33 -115 -60t-118 -33zM815 402q6 -40 6 -85t-12 -93q-38 -151 -181 -210q-68 -28 -150 -28q-225 0 -346.5 98t-121.5 264.5t126 266t342 99.5q150 0 258 -45l-10 -192h-9q-52 187 -234 187
q-121 0 -187 -81.5t-66 -225.5t69 -230.5t199 -90.5q143 0 226 92.5t83 249.5v24h8z" />
    <glyph glyph-name="cacute" unicode="&#x107;" horiz-adv-x="793" 
d="M419 761l-7 7q19 44 65.5 96.5t89.5 89.5q64 -27 85 -100q-50 -33 -115 -60t-118 -33zM35 351q0 113 52 195t150.5 125t241.5 43t251 -46l-10 -191h-9q-29 101 -84 144t-137 43q-111 0 -173 -82t-62 -228.5t57.5 -230.5t159.5 -87q118 0 171 56q50 52 78 200h8l24 -182
q-74 -124 -279.5 -123.5t-322 96t-116.5 268.5z" />
    <glyph glyph-name="Cdotaccent" unicode="&#x10a;" horiz-adv-x="830" 
d="M452 764q-31 0 -52.5 21.5t-21.5 52t21.5 52t52.5 21.5t52.5 -21.5t21.5 -52t-21.5 -52t-52.5 -21.5zM815 402q6 -40 6 -85t-12 -93q-38 -151 -181 -210q-68 -28 -150 -28q-225 0 -346.5 98t-121.5 264.5t126 266t342 99.5q150 0 258 -46l-10 -191h-9q-52 187 -234 187
q-121 0 -187 -81.5t-66 -225.5t69 -230.5t199 -90.5q143 0 226 92.5t83 249.5v24h8z" />
    <glyph glyph-name="cdotaccent" unicode="&#x10b;" horiz-adv-x="793" 
d="M436 764q-31 0 -52.5 21.5t-21.5 52t21.5 52t52.5 21.5t52.5 -21.5t21.5 -52t-21.5 -52t-52.5 -21.5zM35 351q0 113 52 195t150.5 125t241.5 43t251 -46l-10 -191h-9q-29 101 -84 144t-137 43q-111 0 -173 -82t-62 -228.5t57.5 -230.5t159.5 -87q118 0 171 56
q50 52 78 200h8l24 -182q-74 -124 -279.5 -123.5t-322 96t-116.5 268.5z" />
    <glyph glyph-name="Ccaron" unicode="&#x10c;" horiz-adv-x="830" 
d="M459 764h-12l-169 175l7 8l168 -64l158 64l7 -8zM815 402q6 -40 6 -85t-12 -93q-38 -152 -181 -210q-68 -28 -150 -28q-225 0 -346.5 98t-121.5 264.5t126 266t342 99.5q150 0 258 -46l-10 -191h-9q-52 187 -234 187q-121 0 -187 -81.5t-66 -225.5t69 -230.5t199 -90.5
q143 0 226 92.5t83 249.5v24h8z" />
    <glyph glyph-name="ccaron" unicode="&#x10d;" horiz-adv-x="793" 
d="M443 764h-12l-169 175l7 8l168 -64l158 64l7 -8zM35 351q0 113 52 195t150.5 125t241.5 43t251 -46l-10 -191h-9q-29 101 -84 144t-137 43q-111 0 -173 -82t-62 -228.5t57.5 -230.5t159.5 -87q118 0 171 56q50 52 78 200h8l24 -182q-74 -124 -279.5 -123.5t-322 96
t-116.5 268.5z" />
    <glyph glyph-name="Dcaron" unicode="&#x10e;" horiz-adv-x="878" 
d="M464 764h-12l-169 175l7 8l169 -64l157 64l7 -8zM445 0h-379v10h13q26 0 44.5 18.5t19.5 44.5v571q-105 -11 -159 -59q-46 -41 -74 -105l-10 4q20 108 103.5 162t209.5 54h232q188 0 293.5 -92.5t105.5 -257.5t-106 -257.5t-293 -92.5zM348 50h77v0q93 0 146 79.5
t53 220.5t-53 220.5t-146 79.5l-77 -2v-598z" />
    <glyph glyph-name="dcaron" unicode="&#x10f;" horiz-adv-x="842" 
d="M428 764h-12l-169 176l7 8l169 -65l157 64l7 -8zM702.5 607.5q105.5 -92.5 105.5 -257.5t-105.5 -257.5t-293.5 -92.5h-379v10h13q26 0 44.5 18.5t19.5 44.5v560q0 24 -19.5 40.5t-44.5 16.5h-13v10h379q188 0 293.5 -92.5zM312 650v-600h77q93 0 146 79.5t53 220.5
t-53 220.5t-146 79.5h-77z" />
    <glyph glyph-name="Dcroat" unicode="&#x110;" horiz-adv-x="878" 
d="M315 795v85h290v-85h-290zM445 0h-379v10h13q26 0 44.5 18.5t19.5 44.5v571q-105 -11 -159 -59q-46 -41 -74 -105l-10 4q14 72 58 121q84 95 255 95h232q188 0 293.5 -92.5t105.5 -257.5t-106 -257.5t-293 -92.5zM348 50h77v0q93 0 146 79.5t53 220.5t-53 220.5
t-146 79.5l-77 -2v-598z" />
    <glyph glyph-name="dcroat" unicode="&#x111;" horiz-adv-x="842" 
d="M279 795v85h290v-85h-290zM702.5 607.5q105.5 -92.5 105.5 -257.5t-105.5 -257.5t-293.5 -92.5h-379v10h13q26 0 44.5 18.5t19.5 44.5v560q0 24 -19.5 40.5t-44.5 16.5h-12l-1 10h379q188 0 293.5 -92.5zM312 650v-600h77q93 0 146 79.5t53 220.5t-52.5 220.5
t-146.5 79.5h-77z" />
    <glyph glyph-name="Emacron" unicode="&#x112;" horiz-adv-x="712" 
d="M137 795v85h290v-85h-290zM43 10q26 0 44.5 18.5t19.5 44.5v554q-1 32 -27 51q-16 12 -37 12h-13v10h333q43 0 76.5 7t42.5 11v-206h-10v8q0 59 -33 93t-92 36h-35v-279h139q48 1 78 31.5t30 78.5v4h10v-278h-10v5q0 47 -30 77.5t-77 31.5h-140v-269h183q73 0 129 48
t79 133h10l-38 -232h-645v10h13z" />
    <glyph glyph-name="emacron" unicode="&#x113;" horiz-adv-x="666" 
d="M197 795v85h290v-85h-290zM43 10q26 0 44.5 18.5t19.5 44.5v554q-1 32 -27 51q-16 12 -37 12h-13v10h443q31 0 67.5 6t51.5 12v-206h-10v8q0 80 -58 112q-28 16 -67 17h-145v-279h109q48 1 78 31.5t30 78.5v4h10v-278h-10v5q0 47 -30 77.5t-77 31.5h-110v-269h123
q73 0 129 48t79 133h10l-38 -232h-585v10h13z" />
    <glyph glyph-name="Edotaccent" unicode="&#x116;" horiz-adv-x="712" 
d="M279.5 764q-30.5 0 -52.5 21.5t-22 52t22 52t52.5 21.5t52 -21.5t21.5 -52t-21.5 -52t-52 -21.5zM43 10q26 0 44.5 18.5t19.5 44.5v554q-1 32 -27 51q-16 12 -37 12h-13v10h333q31 0 67.5 6t51.5 12v-206h-10v8q0 59 -33 93t-92 36h-35v-279h139q48 1 78 31.5t30 78.5v4
h10v-278h-10v5q0 47 -30 77.5t-77 31.5h-140v-269h183q73 0 129 48t79 133h10l-38 -232h-645v10h13z" />
    <glyph glyph-name="edotaccent" unicode="&#x117;" horiz-adv-x="666" 
d="M339.5 764q-30.5 0 -52.5 21.5t-22 52t22 52t52.5 21.5t52 -21.5t21.5 -52t-21.5 -52t-52 -21.5zM43 10q26 0 44.5 18.5t19.5 44.5v554q-1 32 -27 51q-16 12 -37 12h-13v10h443q31 0 67.5 6t51.5 12v-206h-10v8q0 80 -58 112q-28 16 -67 17h-145v-279h109q48 1 78 31.5
t30 78.5v4h10v-278h-10v5q0 47 -30 77.5t-77 31.5h-110v-269h123q73 0 129 48t79 133h10l-38 -232h-585v10h13z" />
    <glyph glyph-name="Eogonek" unicode="&#x118;" horiz-adv-x="712" 
d="M727 -126q-6 -87 -104 -87q-25 0 -57 22q-44 31 -44 83q0 50 27.5 75.5t61.5 32.5h-581v10h13q26 0 44.5 18.5t19.5 44.5v554q-1 32 -27 51q-16 12 -37 12h-13v10h333q43 0 76.5 7t42.5 11v-206h-10v8q0 59 -33 93t-92 36h-35v-279h139q48 1 78 31.5t30 78.5v4h10v-278
h-10v5q0 47 -30 77.5t-77 31.5h-140v-269h183q73 0 129 48t79 133h10l-38 -232h-2q-64 -15 -64 -69q0 -53 39 -68q11 -4 29 -4t44 21z" />
    <glyph glyph-name="eogonek" unicode="&#x119;" horiz-adv-x="666" 
d="M667 -126q-6 -87 -104 -87q-25 0 -57 22q-44 31 -44 83q0 50 27.5 75.5t61.5 32.5h-521v10h13q26 0 44.5 18.5t19.5 44.5v554q-1 32 -27 51q-16 12 -37 12h-13v10h443q43 0 76.5 7t42.5 11v-206h-10v8q0 80 -58 112q-28 16 -67 17h-145v-279h109q48 1 78 31.5t30 78.5v4
h10v-278h-10v5q0 47 -30 77.5t-77 31.5h-110v-269h123q73 0 129 48t79 133h10l-38 -232h-2q-64 -15 -64 -69q0 -53 39 -68q11 -4 29 -4t44 21z" />
    <glyph glyph-name="Ecaron" unicode="&#x11a;" horiz-adv-x="712" 
d="M286 764h-12l-169 175l7 8l168 -64l158 64l7 -8zM43 10q26 0 44.5 18.5t19.5 44.5v554q-1 32 -27 51q-16 12 -37 12h-13v10h333q43 0 76.5 7t42.5 11v-206h-10v8q0 59 -33 93t-92 36h-35v-279h139q48 1 78 31.5t30 78.5v4h10v-278h-10v5q0 47 -30 77.5t-77 31.5h-140
v-269h183q73 0 129 48t79 133h10l-38 -232h-645v10h13z" />
    <glyph glyph-name="ecaron" unicode="&#x11b;" horiz-adv-x="666" 
d="M346 764h-12l-169 175l7 8l168 -64l158 64l7 -8zM43 10q26 0 44.5 18.5t19.5 44.5v554q-1 32 -27 51q-16 12 -37 12h-13v10h443q43 0 76.5 7t42.5 11v-206h-10v8q0 80 -58 112q-28 16 -67 17h-145v-279h109q48 1 78 31.5t30 78.5v4h10v-278h-10v5q0 47 -30 77.5t-77 31.5
h-110v-269h123q73 0 129 48t79 133h10l-38 -232h-585v10h13z" />
    <glyph glyph-name="Gbreve" unicode="&#x11e;" horiz-adv-x="872" 
d="M570 897q0 -46 -33 -83q-43 -50 -110.5 -50t-110.5 50q-32 38 -32 83q0 15 3 31h13q19 -44 84 -59q21 -5 53.5 -5t68.5 18t48 46h12q4 -16 4 -31zM947 -212q-24 0 -48 3q-100 16 -173 75t-109 147q-87 -27 -183 -27q-189 0 -306.5 100.5t-117.5 264.5t120 263.5t316 99.5
q81 0 167 -13.5t131 -31.5l-10 -192h-9q-24 94 -94.5 140.5t-170.5 46.5t-165 -88t-65 -232q0 -91 28 -161t80 -108.5t115.5 -38.5t100 29.5t36.5 77.5v136q0 22 -13 34t-38 12h-15v10h336v-10h-16q-24 0 -37 -12t-12 -34v-162q0 -58 23 -115q52 -126 166 -162
q33 -10 66 -10t65 7l2 -10q-90 -39 -170 -39z" />
    <glyph glyph-name="gbreve" unicode="&#x11f;" horiz-adv-x="861" 
d="M569 897q0 -46 -33 -83q-43 -50 -110.5 -50t-110.5 50q-32 38 -32 83q0 15 3 31h13q12 -28 47.5 -46t79 -18t79.5 18t48 46h13q3 -16 3 -31zM425 -14q-179 0 -284.5 97.5t-105.5 268t106 266.5t294 96q81 0 167 -13.5t131 -32.5l-10 -191h-9q-52 187 -229 187
q-230 0 -230 -322q0 -146 47.5 -226t144.5 -80q53 0 92.5 28.5t39.5 78.5l1 137q0 22 -13.5 33.5t-37.5 11.5h-16v10h336v-10h-15q-25 0 -38 -11.5t-12 -33.5v-165q-56 -71 -203 -109q-76 -20 -156 -20z" />
    <glyph glyph-name="Gdotaccent" unicode="&#x120;" horiz-adv-x="872" 
d="M427 764q-31 0 -52.5 21.5t-21.5 52t21.5 52t52.5 21.5t52.5 -21.5t21.5 -52t-21.5 -52t-52.5 -21.5zM947 -212q-24 0 -48 3q-100 16 -173 75t-109 147q-87 -27 -183 -27q-189 0 -306.5 100.5t-117.5 264.5t120 263.5t316 99.5q113 0 220 -23q48 -10 78 -22l-10 -192h-9
q-24 94 -94.5 140.5t-170.5 46.5t-165 -88t-65 -232q0 -91 28 -161t80 -108.5t115.5 -38.5t100 29.5t36.5 77.5v136q1 22 -12.5 34t-38.5 12h-15v10h336v-10h-16q-24 0 -37 -12t-12 -34v-162q0 -58 23 -115q52 -126 166 -162q33 -10 66 -10t65 7l2 -10q-90 -39 -170 -39z
" />
    <glyph glyph-name="gdotaccent" unicode="&#x121;" horiz-adv-x="861" 
d="M426 764q-31 0 -52.5 21.5t-21.5 52t21.5 52t52.5 21.5t52.5 -21.5t21.5 -52t-21.5 -52t-52.5 -21.5zM425 -14q-179 0 -284.5 97.5t-105.5 268t106 266.5t294 96q81 0 167 -13.5t131 -32.5l-10 -191h-9q-52 187 -229 187q-230 0 -230 -322q0 -146 47.5 -226t144.5 -80
q53 0 92.5 28.5t39.5 78.5l1 137q0 22 -13.5 33.5t-37.5 11.5h-16v10h336v-10h-15q-25 0 -38 -11.5t-12 -33.5v-165q-56 -71 -203 -109q-76 -20 -156 -20z" />
    <glyph glyph-name="Gcommaaccent" unicode="&#x122;" horiz-adv-x="872" 
d="M947 -212q-24 0 -48 3q-100 16 -173 75t-109 147q-87 -27 -183 -27q-189 0 -306.5 100.5t-117.5 264.5t120 263.5t316 99.5q113 0 220 -23q48 -10 78 -22l-10 -192h-9q-24 94 -94.5 140.5t-170.5 46.5t-165 -88t-65 -232q0 -91 28 -161t80 -108.5t115.5 -38.5t100 29.5
t36.5 77.5v136q1 22 -12.5 34t-38.5 12h-15v10h336v-10h-16q-24 0 -37 -12t-12 -34v-162q0 -58 23 -115q52 -126 166 -162q33 -10 66 -10t65 7l2 -10q-90 -39 -170 -39zM394 -264q32 14 32 41.5t-18 48t-18 46.5q0 35 23 52q16 12 31 12q51 0 70 -41q11 -23 11 -39
t-3.5 -36.5t-20 -46t-40.5 -37t-39.5 -11.5t-24.5 2z" />
    <glyph glyph-name="gcommaaccent" unicode="&#x123;" horiz-adv-x="861" 
d="M425 -14q-179 0 -284.5 97.5t-105.5 268t106 266.5t294 96q81 0 167 -13.5t131 -32.5l-10 -191h-9q-52 187 -229 187q-230 0 -230 -322q0 -146 47.5 -226t144.5 -80q53 0 92.5 28.5t39.5 78.5l1 137q0 22 -13.5 33.5t-37.5 11.5h-16v10h336v-10h-15q-25 0 -38 -11.5
t-12 -33.5v-165q-56 -71 -203 -109q-76 -20 -156 -20zM383 -264q32 14 32 41.5t-18 48t-18 46.5q0 35 23 52q16 12 31 12q51 0 70 -41q11 -23 11 -39t-3.5 -36.5t-20 -46t-40.5 -37t-39.5 -11.5t-24.5 2z" />
    <glyph glyph-name="Hbar" unicode="&#x126;" horiz-adv-x="893" 
d="M785 538h68v-50h-68v-415q0 -35 31 -54q15 -9 33 -9h12v-10h-358v10h12q27 0 45.5 18.5t19.5 44.5v252h-268v-255q0 -99 -48 -176q-50 -81 -159 -93q-11 -2 -24 -2q-47 0 -105 19v10q80 31 106 86q18 37 21 67q4 39 4 89v418h-65v50h65v90q-1 26 -19.5 44t-44.5 18h-13
v10h359v-10h-13q-36 0 -54 -30q-9 -14 -10 -31v-91h268v72q0 57 24 110t68 91q69 61 164 61q37 0 78 -10v-10q-64 -20 -91 -61q-21 -32 -26 -53.5t-7 -33t-3 -32.5q-2 -25 -2 -62v-72zM580 375v113h-268v-113h268z" />
    <glyph glyph-name="hbar" unicode="&#x127;" horiz-adv-x="893" 
d="M517 10q26 0 44.5 18t19.5 44v253h-269v-252q1 -37 32 -55q15 -8 32 -8h13v-10h-359v10h13q26 0 44.5 18.5t19.5 44.5v415h-65v50h65v90q-1 26 -19.5 44t-44.5 18h-13v10h359v-10h-13q-26 0 -44.5 -18t-19.5 -44v-90h269v90q-1 26 -19.5 44t-44.5 18h-13v10h359v-10h-13
q-36 0 -55 -31q-8 -15 -9 -32v-89h67v-50h-67v-415q1 -26 19.5 -44.5t44.5 -18.5h13v-10h-359v10h13zM312 375h269v113h-269v-113z" />
    <glyph glyph-name="Imacron" unicode="&#x12a;" horiz-adv-x="498" 
d="M146 795v85h290v-85h-290zM456 10h13v-10h-359v10h13q26 0 44.5 18.5t19.5 44.5v577l-87 -3q-84 -3 -90 -62v-6q0 -28 19 -45t48 -17h12v-6q-22 -12 -43.5 -12t-43.5 13q-42 25 -42 74q0 46 36 76.5t113 33.5q11 1 70.5 3t102.5 3q124 6 187 18l2 -10q-56 -9 -71 -48
q-7 -19 -8 -48v-541q0 -26 19 -44.5t45 -18.5z" />
    <glyph glyph-name="imacron" unicode="&#x12b;" horiz-adv-x="418" 
d="M66 795v85h290v-85h-290zM43 10q26 0 44.5 18.5t19.5 44.5v555q-1 26 -19.5 44t-44.5 18h-13v10h359v-10h-13q-26 0 -44.5 -18t-19.5 -44v-555q0 -26 19 -44.5t45 -18.5h13v-10h-359v10h13z" />
    <glyph glyph-name="Iogonek" unicode="&#x12e;" horiz-adv-x="498" 
d="M339 -143q18 0 44 21l6 -6q-4 -64 -61 -82q-17 -5 -42.5 -5t-57.5 22q-44 31 -44 83q0 53 30.5 78.5t67.5 31.5h-172v10h13q26 0 44.5 18.5t19.5 44.5v577l-87 -3q-84 -3 -90 -62v-6q0 -28 19 -45t48 -17h12v-6q-22 -12 -43.5 -12t-43.5 13q-42 25 -42 74q0 46 36 76.5
t113 33.5q14 1 54 2t77 2.5t80 4.5q95 5 149 15l2 -10q-56 -9 -71 -48q-7 -19 -8 -48v-541q0 -26 19 -44.5t45 -18.5h13v-10h-139l6 -2q-65 -14 -65 -68q0 -73 68 -73z" />
    <glyph glyph-name="iogonek" unicode="&#x12f;" horiz-adv-x="418" 
d="M250 0q-33 -9 -46 -29.5t-13 -33.5q0 -61 40 -76q10 -4 28 -4t44 21l6 -6q-4 -64 -61 -82q-17 -5 -42.5 -5t-57.5 22q-44 31 -44 83q0 53 30.5 78.5t67.5 31.5h-172v10h13q26 0 44.5 18.5t19.5 44.5v555q-1 26 -19.5 44t-44.5 18h-13v10h359v-10h-13q-26 0 -44.5 -18
t-19.5 -44v-555q0 -26 19 -44.5t45 -18.5h13v-10h-139z" />
    <glyph glyph-name="Idotaccent" unicode="&#x130;" horiz-adv-x="498" 
d="M288.5 764q-30.5 0 -52 21.5t-21.5 52t21.5 52t52 21.5t52 -21.5t21.5 -52t-21.5 -52t-52 -21.5zM456 10h13v-10h-359v10h13q26 0 44.5 18.5t19.5 44.5v577l-87 -3q-84 -3 -90 -62v-6q0 -28 19 -45t48 -17h12v-6q-22 -12 -43.5 -12t-43.5 13q-42 25 -42 74q0 46 36 76.5
t113 33.5q11 1 70.5 3t102.5 3q124 6 187 18l2 -10q-56 -9 -71 -48q-7 -19 -8 -48v-541q0 -26 19 -44.5t45 -18.5z" />
    <glyph glyph-name="dotlessi" unicode="&#x131;" horiz-adv-x="418" 
d="M43 10q26 0 44.5 18.5t19.5 44.5v555q-1 26 -19.5 44t-44.5 18h-13v10h359v-10h-13q-26 0 -44.5 -18t-19.5 -44v-555q0 -26 19 -44.5t45 -18.5h13v-10h-359v10h13z" />
    <glyph glyph-name="IJ" unicode="&#x132;" horiz-adv-x="922" 
d="M456 10h13v-10h-359v10h13q26 0 44.5 18.5t19.5 44.5v577l-87 -3q-84 -3 -90 -62v-6q0 -28 19 -45t48 -17h12v-6q-22 -12 -43.5 -12t-43.5 13q-42 25 -42 74q0 46 36 76.5t113 33.5q11 1 70.5 3t102.5 3q124 6 187 18l2 -10q-56 -9 -71 -48q-7 -19 -8 -48v-541
q0 -26 19 -44.5t45 -18.5zM879 690q-36 0 -55 -31q-8 -14 -9 -32v-547q0 -80 -25.5 -147t-75.5 -110q-51 -43 -124.5 -43t-166.5 50l2 9q16 -3 32 -3t37.5 4.5t40.5 18t33 35.5t22 44.5t13 49.5q7 44 7 95v544q-1 26 -19.5 44.5t-44.5 18.5h-13v10h359v-10h-13z" />
    <glyph glyph-name="ij" unicode="&#x133;" horiz-adv-x="842" 
d="M799 690q-36 0 -55 -31q-8 -14 -9 -32v-577q0 -82 -46.5 -144t-120.5 -89q-53 -20 -110 -20q-22 0 -45 3v9q117 53 117 244v574q-1 26 -19.5 44.5t-44.5 18.5h-13v10h359v-10h-13zM43 10q26 0 44.5 18.5t19.5 44.5v555q-1 26 -19.5 44t-44.5 18h-13v10h359v-10h-13
q-26 0 -44.5 -18t-19.5 -44v-555q1 -36 32 -55q15 -8 32 -8h13v-10h-359v10h13z" />
    <glyph glyph-name="Kcommaaccent" unicode="&#x136;" horiz-adv-x="822" 
d="M43 10q26 0 44.5 18.5t19.5 44.5v555q-1 26 -19.5 44t-44.5 18h-13v10h359v-10h-13q-26 0 -44.5 -18t-19.5 -44v-555q0 -26 19 -44.5t45 -18.5h13v-10h-359v10h13zM1105 -177q-99 -56 -191 -56q-130 0 -255 130q-46 48 -95 116l-220 305l239 326q7 10 7 18t-3 14
q-7 15 -28 15h-10v9h241v-9h-4q-67 0 -110 -49l-171 -207l229 -322q109 -153 187.5 -212t181.5 -67zM409 -200q31 14 31 41.5t-18 48t-18 46.5q0 35 24 52q16 12 30 12q52 0 71 -41q11 -23 11 -39t-3.5 -36.5t-20 -46t-41 -37t-39.5 -11.5t-25 2z" />
    <glyph glyph-name="kcommaaccent" unicode="&#x137;" horiz-adv-x="821" 
d="M43 10q26 0 44.5 18.5t19.5 44.5v555q-1 26 -19.5 44t-44.5 18h-13v10h359v-10h-13q-26 0 -44.5 -18t-19.5 -44v-555q0 -26 19 -44.5t45 -18.5h13v-10h-359v10h13zM848 0h-108q-184 0 -257 100q-30 40 -84.5 128.5t-54.5 89.5l239 326q7 10 7 18t-3 14q-7 15 -28 15h-10
v9h241v-9h-4q-67 0 -110 -49l-169 -204l234 -352q49 -74 107 -76v-10zM409 -200q31 14 31 41.5t-18 48t-18 46.5q0 35 24 52q16 12 30 12q52 0 71 -41q11 -23 11 -39t-3.5 -36.5t-20 -46t-41 -37t-39.5 -11.5t-25 2z" />
    <glyph glyph-name="Lacute" unicode="&#x139;" horiz-adv-x="445" 
d="M193 761l-7 7q29 68 124 158q16 15 31 28q64 -27 85 -100q-50 -33 -115 -60t-118 -33zM914 -133q125 0 173 43l8 -7q-44 -95 -126 -141q-51 -28 -150 -28q-10 0 -34.5 1t-79 16.5t-91.5 28t-93 38.5q-70 33 -134 66.5t-93.5 48.5t-61.5 28.5t-88 26t-114 12.5v10h13
q36 0 55 31q8 14 9 32v554q-1 27 -19.5 45t-44.5 18h-13v10h359v-10h-9q-29 0 -48 -18t-20 -45v-582q0 -47 38 -59q387 -119 564 -119z" />
    <glyph glyph-name="lacute" unicode="&#x13a;" horiz-adv-x="652" 
d="M193 761l-7 7q29 68 124 158q16 15 31 28q64 -27 85 -100q-50 -33 -115 -60t-118 -33zM43 10q26 0 44.5 18.5t19.5 44.5v554q-1 26 -19.5 44.5t-44.5 18.5h-13v10h359v-10h-13q-26 0 -45 -18.5t-19 -44.5v-576h123q73 0 129 48t79 133h10l-38 -232h-585v10h13z" />
    <glyph glyph-name="Lcommaaccent" unicode="&#x13b;" horiz-adv-x="445" 
d="M914 -133q125 0 173 43l8 -7q-44 -95 -126 -141q-51 -28 -150 -28q-10 0 -34.5 1t-79 16.5t-91.5 28t-93 38.5q-70 33 -134 66.5t-93.5 48.5t-61.5 28.5t-88 26t-114 12.5v10h13q36 0 55 31q8 14 9 32v554q-1 37 -33 55q-14 8 -31 8h-13v10h359v-10h-9q-29 0 -48 -18
t-20 -45v-582q0 -47 38 -59q387 -119 564 -119zM212 -314q32 14 32 41.5t-18 48t-18 46.5q0 35 24 52q16 12 30 12q52 0 71 -41q11 -23 11 -39t-3.5 -36.5t-20 -46t-41 -37t-39.5 -11.5t-25 2z" />
    <glyph glyph-name="lcommaaccent" unicode="&#x13c;" horiz-adv-x="652" 
d="M43 10q26 0 44.5 18.5t19.5 44.5v554q-1 37 -32 55q-15 8 -32 8h-13v10h359v-10h-13q-26 0 -45 -18.5t-19 -44.5v-576h123q73 0 129 48t79 133h10l-38 -232h-585v10h13zM292 -264q32 14 32 41.5t-18 48t-18 46.5q0 35 24 52q16 12 30 12q52 0 71 -41q11 -23 11 -39
t-3.5 -36.5t-20 -46t-41 -37t-39.5 -11.5t-25 2z" />
    <glyph glyph-name="Lcaron" unicode="&#x13d;" horiz-adv-x="545" 
d="M432 509q31 14 31 41.5t-18 48t-18 46.5q0 35 24 52q16 12 30 12q52 0 71 -41q11 -23 11 -39t-3.5 -36.5t-20 -46t-41 -37t-39.5 -11.5t-25 2zM871 -143q78 0 216 53l8 -7q-73 -129 -196 -147q-30 -5 -49 -5t-42.5 1.5t-69.5 13t-83.5 25t-86 34.5t-84.5 38
q-115 57 -160 77q-130 60 -294 60v10h13q26 0 44.5 18.5t19.5 44.5v554q-1 37 -33 55q-14 8 -31 8h-13v10h359v-10h-13q-36 0 -55 -31q-9 -14 -9 -32v-572q0 -32 8 -47t30 -22q322 -107 414 -119q72 -10 107 -10z" />
    <glyph glyph-name="lcaron" unicode="&#x13e;" horiz-adv-x="652" 
d="M432 509q31 14 31 41.5t-18 48t-18 46.5q0 35 24 52q16 12 30 12q52 0 71 -41q11 -23 11 -39t-3.5 -36.5t-20 -46t-41 -37t-39.5 -11.5t-25 2zM43 10q26 0 44.5 18.5t19.5 44.5v554q-1 37 -32 55q-15 8 -32 8h-13v10h359v-10h-13q-26 0 -45 -18.5t-19 -44.5v-576h123
q73 0 129 48t79 133h10l-38 -232h-585v10h13z" />
    <glyph glyph-name="Ldot" unicode="&#x13f;" horiz-adv-x="595" 
d="M871 -143q78 0 216 53l8 -7q-73 -129 -196 -147q-30 -5 -49 -5t-42.5 1.5t-69.5 13t-83.5 25t-86 34.5t-84.5 38q-115 57 -160 77q-130 60 -294 60v10h13q26 0 44.5 18.5t19.5 44.5v554q-1 37 -33 55q-14 8 -31 8h-13v10h359v-10h-13q-36 0 -55 -31q-9 -14 -9 -32v-572
q0 -32 8 -47t30 -22q322 -107 414 -119q72 -10 107 -10zM468.5 327q-30.5 0 -52 22t-21.5 52.5t21.5 52t52 21.5t52 -21.5t21.5 -52t-21.5 -52.5t-52 -22z" />
    <glyph glyph-name="ldot" unicode="&#x140;" horiz-adv-x="652" 
d="M43 10q26 0 44.5 18.5t19.5 44.5v554q-1 37 -32 55q-15 8 -32 8h-13v10h359v-10h-13q-26 0 -45 -18.5t-19 -44.5v-576h123q73 0 129 48t79 133h10l-38 -232h-585v10h13zM468.5 327q-30.5 0 -52 22t-21.5 52.5t21.5 52t52 21.5t52 -21.5t21.5 -52t-21.5 -52.5t-52 -22z
" />
    <glyph glyph-name="Lslash" unicode="&#x141;" horiz-adv-x="477" 
d="M985 -221q-33 -17 -68.5 -22.5t-54.5 -5.5t-42 1.5t-69.5 13t-84 25t-86 34.5t-83.5 38q-116 57 -160 77q-131 60 -295 60v10h13q26 0 45 18.5t19 44.5v191l-63 -36l-26 46l89 51v302q-1 37 -32 55q-15 8 -32 8h-13v10h359v-10h-13q-36 0 -55 -31q-8 -14 -9 -32v-183
l78 45l26 -46l-104 -60v-328q0 -32 8 -47t30 -22q241 -80 329 -101t119.5 -24t54.5 -3t60 3q60 6 175 49l8 -7q-49 -86 -123 -124z" />
    <glyph glyph-name="lslash" unicode="&#x142;" horiz-adv-x="652" 
d="M43 10q26 0 44.5 18.5t19.5 44.5v191l-63 -36l-26 46l89 51v302q-1 37 -32 55q-15 8 -32 8h-13v10h359v-10h-13q-26 0 -45 -18.5t-19 -44.5v-183l77 45l26 -46l-103 -60v-332h123q73 0 129 48t79 133h10l-38 -232h-585v10h13z" />
    <glyph glyph-name="Nacute" unicode="&#x143;" horiz-adv-x="881" 
d="M385 761l-7 7q19 44 65 96.5t90 89.5q64 -27 85 -100q-50 -33 -115 -60t-118 -33zM1141 -135q-61 -38 -132 -38q-62 0 -129 37q-69 38 -135 105l-439 454v-352q0 -35 31 -53q14 -8 30 -8h19v-10h-366v10h19q25 0 43 17.5t18 43.5v566q-154 164 -270 164q-29 0 -56 -10
l-5 9q56 40 126 40q61 0 134 -39q72 -40 136 -105l411 -425v358q-1 26 -19 43.5t-43 17.5h-19v10h366v-10h-18q-25 0 -43 -17.5t-19 -42.5v-571l18 -19l23.5 -25t32 -33t34.5 -31.5t42 -33t44 -25t51 -19.5q26 -6 55 -6t56 8z" />
    <glyph glyph-name="nacute" unicode="&#x144;" horiz-adv-x="881" 
d="M395 761l-7 7q19 44 65 96.5t90 89.5q64 -27 85 -100q-50 -33 -115 -60t-118 -33zM843 690q-25 0 -43 -17.5t-19 -42.5v-516q0 -74 10 -114l3 -14h-9l-479 426v-341q0 -36 31 -53q14 -8 30 -8h19v-10h-366v10h19q25 0 43 17.5t18 43.5v519q0 70 -10 111l-3 14h10
l479 -426v340q-1 26 -19 43.5t-43 17.5h-19v10h366v-10h-18z" />
    <glyph glyph-name="Ncommaaccent" unicode="&#x145;" horiz-adv-x="881" 
d="M1141 -135q-61 -38 -132 -38q-62 0 -129 37q-69 37 -135 105l-439 454v-352q0 -26 18 -43.5t43 -17.5h19v-10h-366v10h19q25 0 43 17.5t18 43.5v566q-154 164 -270 164q-29 0 -56 -10l-5 9q56 40 121 40q43 0 87.5 -16.5t77.5 -37.5q62 -41 110 -90l411 -425v358
q-1 26 -19 43.5t-43 17.5h-19v10h366v-10h-18q-25 0 -43 -17.5t-19 -42.5v-571l18 -19l23.5 -25t32 -33t34.5 -31.5t42 -33t44 -25t51 -19.5q26 -6 55 -6t56 8zM453 -264q32 14 32 41.5t-18 48t-18 46.5q0 35 24 52q16 12 30 12q52 0 71 -41q11 -23 11 -39t-3.5 -36.5
t-20 -46t-41 -37t-39.5 -11.5t-25 2z" />
    <glyph glyph-name="ncommaaccent" unicode="&#x146;" horiz-adv-x="881" 
d="M843 690q-25 0 -43 -17.5t-19 -42.5v-516q0 -74 10 -114l3 -14h-9l-479 426v-341q0 -36 31 -53q14 -8 30 -8h19v-10h-366v10h19q25 0 43 17.5t18 43.5v519q0 70 -10 111l-3 14h10l479 -426v340q-1 26 -19 43.5t-43 17.5h-19v10h366v-10h-18zM446 -264q32 14 32 41.5
t-18 48t-18 46.5q0 35 24 52q16 12 30 12q52 0 71 -41q11 -23 11 -39t-3.5 -36.5t-20 -46t-41 -37t-39.5 -11.5t-25 2z" />
    <glyph glyph-name="Ncaron" unicode="&#x147;" horiz-adv-x="881" 
d="M409 764h-12l-169 176l7 8l168 -65l158 64l7 -8zM1141 -135q-61 -38 -132 -38q-62 0 -129 37q-69 37 -135 105l-439 454v-352q0 -26 18 -43.5t43 -17.5h19v-10h-366v10h19q25 0 43 17.5t18 43.5v566q-154 164 -270 164q-29 0 -56 -10l-5 9q56 40 121 40q43 0 87.5 -16.5
t77.5 -37.5q62 -41 110 -90l411 -425v358q-1 26 -19 43.5t-43 17.5h-19v10h366v-10h-18q-25 0 -43 -17.5t-19 -42.5v-571l18 -19l23.5 -25t32 -33t34.5 -31.5t42 -33t44 -25t51 -19.5q26 -6 55 -6t56 8z" />
    <glyph glyph-name="ncaron" unicode="&#x148;" horiz-adv-x="881" 
d="M419 764h-12l-169 175l7 8l168 -64l158 64l7 -8zM843 690q-25 0 -43 -17.5t-19 -42.5v-516q0 -74 10 -114l3 -14h-9l-479 426v-341q0 -36 31 -53q14 -8 30 -8h19v-10h-366v10h19q25 0 43 17.5t18 43.5v519q0 70 -10 111l-3 14h10l479 -426v340q-1 26 -19 43.5t-43 17.5
h-19v10h366v-10h-18z" />
    <glyph glyph-name="Eng" unicode="&#x14a;" horiz-adv-x="891" 
d="M-299 829q56 40 121 40q43 0 87.5 -16.5t77.5 -37.5q63 -41 110 -90l489 -442v346q-1 26 -19 43.5t-43 17.5h-19v10h276h80v-10h-18q-24 0 -41 -16t-17 -39v-639q0 -72 -39 -124q-62 -80 -173 -80q-34 0 -70 9l-5 8q29 23 42 37.5t25.5 40t16.5 61.5t4 94v124l-290 262
v-357q0 -35 31 -53q14 -8 30 -8h19v-10h-356v10h19q24 0 41 16t17 39v544q-62 67 -81 83t-43 37.5t-42.5 33t-42.5 27.5q-34 22 -71.5 31t-60.5 9t-50 -10z" />
    <glyph glyph-name="eng" unicode="&#x14b;" horiz-adv-x="891" 
d="M843 690q-24 0 -41 -16t-17 -39v-649q-3 -69 -43 -118q-62 -76 -170 -76q-33 0 -69 9l-5 8q29 23 42 37.5t25.5 40t16.5 61.5t4 94v121l-290 258v-350q0 -36 31 -53q14 -8 30 -8h19v-10h-356v10h19q25 0 43 17.5t18 43.5v519q0 70 -10 111l-3 14l11 -1l488 -434v349
q-1 26 -19 43.5t-43 17.5h-19v10h356v-10h-18z" />
    <glyph glyph-name="Omacron" unicode="&#x14c;" horiz-adv-x="931" 
d="M323 809v85h290v-85h-290zM367 433q-31 52 -31 110q0 80 60 130q36 31 89 41q33 5 53 5q61 0 104 -13.5t83 -32t75.5 -50.5t62.5 -70q58 -82 58 -198q0 -168 -124.5 -268.5t-330 -100.5t-331 101t-125.5 266q0 136 84.5 233.5t220.5 120.5l6 -10q-41 -43 -65.5 -127.5
t-24.5 -182.5q0 -159 64 -255t173 -96q104 0 168 86q64 87 64 233q0 92 -25.5 165t-70.5 109t-96 36q-64 0 -99 -39q-41 -45 -41 -112q0 -38 11 -81h-12z" />
    <glyph glyph-name="omacron" unicode="&#x14d;" horiz-adv-x="900" 
d="M308 809v85h290v-85h-290zM450 714q129 0 222.5 -43t143.5 -125.5t50 -195.5q0 -171 -111 -267.5t-305 -96.5t-304.5 96.5t-110.5 267.5t110.5 267.5t304.5 96.5zM450.5 36q91.5 0 143 83t51.5 231t-51.5 231t-143 83t-143 -83t-51.5 -231t51.5 -231t143 -83z" />
    <glyph glyph-name="Ohungarumlaut" unicode="&#x150;" horiz-adv-x="931" 
d="M341 778l-7 7q19 44 65 96.5t90 89.5q64 -27 85 -100q-50 -33 -115 -60t-118 -33zM551 778l-7 7q13 30 43 69q50 64 112 117q64 -27 85 -100q-69 -46 -133.5 -67.5t-99.5 -25.5zM367 433q-31 52 -31 110q0 80 60 130q36 31 89 41q33 5 53 5q61 0 104 -13.5t83 -32
t75.5 -50.5t62.5 -70q58 -82 58 -198q0 -168 -124.5 -268.5t-329.5 -100.5t-331 101t-126 266q0 136 84.5 233.5t220.5 120.5l6 -10q-41 -43 -65.5 -127.5t-24.5 -182.5q0 -159 64 -255t170.5 -96t170.5 87t64 232q0 92 -25.5 165t-70.5 109t-96 36q-64 0 -99 -39
q-41 -45 -41 -112q0 -38 11 -81h-12z" />
    <glyph glyph-name="ohungarumlaut" unicode="&#x151;" horiz-adv-x="900" 
d="M326 778l-7 7q19 44 65 96.5t90 89.5q64 -27 85 -100q-50 -33 -115 -60t-118 -33zM536 778l-7 7q27 62 115 149q21 21 40 37q64 -27 85 -100q-69 -46 -133.5 -67.5t-99.5 -25.5zM450 714q129 0 222.5 -43t143.5 -125.5t50 -195.5q0 -171 -110.5 -267.5t-305 -96.5
t-305 96.5t-110.5 267.5t110.5 267.5t304.5 96.5zM450.5 36q91.5 0 143 83t51.5 231t-51.5 231t-143 83t-143 -83t-51.5 -231t51.5 -231t143 -83z" />
    <glyph glyph-name="OE" unicode="&#x152;" horiz-adv-x="1087" 
d="M600 0q-39 0 -98 -7t-95 -7q-189 0 -300.5 97.5t-111.5 268t112.5 266.5t311.5 96q46 0 98 -7t83 -7h308q31 0 67.5 6t51.5 12v-206h-10v8q0 90 -72 119q-24 9 -53 10h-145v-279h109q48 1 78 31.5t30 78.5v4h10v-278h-10v5q0 64 -51 94q-25 14 -56 15h-110v-269h123
q73 0 129 48t79 133h10l-38 -232h-450zM422 664q-95 0 -155 -82.5t-60 -230.5t58.5 -231.5t155.5 -83.5q52 0 86 22t34 46v492q0 23 -33 45.5t-86 22.5z" />
    <glyph glyph-name="oe" unicode="&#x153;" horiz-adv-x="1141" 
d="M640 0q-39 0 -98 -7t-95 -7q-189 0 -300.5 97.5t-111.5 268t112.5 266.5t311.5 96q46 0 98 -7t83 -7h308q31 0 67.5 6t51.5 12v-206h-10v8q0 80 -58 112q-28 16 -67 17h-145v-279h109q48 1 78 31.5t30 78.5v4h10v-278h-10v5q0 64 -51 94q-25 14 -56 15h-110v-269h123
q73 0 129 48t79 133h10l-38 -232h-450zM462 664q-95 0 -155 -82.5t-60 -230.5t58.5 -231.5t155.5 -83.5q52 0 86 22t34 46v492q0 23 -33 45.5t-86 22.5z" />
    <glyph glyph-name="Racute" unicode="&#x154;" horiz-adv-x="783" 
d="M374 761l-7 7q19 44 65.5 96.5t89.5 89.5q64 -27 85 -100q-50 -33 -115 -60t-118 -33zM721 510q0 -90 -57.5 -139t-126.5 -49q-11 0 -23 1q63 -13 115 -78q24 -29 54 -74.5t42 -62.5q60 -86 120 -140q128 -116 329 -128v-10q-55 -39 -138 -56q-49 -10 -97.5 -10
t-102.5 14t-106 42t-105.5 81t-87.5 108.5t-59 106t-47.5 99.5t-27.5 60q-29 60 -52 67v10h16q65 0 107 51q24 29 28 60.5t4 40.5q0 75 -44 109.5t-100 34.5h-44v-575q0 -26 18.5 -44.5t45.5 -18.5h12l1 -10h-360v10h13q26 0 44.5 18t19.5 44v555q-1 26 -19.5 44.5
t-44.5 18.5h-12v10h390q149 0 226 -52q30 -20 49.5 -55.5t19.5 -82.5z" />
    <glyph glyph-name="racute" unicode="&#x155;" horiz-adv-x="792" 
d="M374 761l-7 7q19 44 65.5 96.5t89.5 89.5q64 -27 85 -100q-50 -33 -115 -60t-118 -33zM675 590q16 -35 16 -72.5t-8 -66t-25 -56.5q-37 -60 -127 -74q39 -11 70 -39q33 -28 62 -78q88 -151 131 -178q23 -15 60 -16v-10h-125q-130 0 -186 29q-80 41 -114 141
q-9 29 -15.5 61t-12 49.5t-14.5 31.5q-13 22 -36 30v10h16q58 0 87 53q15 28 18.5 60.5t3.5 40.5v10q-7 132 -114 132h-44v-575q0 -26 18.5 -44.5t45.5 -18.5h12l1 -10h-360v10h13q26 0 44.5 18t19.5 44v555q-1 26 -19.5 44.5t-44.5 18.5h-13v10h391q196 0 249 -110z" />
    <glyph glyph-name="Rcommaaccent" unicode="&#x156;" horiz-adv-x="783" 
d="M721 504q0 -54 -29.5 -99.5t-71.5 -64t-83 -18.5q-12 0 -23 1q63 -13 115 -78q24 -29 54 -74.5t42 -62.5q60 -86 120 -140q128 -116 329 -128v-10q-55 -39 -138 -56q-49 -10 -97.5 -10t-102.5 14t-106 42t-105.5 81t-87.5 108.5t-59 106t-47.5 99.5t-27.5 60
q-29 60 -52 67v10h16q65 0 107 51q24 29 28 60.5t4 40.5q0 75 -44 109.5t-100 34.5h-44v-575q0 -26 19 -44.5t45 -18.5h12v-10h-359v10h13q26 0 44.5 18t19.5 44v555q-1 37 -32 55q-15 8 -32 8h-12v10h390q149 0 226 -52q69 -47 69 -144zM419 -264q31 14 31 41.5t-18 48
t-18 46.5q0 35 24 52q16 12 30 12q52 0 71 -41q11 -23 11 -39t-3.5 -36.5t-20 -46t-41 -37t-39.5 -11.5t-25 2z" />
    <glyph glyph-name="rcommaaccent" unicode="&#x157;" horiz-adv-x="792" 
d="M675 590q16 -35 16 -72.5t-8 -66t-25 -56.5q-37 -60 -127 -74q39 -11 70 -39q33 -28 62 -78q75 -128 115 -165q30 -28 76 -29v-10h-125q-130 0 -186 29q-80 41 -114 141q-9 29 -15.5 61t-11 46.5t-10.5 27t-13 19.5q-12 12 -28 18v10h16q58 0 87 53q15 28 18.5 60.5
t3.5 40.5v10q-7 132 -114 132h-44v-575q0 -26 19 -44.5t45 -18.5h12v-10h-359v10h13q26 0 44.5 18t19.5 44v555q-1 37 -32 55q-15 8 -32 8h-13v10h391q196 0 249 -110zM419 -264q31 14 31 41.5t-18 48t-18 46.5q0 35 24 52q16 12 30 12q52 0 71 -41q11 -23 11 -39
t-3.5 -36.5t-20 -46t-41 -37t-39.5 -11.5t-25 2z" />
    <glyph glyph-name="Rcaron" unicode="&#x158;" horiz-adv-x="783" 
d="M398 764h-12l-169 175l7 8l168 -64l158 64l7 -8zM721 510q0 -90 -57.5 -139t-126.5 -49q-11 0 -23 1q63 -13 115 -78q24 -29 54 -74.5t42 -62.5q60 -86 120 -140q128 -116 329 -128v-10q-55 -39 -138 -56q-49 -10 -97.5 -10t-102.5 14t-106 42t-105.5 81t-87.5 108.5
t-59 106t-47.5 99.5t-27.5 60q-29 60 -52 67v10h16q65 0 107 51q24 29 28 60.5t4 40.5q0 75 -44 109.5t-100 34.5h-44v-575q0 -26 19 -44.5t45 -18.5h12v-10h-359v10h13q26 0 44.5 18t19.5 44v555q-1 26 -19.5 44.5t-44.5 18.5h-12v10h390q149 0 226 -52q30 -20 49.5 -55.5
t19.5 -82.5z" />
    <glyph glyph-name="rcaron" unicode="&#x159;" horiz-adv-x="792" 
d="M398 764h-12l-169 175l7 8l168 -64l158 64l7 -8zM675 590q16 -35 16 -72.5t-8 -66t-25 -56.5q-37 -60 -127 -74q39 -11 70 -39q33 -28 62 -78q75 -128 115 -165q30 -28 76 -29v-10h-125q-130 0 -186 29q-80 41 -114 141q-9 29 -15.5 61t-13.5 54q-13 43 -49 57v10h16
q58 0 87 53q15 28 18.5 60.5t3.5 40.5v10q-7 132 -114 132h-44v-575q0 -26 19 -44.5t45 -18.5h12v-10h-359v10h13q26 0 44.5 18t19.5 44v555q-1 37 -32 55q-15 8 -32 8h-13v10h391q196 0 249 -110z" />
    <glyph glyph-name="Sacute" unicode="&#x15a;" horiz-adv-x="671" 
d="M323 761l-7 7q19 44 65 96.5t89 89.5q64 -27 86 -100q-50 -33 -115.5 -60t-117.5 -33zM647 168q0 -87 -61 -158t-160 -99q-52 -15 -120.5 -15t-130.5 25q-116 46 -151 161q-9 31 -9 58q0 87 53 163l9 -7q-33 -59 -33 -114q0 -68 34 -120t91 -81t116.5 -29t100.5 19t60 51
t19 67t-25 71.5t-74 63.5l-163 96q-124 73 -124 188q0 103 72 159q60 47 163 47q66 0 168 -10h78l-21 -163h-10q0 55 -43 89t-116 34q-82 0 -118 -41q-30 -34 -13 -74q9 -21 66 -53q12 -7 17 -9l187 -107q138 -78 138 -212z" />
    <glyph glyph-name="sacute" unicode="&#x15b;" horiz-adv-x="645" 
d="M303 761l-7 7q19 44 65.5 96.5t89.5 89.5q64 -27 85 -100q-50 -33 -115 -60t-118 -33zM520 45.5q-86 -59.5 -229 -59.5q-83 0 -146 18.5t-91 46.5q-9 22 -9 47.5t4 49.5q11 59 37 92h9q-1 -6 -1 -13q0 -74 58.5 -132.5t159.5 -58.5q68 0 104.5 28.5t36.5 65t-25 62.5
t-81 52l-163 76q-69 31 -100 87q-25 44 -25 97q0 108 73 164q61 46 162 46q66 0 169 -10h78l-22 -163h-10q0 55 -43 89t-116 34q-82 0 -117 -41q-19 -21 -19 -49.5t21.5 -47.5t67.5 -39l187 -87q116 -53 116 -174t-86 -180.5z" />
    <glyph glyph-name="Scedilla" unicode="&#x15e;" horiz-adv-x="671" 
d="M645 198q2 -14 2 -39.5t-15 -70.5t-52 -86t-96.5 -69.5t-131.5 -34.5l-41 -48q14 5 24 5h20.5t30.5 -5.5t32 -20.5t12 -27q0 -46 -32 -73q-42 -36 -100 -36q-28 0 -57 9l1 10q36 0 70 20.5t34 60.5q0 16 -16 28q-17 11 -39.5 11t-42.5 -6l-5 10l47 61q-90 5 -156 45
q-118 72 -118 202q0 85 52 159l9 -7q-33 -59 -33 -114q0 -68 34 -120t91 -81t116.5 -29t100.5 19t60 51t19 67t-25 71.5t-74 63.5l-163 96q-124 73 -124 188q0 103 72 159q60 47 163 47q66 0 168 -10h78l-21 -163h-10q0 55 -43 89t-110 34t-103 -23t-39 -61q-3 -26 14 -44
q15 -16 30 -24.5t27 -15.5t17 -9l187 -107q61 -34 95.5 -83t40.5 -99z" />
    <glyph glyph-name="scedilla" unicode="&#x15f;" horiz-adv-x="645" 
d="M531.5 54.5q-74.5 -59.5 -198.5 -67.5l-42 -48q14 5 24 5h20.5t30.5 -5.5t32 -20.5t12 -27q0 -46 -32 -73q-41 -35 -100 -35q-27 0 -57 8l1 10q37 0 70.5 20.5t33.5 60.5q0 16 -16 28q-17 11 -39.5 11t-41.5 -6l-6 10l48 61q-76 2 -133.5 20t-83.5 45q-9 22 -9 47.5
t4 49.5q11 59 37 92h9q-1 -6 -1 -13q0 -74 58.5 -132.5t159.5 -58.5q68 0 104.5 28.5t36.5 65t-25 62.5t-81 52l-163 76q-69 31 -100 87q-25 44 -25 97q0 108 73 164q61 46 162 46q66 0 169 -10h78l-22 -163h-10q0 55 -43 89t-109.5 34t-103 -23t-39.5 -61q-4 -47 60 -80
q11 -6 29 -13l187 -87q116 -53 116 -169.5t-74.5 -176z" />
    <glyph glyph-name="Scaron" unicode="&#x160;" horiz-adv-x="671" 
d="M346 764h-12l-169 175l8 8l168 -64l158 64l7 -8zM647 168q0 -87 -61 -158t-160 -99q-52 -15 -120.5 -15t-130.5 25q-116 46 -151 161q-9 31 -9 58q0 87 53 163l9 -7q-33 -59 -33 -114q0 -68 34 -120t91 -81t116.5 -29t100.5 19t60 51t19 67t-25 71.5t-74 63.5l-163 96
q-124 73 -124 188q0 103 72 159q60 47 163 47q66 0 168 -10h78l-21 -163h-10q0 55 -43 89t-110 34t-103 -23t-39 -61q-3 -26 14 -44q15 -16 30 -24.5t27 -15.5t17 -9l187 -107q138 -78 138 -212z" />
    <glyph glyph-name="scaron" unicode="&#x161;" horiz-adv-x="645" 
d="M327 764h-12l-169 175l7 8l168 -64l158 64l7 -8zM520 45.5q-86 -59.5 -229 -59.5q-83 0 -146 18.5t-91 46.5q-9 22 -9 47.5t4 49.5q11 59 37 92h9q-1 -6 -1 -13q0 -74 58.5 -132.5t159.5 -58.5q68 0 104.5 28.5t36.5 70t-45 74.5q-23 18 -61 35l-163 76q-69 31 -100 87
q-25 44 -25 97q0 108 73 164q61 46 162 46q66 0 169 -10h78l-22 -163h-10q0 55 -43 89t-109.5 34t-103.5 -23q-39 -26 -39 -68q0 -28 21.5 -47t67.5 -39l187 -87q116 -53 116 -174t-86 -180.5z" />
    <glyph glyph-name="Tcedilla" unicode="&#x162;" horiz-adv-x="750" 
d="M-4 444q-61 54 -61 116q0 58 47 98q50 43 130 43h511q43 1 75.5 7.5t42.5 10.5v-206l-10 1v7q0 60 -34 94.5t-95 35.5h-98v-579q1 -26 19.5 -44t44.5 -18h13v-10h-160l-42 -48q14 5 24 5h20.5t30.5 -5.5t32.5 -20.5t12.5 -27q0 -46 -32 -73q-42 -36 -100 -36q-28 0 -57 9
v10q37 0 70.5 20.5t33.5 60.5q0 16 -16 28q-16 11 -39 11t-42 -6l-5 10l48 62h-138v10h13q26 0 44.5 18t19.5 43v580h-187q-56 0 -93 -27q-43 -31 -43 -77.5t31 -97.5z" />
    <glyph glyph-name="tcedilla" unicode="&#x163;" horiz-adv-x="698" 
d="M452 651v-579q1 -26 19.5 -44t44.5 -18h13v-10h-200l-41 -47q14 5 24 5h20.5t30.5 -5.5t32 -20.5t12 -27q0 -46 -32 -73q-42 -36 -100 -36q-28 0 -57 9l1 10q36 0 70 20.5t34 60.5q0 16 -16 28q-17 11 -39.5 11t-42.5 -6l-5 10l47 61h-97v10h13q26 0 44.5 18t19.5 43v580
h-99q-60 -1 -94 -35.5t-34 -94.5v-7l-10 -1v206q14 -6 50.5 -12t67.5 -6h443q31 0 67 6t51 12v-206l-10 1v7q0 81 -60 114q-29 15 -69 16h-98z" />
    <glyph glyph-name="Tcaron" unicode="&#x164;" horiz-adv-x="750" 
d="M409 764h-12l-169 175l7 8l168 -64l158 64l7 -8zM-4 444q-61 54 -61 116q0 58 47 98q50 43 130 43h511q43 1 75.5 7.5t42.5 10.5v-206l-10 1v7q0 81 -60 114q-29 15 -69 16h-98v-579q1 -26 19.5 -44t44.5 -18h13v-10h-359v10h13q26 0 44.5 18t19.5 43v580h-187
q-56 0 -93 -27q-43 -31 -43 -77.5t31 -97.5z" />
    <glyph glyph-name="tcaron" unicode="&#x165;" horiz-adv-x="698" 
d="M357 764h-12l-169 175l7 8l168 -64l158 64l7 -8zM452 651v-579q1 -26 19.5 -44t44.5 -18h13v-10h-359v10h13q26 0 44.5 18t19.5 43v580h-99q-60 -1 -94 -35.5t-34 -94.5v-7l-10 -1v206q14 -6 50.5 -12t67.5 -6h443q31 0 67 6t51 12v-206l-10 1v7q0 60 -34 94.5t-95 35.5
h-98z" />
    <glyph glyph-name="Tbar" unicode="&#x166;" horiz-adv-x="750" 
d="M-4 444q-62 54 -62 117q0 42 26 75q52 65 152 65h511q43 1 76 7.5t42 10.5v-206l-10 1v7q0 81 -60 114q-29 15 -69 16h-98v-248h150v-50h-150v-281q1 -26 19.5 -44t44.5 -18h13v-10h-359v10h13q26 0 44.5 18t19.5 43v282h-151v50h151v248h-187q-55 0 -92 -27
q-44 -31 -44 -77.5t31 -97.5z" />
    <glyph glyph-name="tbar" unicode="&#x167;" horiz-adv-x="698" 
d="M452 651v-248h150v-50h-150v-281q1 -26 19.5 -44t44.5 -18h13v-10h-359v10h13q26 0 44.5 18t19.5 43v282h-151v50h151v248h-99q-60 -1 -94 -35.5t-34 -94.5v-7l-10 -1v206q14 -6 50.5 -12t67.5 -6h443q31 0 67 6t51 12v-206l-10 1v7q0 60 -34 94.5t-95 35.5h-98z" />
    <glyph glyph-name="Umacron" unicode="&#x16a;" horiz-adv-x="852" 
d="M930 923q14 0 28 -2v-10q-90 -11 -136 -85t-46 -196v-373q-2 -132 -84.5 -201.5t-244.5 -69.5t-255 72t-93 192v6v385q0 21 -15.5 35t-37.5 14h-16v10h343v-10h-16q-31 0 -46 -24q-6 -11 -7 -23v-383q0 -104 52.5 -163.5t139.5 -59.5h1.5h1.5q83 0 136.5 55.5t53.5 154.5
v383q0 124 72 213q34 41 79.5 60.5t89.5 19.5zM358 795v85h290v-85h-290z" />
    <glyph glyph-name="umacron" unicode="&#x16b;" horiz-adv-x="845" 
d="M341 795v85h290v-85h-290zM825 690h-16q-21 0 -36.5 -13.5t-16.5 -33.5v-386q0 -127 -78.5 -199t-220.5 -72q-180 0 -269 70t-89 200v384q0 22 -15.5 36t-37.5 14h-16v10h343v-10h-16q-22 0 -37 -13.5t-16 -34.5v-382q0 -105 48 -164t134 -59t134.5 55.5t48.5 154.5v395
q-1 21 -16 34.5t-37 13.5h-16v10h225v-10z" />
    <glyph glyph-name="Uring" unicode="&#x16e;" horiz-adv-x="852" 
d="M415 916.5q34 25.5 84.5 25.5t84 -25t33.5 -63.5t-34 -64.5t-84.5 -26t-84 25.5t-33.5 64t34 64zM930 923q14 0 28 -2v-10q-90 -11 -136 -85t-46 -196v-373q-2 -132 -84.5 -201.5t-244.5 -69.5t-255 72t-93 192v6v385q0 21 -15.5 35t-37.5 14h-16v10h343v-10h-16
q-23 0 -37.5 -14t-15.5 -33v-383q0 -104 52.5 -163.5t139.5 -59.5h1.5h1.5q83 0 136.5 55.5t53.5 154.5v383q0 124 72 213q34 41 79.5 60.5t89.5 19.5zM525 904q-12 8 -30 8t-32.5 -17t-14.5 -42.5t14.5 -42t36.5 -16.5t37 16.5t15 37.5t-7 34.5t-19 21.5z" />
    <glyph glyph-name="uring" unicode="&#x16f;" horiz-adv-x="845" 
d="M398 916.5q34 25.5 84.5 25.5t84 -25t33.5 -63.5t-34 -64.5t-84.5 -26t-84 25.5t-33.5 64t34 64zM519 895q-15 17 -37 17t-36.5 -17t-14.5 -42.5t14.5 -42t36.5 -16.5t37 16.5t15 42t-15 42.5zM825 690h-16q-21 0 -36.5 -13.5t-16.5 -33.5v-386q0 -127 -78.5 -199
t-220.5 -72q-180 0 -269 70t-89 200v384q0 22 -15.5 36t-37.5 14h-16v10h343v-10h-16q-22 0 -37 -13.5t-16 -34.5v-382q0 -105 48 -164t134 -59t134.5 55.5t48.5 154.5v395q-1 21 -16 34.5t-37 13.5h-16v10h225v-10z" />
    <glyph glyph-name="Uhungarumlaut" unicode="&#x170;" horiz-adv-x="852" 
d="M295 764l-7 7q19 44 65.5 96.5t89.5 89.5q64 -27 85 -100q-50 -33 -115 -60t-118 -33zM505 764l-7 7q19 44 65.5 96.5t89.5 89.5q64 -27 85 -100q-50 -33 -115 -60t-118 -33zM930 923q14 0 28 -2v-10q-90 -11 -136 -85t-46 -196v-373q-2 -132 -84.5 -201.5t-244.5 -69.5
t-255 72t-93 192v6v385q0 21 -15.5 35t-37.5 14h-16v10h343v-10h-16q-23 0 -37.5 -14t-15.5 -33v-383q0 -104 52.5 -163t139.5 -59h1.5h1.5q83 0 136.5 55t53.5 154v383q0 124 72 213q34 41 79.5 60.5t89.5 19.5z" />
    <glyph glyph-name="uhungarumlaut" unicode="&#x171;" horiz-adv-x="845" 
d="M359 764l-7 7q18 44 64.5 96.5t89.5 89.5q64 -27 85 -100q-69 -46 -133 -67.5t-99 -25.5zM569 764l-7 7q18 44 64.5 96.5t89.5 89.5q64 -27 85 -100q-50 -33 -115 -60t-117 -33zM825 690h-16q-21 0 -36.5 -13.5t-16.5 -33.5v-386q0 -127 -78.5 -199t-220.5 -72
q-180 0 -269 70t-89 200v384q0 22 -15.5 36t-37.5 14h-16v10h343v-10h-16q-22 0 -37 -13.5t-16 -34.5v-382q0 -105 48 -164t134 -59t134.5 55.5t48.5 154.5v395q-1 21 -16 34.5t-37 13.5h-16v10h225v-10z" />
    <glyph glyph-name="Uogonek" unicode="&#x172;" horiz-adv-x="852" 
d="M930 923q14 0 28 -2v-10q-90 -11 -136 -85t-46 -196v-373q-2 -122 -72.5 -190.5t-205.5 -78.5l1 -1q-65 -14 -65 -69q0 -53 40 -68q11 -4 28.5 -4t44.5 21l6 -6q-5 -64 -62 -82q-17 -5 -42.5 -5t-57.5 22q-44 31 -44 83q0 49 26 74t59 33q-158 5 -245.5 76.5t-87.5 187.5
v6v385q0 21 -15.5 35t-37.5 14h-16v10h343v-10h-16q-31 0 -46 -24q-6 -11 -7 -23v-383q0 -104 52.5 -163.5t139.5 -59.5h1.5h1.5q83 0 136.5 55.5t53.5 154.5v383q0 124 72 213q34 41 79.5 60.5t89.5 19.5z" />
    <glyph glyph-name="uogonek" unicode="&#x173;" horiz-adv-x="845" 
d="M825 690h-16q-21 0 -36.5 -13.5t-16.5 -33.5v-386q0 -162 -123 -231q-60 -34 -146 -39q-63 -15 -63 -69q0 -53 40 -68q11 -4 28.5 -4t44.5 21l6 -6q-5 -64 -62 -82q-17 -5 -42.5 -5t-57.5 22q-44 31 -44 83q0 49 26.5 74.5t60.5 33.5q-163 6 -244 75.5t-81 193.5v384
q0 22 -15.5 36t-37.5 14h-16v10h343v-10h-16q-22 0 -37 -13.5t-16 -34.5v-382q0 -105 48 -164t134 -59t134.5 55.5t48.5 154.5v395q-1 21 -16 34.5t-37 13.5h-16v10h225v-10z" />
    <glyph glyph-name="Wcircumflex" unicode="&#x174;" horiz-adv-x="964" 
d="M1072 939q43 9 72 9t54 -3v-10q-203 -15 -272 -241l-186 -605q-14 -49 -14 -111h-10l-230 434l-186 -380q-29 -61 -56.5 -94t-48 -53t-41.5 -34q-57 -36 -102 -36q-24 0 -51 5v10q67 12 118 65q53 56 76 98q32 58 52 102l-203 538q-14 29 -37.5 43t-48.5 14h-8v10h359
v-10h-9q-30 0 -40 -28q-1 -6 -1 -14t4 -20l109 -272l173 360l9 -1l198 -366l96 345q24 87 77 151q63 76 147 94zM543 932h12l178 -176l-7 -8l-178 65l-167 -65l-7 8z" />
    <glyph glyph-name="wcircumflex" unicode="&#x175;" horiz-adv-x="964" 
d="M536 932h12l178 -176l-7 -8l-178 65l-167 -65l-7 8zM1004 690h-8q-35 0 -63 -24q-16 -14 -23 -33l-170 -544q-2 -8 -5 -21l-7 -31q-3 -22 -3 -36t1 -23h-10l-231 435l-158 -324q-26 -56 -27 -111h-9l-247 655q-14 29 -37.5 43t-48.5 14h-8v10h359v-10h-9q-30 0 -40 -28
q-1 -6 -1 -14t4 -20l109 -272l173 360l9 -1l199 -368l80 281q2 11 2 19.5t-3 18.5t-13 17t-24 7h-9v10h218v-10z" />
    <glyph glyph-name="Ycircumflex" unicode="&#x176;" horiz-adv-x="699" 
d="M358 932h12l178 -176l-7 -8l-178 65l-167 -65l-7 8zM-29 761q146 0 259 -68q133 -81 188 -232q40 118 127 209q42 43 89.5 66.5t91.5 23.5q7 0 14 -1v-10q-46 -2 -96.5 -48.5t-89.5 -113t-67.5 -138.5t-35.5 -127v-249q0 -36 31 -54q15 -9 33 -9h12l1 -10h-359v10h13
q26 0 44.5 18.5t19.5 44.5v249q-22 105 -76 209q-30 57 -66 103t-86 78.5t-103 36.5v10q29 2 56 2z" />
    <glyph glyph-name="ycircumflex" unicode="&#x177;" horiz-adv-x="729" 
d="M428 932h12l178 -176l-7 -8l-178 65l-167 -65l-7 8zM775 690h-14q-30 0 -57.5 -17t-43.5 -42l-196 -309v-249q0 -26 18.5 -44.5t45.5 -18.5h12v-10h-358v10h13q26 0 44.5 18t19.5 44v250l-191 311q-25 39 -69 52q-15 5 -30 5h-14v10h386v-10h-12q-22 0 -34 -20
q-7 -11 -7 -21.5t6 -20.5l137 -247l142 247q6 10 6 20t-7 21q-13 21 -34 21h-12v10h249v-10z" />
    <glyph glyph-name="Ydieresis" unicode="&#x178;" horiz-adv-x="699" 
d="M230 755q-31 0 -52.5 22t-21.5 52.5t21.5 52t52.5 21.5t52.5 -21.5t21.5 -52t-21.5 -52.5t-52.5 -22zM492.5 755q-30.5 0 -52 22t-21.5 52.5t21.5 52t52 21.5t52 -21.5t21.5 -52t-21.5 -52.5t-52 -22zM-29 761q146 0 259 -68q133 -81 188 -232q40 118 127 209
q42 43 89.5 66.5t91.5 23.5q7 0 14 -1v-10q-46 -2 -96.5 -48.5t-89.5 -113t-67.5 -138.5t-35.5 -127v-249q0 -36 31 -54q15 -9 33 -9h12l1 -10h-359v10h13q26 0 44.5 18.5t19.5 44.5v249q-22 105 -76 209q-30 57 -66 103t-86 78.5t-103 36.5v10q29 2 56 2z" />
    <glyph glyph-name="Zacute" unicode="&#x179;" horiz-adv-x="659" 
d="M318 761l-7 7q19 44 65.5 96.5t89.5 89.5q64 -27 85 -100q-50 -33 -115 -60t-118 -33zM651.5 -89.5q76.5 -19.5 159.5 -35.5t152 -16t124 21l8 -7q-51 -62 -114 -93q-66 -33 -130.5 -33t-134.5 15.5t-138 45t-143 62t-140 62.5q-151 68 -260 68v9l332 642h-180
q-60 -1 -94 -35.5t-34 -94.5v-8h-10v206q15 -6 52.5 -12t53 -6h15.5h345q42 0 71 5t35 8v-9l-358 -696q81 -18 196.5 -48.5t192 -50z" />
    <glyph glyph-name="zacute" unicode="&#x17a;" horiz-adv-x="667" 
d="M318 761l-7 7q19 44 65.5 96.5t89.5 89.5q64 -27 85 -100q-50 -33 -115 -60t-118 -33zM49 719q15 -6 52.5 -12t53 -6h15.5h345q42 0 71 5t35 8v-9l-336 -655h141q73 0 129 48.5t79 133.5h10l-38 -232h-571v9l332 642h-180q-60 -1 -94 -35.5t-34 -94.5v-8h-10v206z" />
    <glyph glyph-name="Zdotaccent" unicode="&#x17b;" horiz-adv-x="659" 
d="M335 764q-31 0 -52.5 21.5t-21.5 52t21.5 52t52.5 21.5t52.5 -21.5t21.5 -52t-21.5 -52t-52.5 -21.5zM651.5 -89.5q76.5 -19.5 159.5 -35.5t152 -16t124 21l8 -7q-51 -62 -114 -93q-66 -33 -130.5 -33t-134.5 15.5t-138 45t-143 62t-140 62.5q-151 68 -260 68v9l332 642
h-180q-81 -1 -113 -61q-15 -29 -15 -69v-8h-10v206q15 -6 52.5 -12t53 -6h15.5h345q30 0 63.5 4t42.5 9v-9l-358 -696q81 -18 196.5 -48.5t192 -50z" />
    <glyph glyph-name="zdotaccent" unicode="&#x17c;" horiz-adv-x="667" 
d="M335 764q-31 0 -52.5 21.5t-21.5 52t21.5 52t52.5 21.5t52.5 -21.5t21.5 -52t-21.5 -52t-52.5 -21.5zM49 719q15 -6 52.5 -12t53 -6h15.5h345q42 0 71 5t35 8v-9l-336 -655h141q73 0 129 48.5t79 133.5h10l-38 -232h-571v9l332 642h-180q-60 -1 -94 -35.5t-34 -94.5v-8
h-10v206z" />
    <glyph glyph-name="Zcaron" unicode="&#x17d;" horiz-adv-x="659" 
d="M342 764h-12l-169 176l7 8l168 -65l158 64l7 -8zM651.5 -89.5q76.5 -19.5 159.5 -35.5t152 -16t124 21l8 -7q-51 -62 -114 -93q-66 -33 -130.5 -33t-134.5 15.5t-138 45t-143 62t-140 62.5q-151 68 -260 68v9l332 642h-180q-81 -1 -113 -61q-15 -29 -15 -69v-8h-10v206
q15 -6 52.5 -12t53 -6h15.5h345q30 0 63.5 4t42.5 9v-9l-358 -696q81 -18 196.5 -48.5t192 -50z" />
    <glyph glyph-name="zcaron" unicode="&#x17e;" horiz-adv-x="667" 
d="M342 764h-12l-169 175l7 8l168 -64l158 64l7 -8zM49 719q15 -6 52.5 -12t53 -6h15.5h345q42 0 71 5t35 8v-9l-336 -655h141q73 0 129 48.5t79 133.5h10l-38 -232h-571v9l332 642h-180q-60 -1 -94 -35.5t-34 -94.5v-8h-10v206z" />
    <glyph glyph-name="florin" unicode="&#x192;" horiz-adv-x="578" 
d="M548 424h-8v6q0 58 -32 90.5t-90 33.5h-93v-235h69q45 1 73.5 30t28.5 73v2l8 1v-259l-8 1v3q0 60 -49 89q-24 13 -53 13h-69v-192q0 -60 -18 -106.5t-47 -74.5t-71 -46q-71 -31 -169 -31v10q59 33 80 84t21 134v488q0 23 -15.5 38.5t-36.5 15.5h-10v8h389q25 0 56 5
t44 10v-191z" />
    <glyph glyph-name="Scommaaccent" unicode="&#x218;" horiz-adv-x="671" 
d="M647 170q0 -43 -19 -91.5t-61 -89.5t-108 -67t-144 -26t-140 25q-116 46 -151 161q-9 31 -9 58q0 87 53 163l9 -7q-33 -59 -33 -114q0 -68 34 -120t91 -81t116.5 -29t100.5 19t60 51t19 67t-25 71.5t-74 63.5l-163 96q-124 73 -124 188q0 103 72 159q60 47 163 47
q66 0 168 -10h78l-21 -163h-10q0 55 -43 89t-110 34t-103 -23t-39 -61q-3 -26 14 -44q15 -16 30 -24.5t27 -15.5t17 -9l187 -107q63 -35 98 -87q40 -59 40 -123zM251 -362q32 14 32 48q0 21 -17 41t-17 46q0 36 24 53q17 12 31 12q52 0 70 -41q10 -22 10 -38.5t-4 -37
t-21 -46t-41.5 -37t-39.5 -11.5t-25 2z" />
    <glyph glyph-name="scommaaccent" unicode="&#x219;" horiz-adv-x="645" 
d="M520 45.5q-86 -59.5 -229 -59.5q-83 0 -146 18.5t-91 46.5q-9 22 -9 47.5t4 49.5q11 59 37 92h9q-1 -6 -1 -13q0 -74 58.5 -132.5t159.5 -58.5q68 0 104.5 28.5t36.5 65t-25 62.5t-81 52l-163 76q-69 31 -100 87q-25 44 -25 97q0 108 73 164q61 46 162 46q66 0 169 -10
h78l-22 -163h-10q0 55 -43 89t-109.5 34t-103 -23t-39.5 -61q-4 -47 60 -80q11 -6 29 -13l187 -87q116 -53 116 -174t-86 -180.5zM252 -273q32 14 32 41.5t-18 48t-18 46.5q0 35 24 52q16 12 30 12q52 0 71 -41q11 -23 11 -39t-3.5 -36.5t-20 -46t-41 -37t-39.5 -11.5t-25 2
z" />
    <glyph glyph-name="uni021A" unicode="&#x21a;" horiz-adv-x="750" 
d="M-4 444q-61 54 -61 116q0 58 47 98q50 43 130 43h511q31 0 67 6t51 12v-206l-10 1v7q0 81 -60 114q-29 15 -69 16h-98v-579q1 -26 19.5 -44t44.5 -18h13v-10h-359v10h13q26 0 44.5 18t19.5 43v580h-187q-56 0 -93 -27q-43 -31 -43 -77.5t31 -97.5zM341 -264
q31 14 31 41.5t-17.5 48t-17.5 46.5q0 35 23 52q16 12 31 12q51 0 70 -41q11 -23 11 -39t-3.5 -36.5t-20 -46t-41 -37t-39.5 -11.5t-25 2z" />
    <glyph glyph-name="uni021B" unicode="&#x21b;" horiz-adv-x="698" 
d="M452 651v-579q1 -26 19.5 -44t44.5 -18h13v-10h-359v10h13q26 0 44.5 18t19.5 43v580h-99q-60 -1 -94 -35.5t-34 -94.5v-7l-10 -1v206q14 -6 50.5 -12t67.5 -6h443q31 0 67 6t51 12v-206l-10 1v7q0 81 -60 114q-29 15 -69 16h-98zM289 -264q31 14 31 41.5t-18 48
t-18 46.5q0 35 24 52q16 12 30 12q52 0 71 -41q11 -23 11 -39t-3.5 -36.5t-20 -46t-41 -37t-39.5 -11.5t-25 2z" />
    <glyph glyph-name="circumflex" unicode="&#x2c6;" 
d="M270 844h12l179 -175l-8 -8l-177 64l-168 -64l-7 8z" />
    <glyph glyph-name="caron" unicode="&#x2c7;" 
d="M292 671h-12l-169 175l7 8l168 -64l158 64l7 -8z" />
    <glyph glyph-name="breve" unicode="&#x2d8;" 
d="M363 843q0 -46 -33 -83q-43 -50 -110.5 -50t-109.5 50q-33 38 -33 83q0 15 4 31h12q12 -27 47.5 -45.5t72 -18.5t62.5 8q55 18 72 56h13q3 -16 3 -31z" />
    <glyph glyph-name="dotaccent" unicode="&#x2d9;" 
d="M293.5 665q-30.5 0 -52 22t-21.5 52.5t21.5 52t52 21.5t52.5 -21.5t22 -52t-22 -52.5t-52.5 -22z" />
    <glyph glyph-name="ring" unicode="&#x2da;" 
d="M216 851.5q34 25.5 84.5 25.5t84 -25t33.5 -63.5t-33.5 -64.5t-84.5 -26t-84.5 25.5t-33.5 64t34 64zM337 830q-15 17 -37 17t-36.5 -17t-14.5 -42.5t14.5 -42t36.5 -16.5t37 16.5t15 42t-15 42.5z" />
    <glyph glyph-name="ogonek" unicode="&#x2db;" 
d="M431 -113q-6 -87 -104 -87q-25 0 -57 22q-44 31 -44 83q0 49 27 74.5t51.5 31.5t39.5 6t24 -1l10 -3q-65 -14 -65 -69q0 -53 40 -68q10 -4 28 -4t44 21z" />
    <glyph glyph-name="tilde" unicode="&#x2dc;" 
d="M466 799h12q6 -18 6 -37t-9 -39q-21 -49 -61 -68q-24 -12 -55 -12t-80 25q-50 25 -67.5 27.5t-32.5 2.5t-39 -16t-32 -36h-12q-4 14 -4 29q0 60 45 103q30 30 68 30t92 -27t99 -27q15 0 39 14.5t31 30.5z" />
    <glyph glyph-name="hungarumlaut" unicode="&#x2dd;" 
d="M141 743l-7 7q19 44 65 96.5t89 89.5q64 -27 86 -100q-50 -33 -115.5 -60t-117.5 -33zM351 743l-7 7q19 44 65 96.5t89 89.5q64 -27 86 -100q-70 -46 -134 -67.5t-99 -25.5z" />
    <glyph glyph-name="commaaccentcomb" unicode="&#x326;" horiz-adv-x="0" 
d="M34 -200q32 14 32 41.5t-18 48t-18 46.5q0 35 23 52q16 12 31 12q52 0 70 -41q12 -23 12 -39t-3.5 -36.5t-20 -46t-41 -37t-39.5 -11.5t-25 2z" />
    <glyph glyph-name="Delta" unicode="&#x394;" horiz-adv-x="652" 
d="M647 0h-642v10l316 704h10l316 -704v-10zM498 50l-208 482l-211 -482h419z" />
    <glyph glyph-name="Omega" unicode="&#x3a9;" horiz-adv-x="879" 
d="M585.5 597q-57.5 67 -145 67t-146 -68.5t-58.5 -169.5t47 -163t132 -88l-20 -175h-327l-48 260h10q27 -50 50.5 -67.5t66.5 -17.5h188q-83 0 -153 30t-113 88.5t-43 138t54 145t148.5 101.5t211.5 36t211.5 -37t148 -102.5t53.5 -144.5t-42.5 -137.5t-112.5 -88
t-156 -29.5h190q44 0 67 17.5t51 67.5h10l-48 -260h-330l-20 175q181 60 181 254q0 101 -57.5 168z" />
    <glyph glyph-name="mu" unicode="&#x3bc;" horiz-adv-x="968" 
d="M978 10h16v-10h-355v9h16q16 0 28.5 13.5t10.5 29.5l-38 292l-170 -252q-17 -24 -30 -58t-12 -58h-9l-260 359l-35 -283q-2 -16 10.5 -29.5t28.5 -13.5h16v-9h-220v10h16q28 0 48.5 17t24.5 46l88 641h9l336 -459l308 459h9l91 -641q5 -29 25 -46t48 -17z" />
    <glyph glyph-name="pi" unicode="&#x3c0;" horiz-adv-x="783" 
d="M433 10q23 0 39 16t17 38v432q-1 31 -27 47q-13 7 -27 7h-86q-22 0 -37.5 -15.5t-16.5 -37.5v-434q1 -22 17 -37.5t39 -15.5h10l1 -10h-337v10h11q23 0 39 16t16 38v472q0 31 -28 47q-12 7 -27 7h-11v10h734v-10h-11q-22 0 -38 -15.5t-17 -37.5v-474q1 -31 28 -46
q12 -7 27 -7h11v-10h-337l1 10h10z" />
    <glyph glyph-name="Wgrave" unicode="&#x1e80;" horiz-adv-x="964" 
d="M1072 939q43 9 72 9t54 -3v-10q-203 -15 -272 -241l-186 -605q-14 -49 -14 -111h-10l-230 434l-186 -380q-29 -61 -56.5 -94t-48 -53t-41.5 -34q-57 -36 -102 -36q-24 0 -51 5v10q67 12 118 65q53 56 76 98q32 58 52 102l-203 538q-14 29 -37.5 43t-48.5 14h-8v10h359
v-10h-9q-30 0 -40 -28q-1 -6 -1 -14t4 -20l109 -272l173 360l9 -1l198 -366l96 345q24 87 77 151q63 76 147 94zM577 771l-7 -7q-72 9 -161 52q-39 19 -72 41q21 73 85 100q44 -37 90 -89.5t65 -96.5z" />
    <glyph glyph-name="wgrave" unicode="&#x1e81;" horiz-adv-x="964" 
d="M570 771l-7 -7q-53 6 -118 33t-115 60q21 73 85 100q44 -37 90 -89.5t65 -96.5zM1004 690h-8q-25 0 -50 -14.5t-36 -42.5l-170 -544q-2 -8 -5 -21l-7 -31q-3 -22 -3 -36t1 -23h-10l-231 435l-158 -324q-26 -56 -27 -111h-9l-247 655q-14 29 -37.5 43t-48.5 14h-8v10h359
v-10h-9q-30 0 -40 -28q-1 -6 -1 -14t4 -20l109 -272l173 360l9 -1l199 -368l80 281q2 11 2 19.5t-2.5 18.5t-13 17t-24.5 7h-9v10h218v-10z" />
    <glyph glyph-name="Wacute" unicode="&#x1e82;" horiz-adv-x="964" 
d="M1072 939q43 9 72 9t54 -3v-10q-203 -15 -272 -241l-186 -605q-14 -49 -14 -111h-10l-230 434l-186 -380q-29 -61 -56.5 -94t-48 -53t-41.5 -34q-57 -36 -102 -36q-24 0 -51 5v10q67 12 118 65q53 56 76 98q32 58 52 102l-203 538q-14 29 -37.5 43t-48.5 14h-8v10h359
v-10h-9q-30 0 -40 -28q-1 -6 -1 -14t4 -20l109 -272l173 360l9 -1l198 -366l96 345q24 87 77 151q63 76 147 94zM533 761l-7 7q19 44 65.5 96.5t89.5 89.5q64 -27 85 -100q-69 -46 -133 -67.5t-100 -25.5z" />
    <glyph glyph-name="wacute" unicode="&#x1e83;" horiz-adv-x="964" 
d="M526 761l-7 7q19 44 65.5 96.5t89.5 89.5q64 -27 85 -100q-50 -33 -115 -60t-118 -33zM1004 690h-8q-35 0 -63 -24q-16 -14 -23 -33l-170 -544q-2 -8 -5 -21l-7 -31q-3 -22 -3 -36t1 -23h-10l-231 435l-158 -324q-26 -56 -27 -111h-9l-247 655q-14 29 -37.5 43t-48.5 14
h-8v10h359v-10h-9q-30 0 -40 -28q-1 -6 -1 -14t4 -20l109 -272l173 360l9 -1l199 -368l80 281q3 11 3 23t-9.5 25.5t-31.5 13.5h-9v10h218v-10z" />
    <glyph glyph-name="Wdieresis" unicode="&#x1e84;" horiz-adv-x="964" 
d="M1072 939q43 9 72 9t54 -3v-10q-203 -15 -272 -241l-186 -605q-14 -49 -14 -111h-10l-230 434l-186 -380q-29 -61 -56.5 -94t-48 -53t-41.5 -34q-57 -36 -102 -36q-24 0 -51 5v10q67 12 118 65q53 56 76 98q32 58 52 102l-203 538q-14 29 -37.5 43t-48.5 14h-8v10h359
v-10h-9q-30 0 -40 -28q-1 -6 -1 -14t4 -20l109 -272l173 360l9 -1l198 -366l96 345q24 87 77 151q63 76 147 94zM415.5 755q-30.5 0 -52 22t-21.5 52.5t21.5 52t52 21.5t52 -21.5t21.5 -52t-21.5 -52.5t-52 -22zM678.5 755q-30.5 0 -52.5 22t-22 52.5t22 52t52.5 21.5
t52 -21.5t21.5 -52t-21.5 -52.5t-52 -22z" />
    <glyph glyph-name="wdieresis" unicode="&#x1e85;" horiz-adv-x="964" 
d="M408.5 755q-30.5 0 -52 22t-21.5 52.5t21.5 52t52 21.5t52 -21.5t21.5 -52t-21.5 -52.5t-52 -22zM671.5 755q-30.5 0 -52.5 22t-22 52.5t22 52t52.5 21.5t52 -21.5t21.5 -52t-21.5 -52.5t-52 -22zM1004 690h-8q-35 0 -63 -24q-16 -14 -23 -33l-170 -544q-2 -8 -5 -21
l-7 -31q-3 -22 -3 -36t1 -23h-10l-231 435l-158 -324q-26 -56 -27 -111h-9l-247 655q-14 29 -37.5 43t-48.5 14h-8v10h359v-10h-9q-30 0 -40 -28q-1 -6 -1 -14t4 -20l109 -272l173 360l9 -1l199 -368l80 281q3 11 3 23t-9.5 25.5t-31.5 13.5h-9v10h218v-10z" />
    <glyph glyph-name="Ygrave" unicode="&#x1ef2;" horiz-adv-x="699" 
d="M392 771l-7 -7q-53 6 -118 33t-115 60q21 73 85 100q62 -53 102 -104.5t53 -81.5zM-29 761q146 0 259 -68q133 -81 188 -232q40 118 127 209q42 43 89.5 66.5t91.5 23.5q7 0 14 -1v-10q-46 -2 -96.5 -48.5t-89.5 -113t-67.5 -138.5t-35.5 -127v-249q0 -25 18.5 -44
t45.5 -19h12l1 -10h-359v10h13q26 0 44.5 18.5t19.5 44.5v249q-22 105 -76 209q-30 57 -66 103t-86 78.5t-103 36.5v10q29 2 56 2z" />
    <glyph glyph-name="ygrave" unicode="&#x1ef3;" horiz-adv-x="729" 
d="M462 771l-7 -7q-72 9 -161 52q-40 19 -72 41q21 73 85 100q62 -53 102 -104.5t53 -81.5zM775 690h-14q-30 0 -57.5 -17t-43.5 -42l-196 -309v-249q0 -26 18.5 -44.5t45.5 -18.5h12v-10h-358v10h13q26 0 44.5 18t19.5 44v250l-191 311q-25 39 -69 52q-15 5 -30 5h-14v10
h386v-10h-12q-22 0 -34 -20q-7 -11 -7 -21.5t6 -20.5l137 -247l142 247q6 10 6 20t-7 21q-13 21 -34 21h-12v10h249v-10z" />
    <glyph glyph-name="endash" unicode="&#x2013;" horiz-adv-x="500" 
d="M0 261v60h500v-60h-500z" />
    <glyph glyph-name="emdash" unicode="&#x2014;" horiz-adv-x="800" 
d="M0 261v60h800v-60h-800z" />
    <glyph glyph-name="quoteleft" unicode="&#x2018;" horiz-adv-x="278" 
d="M209 808q-12 -13 -17 -26.5t-5 -23.5q0 -35 28 -67t28 -73q0 -54 -36 -80q-24 -18 -47 -18q-80 0 -108 63q-17 41 -17 80.5t17 74.5q37 77 106 100q23 7 41.5 7t33.5 -2l4 -15q-16 -7 -28 -20z" />
    <glyph glyph-name="quoteright" unicode="&#x2019;" horiz-adv-x="268" 
d="M80 591q7 13 7.5 21.5t0.5 16.5q0 26 -26.5 56.5t-26.5 69.5q0 52 34 76q24 18 45 18q76 0 103 -60q16 -39 16 -77t-16 -71q-35 -73 -100 -95q-22 -7 -40 -7t-32 2l-4 14q26 11 39 36z" />
    <glyph glyph-name="quotesinglbase" unicode="&#x201a;" horiz-adv-x="278" 
d="M41 -127q34 15 45 47q5 14 5 24q0 34 -28 66t-28 73q0 54 36 80q25 19 47 19q80 0 109 -64q16 -40 16 -79.5t-17 -75.5q-37 -76 -105 -99q-23 -8 -42 -8t-33 3z" />
    <glyph glyph-name="quotedblleft" unicode="&#x201c;" horiz-adv-x="519" 
d="M209 808q-12 -13 -17 -26.5t-5 -23.5q0 -35 28.5 -67t28.5 -73q0 -54 -37 -80q-24 -18 -47 -18q-79 0 -108 63q-17 41 -17 80.5t17 74.5q37 77 106 100q23 7 42 7t33 -2l4 -15q-16 -7 -28 -20zM450 808q-12 -13 -17 -26.5t-5 -23.5q0 -35 28.5 -67t28.5 -73
q0 -54 -37 -80q-24 -18 -47 -18q-79 0 -108 63q-17 41 -17 80.5t17 74.5q38 77 106 100q23 7 42 7t33 -2l4 -15q-16 -7 -28 -20z" />
    <glyph glyph-name="quotedblright" unicode="&#x201d;" horiz-adv-x="498" 
d="M80 591q7 13 7.5 21.5t0.5 16.5q0 26 -26.5 56.5t-26.5 69.5q0 52 34 76q24 18 45 18q76 0 103 -60q16 -39 16 -77t-16 -71q-35 -73 -100 -95q-22 -7 -40 -7t-32 2l-4 14q26 11 39 36zM310 591q7 13 7.5 21.5t0.5 16.5q0 26 -26.5 56.5t-26.5 69.5q0 52 34 76
q24 18 45 18q76 0 103 -60q16 -39 16 -77t-16 -71q-35 -73 -100 -95q-22 -7 -40 -7t-32 2l-4 14q26 11 39 36z" />
    <glyph glyph-name="quotedblbase" unicode="&#x201e;" horiz-adv-x="518" 
d="M41 -134q34 15 45 47q5 13 5 24q0 34 -28 66t-28 73q0 54 36 80q25 19 47 19q80 0 109 -64q16 -40 16 -79.5t-17 -75.5q-37 -76 -105 -99q-23 -8 -42 -8t-33 3zM282 -134q33 15 44 47q5 13 5 24q0 34 -28 66t-28 73q0 54 36 80q25 19 47 19q80 0 109 -64q16 -40 16 -79.5
t-17 -75.5q-37 -76 -105 -99q-23 -8 -42 -8t-33 3z" />
    <glyph glyph-name="dagger" unicode="&#x2020;" horiz-adv-x="477" 
d="M458 438l-24 -87l-126 43l-65 40l41 -63l42 -216l-82 -335h-10l-83 335l43 216l40 63l-65 -41l-125 -42l-24 87l24 88l125 -43l65 -39l-40 61l-43 185l89 24l86 -24l-42 -185l-40 -61l64 40l126 42z" />
    <glyph glyph-name="daggerdbl" unicode="&#x2021;" horiz-adv-x="478" 
d="M435 182l24 -87l-24 -88l-125 43l-65 40l40 -62l42 -185l-88 -24l-87 24l43 185l40 62l-65 -40l-125 -43l-24 88l24 87l125 -42l65 -40l-40 62l-43 105l42 104l40 63l-65 -41l-125 -42l-24 87l24 88l125 -43l65 -39l-40 61l-43 185l89 24l86 -24l-42 -185l-40 -61l64 40
l126 42l24 -88l-24 -87l-126 43l-65 40l41 -63l43 -104l-42 -105l-40 -62l65 40z" />
    <glyph glyph-name="bullet" unicode="&#x2022;" horiz-adv-x="389" 
d="M195 178q-10 0 -32.5 7.5t-38.5 14.5t-30.5 21t-21.5 30.5t-14.5 39t-7.5 32.5t4 20q21 64 39 82t82 39q10 3 20 3t20 -3q64 -21 82 -39t39 -82q3 -10 3 -20.5t-4 -22.5q-21 -62 -39 -79.5t-81 -38.5q-10 -4 -20 -4zM242.5 275q8.5 8 14 25.5t5.5 22.5t-5.5 22t-14 25.5
t-26 14t-22 5.5t-21.5 -5.5t-25.5 -14t-14.5 -26t-6 -22t4.5 -17.5t9.5 -22q9 -14 44 -26q5 -2 9.5 -2t22 6t26 14z" />
    <glyph glyph-name="ellipsis" unicode="&#x2026;" horiz-adv-x="740" 
d="M125 -14q-37 0 -63.5 26.5t-26.5 63.5t26.5 63.5t63.5 26.5t63.5 -26.5t26.5 -63.5t-26.5 -63.5t-63.5 -26.5zM370 -14q-37 0 -63.5 26.5t-26.5 63.5t26.5 63.5t63.5 26.5t63.5 -26.5t26.5 -63.5t-26.5 -63.5t-63.5 -26.5zM615 -14q-37 0 -63.5 26.5t-26.5 63.5
t26.5 63.5t63.5 26.5t63.5 -26.5t26.5 -63.5t-26.5 -63.5t-63.5 -26.5z" />
    <glyph glyph-name="perthousand" unicode="&#x2030;" horiz-adv-x="1167" 
d="M363 642q16 -32 16 -60.5t-2 -44.5q-9 -83 -64.5 -129.5t-141 -46.5t-123.5 49q-28 37 -28 95q0 109 69 165q55 44 140 44h1h19.5t45 -7t41.5 -16q45 -26 83 -26q42 0 104 33q16 8 21 11l39 -17l-372 -711l-45 19l346 653q-37 -24 -75 -24t-74 13zM181.5 401.5
q25.5 0.5 43 36t23 84.5t5.5 76q0 76 -28 76t-48 -63q-21 -68 -21 -139t25.5 -70.5zM450 295q55 44 136 44t117 -43t36 -109q0 -101 -60 -151t-146 -50t-124 49q-28 37 -28 94q0 109 69 166zM841 295q55 44 136 44t117 -43t36 -109q0 -101 -60 -151t-146 -50t-124 49
q-28 37 -28 94q0 109 69 166zM510 94q0 -68 27 -68q24 0 41.5 35.5t23.5 85t6 76.5q0 76 -29 76q-21 0 -37.5 -36t-24 -88t-7.5 -81zM901 94q0 -68 27 -68q24 0 41.5 35.5t23.5 85t6 76.5q0 76 -29 76q-21 0 -37.5 -36t-24 -88t-7.5 -81z" />
    <glyph glyph-name="guilsinglleft" unicode="&#x2039;" horiz-adv-x="343" 
d="M283 485q-25 -45 -45.5 -83t-42.5 -110q25 -82 89 -197l-9 -7q-101 118 -235 204q72 44 128.5 88.5t106.5 109.5z" />
    <glyph glyph-name="guilsinglright" unicode="&#x203a;" horiz-adv-x="343" 
d="M60 95q25 45 45.5 84t43.5 113q-10 30 -22.5 64t-65.5 129l8 5q50 -65 106.5 -109.5t128.5 -88.5q-135 -86 -235 -204z" />
    <glyph glyph-name="fraction" unicode="&#x2044;" 
d="M498 723l47 -32l-477 -711l-48 31z" />
    <glyph glyph-name="Euro" unicode="&#x20ac;" horiz-adv-x="693" 
d="M447 -13q-142 0 -241 76t-127 201h-119l19 50h92q-3 35 0 70h-111l18 50h100q18 82 67.5 145t128.5 99t161 36t150 -15t91 -44l-53 -155h-10q1 5 1 27t-12 53.5t-34 49.5q-43 34 -101 34q-154 0 -178 -230h312l-18 -50h-298v-70h275l-16 -50h-255q25 -227 192 -227
q73 0 117 43.5t69 133.5h9v-165q-29 -30 -96 -46t-133 -16z" />
    <glyph glyph-name="trademark" unicode="&#x2122;" horiz-adv-x="512" 
d="M143 685v-164q0 -8 5 -13t13 -5h3v-3h-108v3h4q7 0 12 5t5 13v164h-24q-19 0 -29.5 -10.5t-10.5 -29.5v-2h-3v63q13 -5 34 -5h132q21 0 34 5v-63h-3v2q0 19 -10.5 29.5t-29.5 10.5h-24zM503 500h-108v3h5q4 0 7.5 3.5t3.5 7.5l-12 77l-46 -64q-13 -19 -12 -34h-3l-75 93
l-9 -72q-1 -4 2.5 -7.5t8.5 -3.5h4v-3h-64v3h5q16 0 20 15l27 187h2l100 -126l89 126h3l27 -186q4 -16 20 -16h5v-3z" />
    <glyph glyph-name="partialdiff" unicode="&#x2202;" horiz-adv-x="647" 
d="M209 641q-85 0 -134 -54l-9 7q35 70 107 100q56 23 118 23q165 0 253 -122q69 -96 69 -236q0 -175 -84 -270q-93 -104 -256 -104q-53 0 -101 16q-91 30 -127 122q-15 39 -15 80q0 47 20 97.5t70 90t122 49.5q14 2 29 2q60 0 128 -32q-11 149 -84 199q-46 32 -106 32z
M364 367q-91 0 -118 -136q-6 -37 -6 -60.5t2 -52t18 -55.5t36 -27q44 0 72 85t32 212v30q-19 4 -36 4z" />
    <glyph glyph-name="product" unicode="&#x220f;" horiz-adv-x="853" 
d="M493 -190q23 0 39 15.5t17 38.5v732q-1 22 -16.5 38t-37.5 16h-136q-22 0 -37.5 -15.5t-16.5 -37.5v-734q1 -22 17 -37.5t39 -15.5h10l1 -10h-337v10h11q23 0 39 15.5t16 38.5v772q0 31 -28 47q-12 7 -27 7h-11v10h784v-10h-11q-22 0 -38 -15.5t-17 -37.5v-774
q0 -22 16.5 -37.5t38.5 -15.5h11v-10h-337l1 10h10z" />
    <glyph glyph-name="summation" unicode="&#x2211;" horiz-adv-x="637" 
d="M25 -181v11l277 402l-271 458v10h425q43 0 76.5 7t42.5 11v-206l-10 1v7q0 60 -34 94.5t-94 35.5h-159l178 -306l-245 -350h203q68 5 120 52.5t74 128.5h10l-38 -356h-555z" />
    <glyph glyph-name="minus" unicode="&#x2212;" horiz-adv-x="481" 
d="M40 277v65h402v-65h-402z" />
    <glyph glyph-name="radical" unicode="&#x221a;" horiz-adv-x="591" 
d="M23 378l-13 52l235 59l76 -257l209 611l55 -2l-327 -988l-174 540z" />
    <glyph glyph-name="infinity" unicode="&#x221e;" horiz-adv-x="633" 
d="M248 180.5q-41 -25.5 -91.5 -25.5t-88.5 40.5t-38 100.5t38.5 101.5t86.5 41.5q88 0 162 -89q31 39 72 64t89 25t86.5 -41.5t38.5 -102.5q0 -38 -17 -70.5t-47.5 -51t-71.5 -18.5t-82 25.5t-69 64.5q-27 -39 -68 -64.5zM129.5 228.5q15.5 -10.5 39.5 -10.5t54.5 22.5
t53.5 56.5q-61 79 -115 79q-27 0 -47 -23.5t-20 -50t9.5 -45t25 -29zM471 218q27 0 47 23.5t20 55.5t-20 55.5t-47 23.5q-54 0 -115 -79q55 -79 115 -79z" />
    <glyph glyph-name="integral" unicode="&#x222b;" horiz-adv-x="641" 
d="M328.5 756q27.5 17 62.5 28t75 11q162 0 175 -80v-9q0 -25 -20 -45q-22 -17 -44 -17q-34 0 -57 29q-9 10 -15 27t-12 26t-20 8t-21.5 -14.5t-9.5 -55.5q-34 -595 -37 -635t-17 -81t-33.5 -65.5t-46.5 -40.5q-59 -36 -148 -36q-121 0 -152 59q-8 14 -8 24q0 31 18 49
q22 21 46 21q46 0 66 -51q5 -13 8 -21q7 -21 24 -20t23.5 16t11 96.5t13.5 227.5q17 308 19.5 355t17 87t34.5 65t47.5 42z" />
    <glyph glyph-name="approxequal" unicode="&#x2248;" horiz-adv-x="482" 
d="M76 426q15 9 34 14t30.5 5t28 -2t50.5 -16.5t62.5 -28t41.5 -14.5t24.5 2.5t26.5 13.5q19 13 43 32l45 -43q-1 -2 -10.5 -11.5t-19.5 -18.5q-48 -41 -97 -41q-9 0 -29 2.5t-76 29.5q-60 29 -78.5 29t-32 -6.5t-21 -13.5t-30.5 -29l-48 43q19 30 56 53zM76 256q15 9 34 14
t30 5q43 0 106 -30t76.5 -31t25 2.5t26.5 13.5q19 13 43 32l45 -43q-1 -2 -10.5 -11.5t-19.5 -18.5q-48 -41 -97 -41q-9 0 -29 2.5t-76 29.5q-61 29 -81.5 29t-34.5 -8.5t-27.5 -22l-14.5 -14.5l-4 -4l-48 43q19 30 56 53z" />
    <glyph glyph-name="notequal" unicode="&#x2260;" horiz-adv-x="481" 
d="M442 354h-122l-53 -110h175v-65h-206l-58 -121l-61 27l45 94h-122v65h153l53 110h-206v65h238l53 110l60 -28l-40 -82h91v-65z" />
    <glyph glyph-name="lessequal" unicode="&#x2264;" horiz-adv-x="501" 
d="M442 586v-71l-309 -145l309 -146v-71l-402 187v59zM40 33v65h402v-65h-402z" />
    <glyph glyph-name="greaterequal" unicode="&#x2265;" 
d="M40 586l402 -187v-59l-402 -187v71l309 146l-309 145v71zM40 33v65h402v-65h-402z" />
    <glyph glyph-name="lozenge" unicode="&#x25ca;" horiz-adv-x="510" 
d="M471 350l-222 -364l-209 364l209 364zM106 350l144 -255l154 255l-154 255z" />
    <glyph glyph-name="fi" unicode="&#xfb01;" horiz-adv-x="1049" 
d="M312 649v-279h109q48 1 78 31.5t30 77.5v5h10v-278h-10v5q0 47 -30 77.5t-77 31.5h-110v-247q0 -26 19 -44.5t45 -18.5h13v-10h-359v10h13q26 0 44.5 18.5t19.5 44.5v554q-1 26 -19.5 44.5t-44.5 18.5h-13v10h443q43 0 76 7t43 11v-206h-10v8q0 80 -58 112q-28 16 -67 17
h-145zM674 10q36 0 55 31q9 15 9 32v555q-1 26 -19.5 44t-44.5 18h-13v10h359v-10h-13q-26 0 -44.5 -18t-19.5 -44v-555q1 -37 32 -55q15 -8 32 -8h13v-10h-359v10h13z" />
    <glyph glyph-name="fl" unicode="&#xfb02;" horiz-adv-x="1283" 
d="M312 649v-279h109q48 1 78 31.5t30 77.5v5h10v-278h-10v5q0 47 -30 77.5t-77 31.5h-110v-247q0 -26 19 -44.5t45 -18.5h13v-10h-359v10h13q26 0 44.5 18.5t19.5 44.5v554q-1 26 -19.5 44.5t-44.5 18.5h-13v10h443q43 0 76 7t43 11v-206h-10v8q0 80 -58 112q-28 16 -67 17
h-145zM674 10q36 0 55 31q9 15 9 32v554q-1 26 -19.5 44.5t-44.5 18.5h-13v10h359v-10h-13q-26 0 -45 -18.5t-19 -44.5v-576h123q73 0 129 48t79 133h10l-38 -232h-585v10h13z" />
    </font>
</defs>
</svg>
